<svg width="516" height="516" viewBox="0 0 516 516" fill="none" xmlns="http://www.w3.org/2000/svg">
<path d="M499.361 167.039C549.585 300.336 482.246 449.126 348.945 499.361C215.657 549.584 66.8765 482.246 16.6281 348.949C-33.5836 215.64 33.7435 66.8622 167.044 16.6272C300.344 -33.5833 449.125 33.7423 499.361 167.039Z" fill="url(#paint0_radial_800_32752)" style=""/>
<path d="M51.92 116.023C-26.4962 229.827 2.22063 385.643 116.027 464.045C229.833 542.447 385.652 513.768 464.056 399.964C542.473 286.149 513.78 130.333 399.974 51.9183C286.156 -26.4839 130.312 2.22008 51.92 116.023Z" fill="url(#paint1_radial_800_32752)" style=""/>
<path d="M19.6166 181.824C-22.4461 313.462 50.1755 454.274 181.804 496.36C313.47 538.409 454.285 465.802 496.372 334.176C538.422 202.538 465.813 61.7018 334.16 19.6401C202.519 -22.4338 61.7037 50.186 19.6166 181.824ZM92.5432 139.75C123.395 43.1839 226.71 -10.0886 323.266 20.7868C419.834 51.6377 473.12 154.938 442.244 251.516C411.38 348.082 308.078 401.318 211.509 370.467C114.941 339.604 61.6793 236.304 92.5432 139.75Z" fill="url(#paint2_radial_800_32752)" style=""/>
<path d="M35.4877 168.198C9.11315 284.368 75.5498 403.417 191.161 440.355C313.238 479.379 443.842 412.053 482.855 289.955C490.285 266.728 493.834 243.172 493.895 219.994C500.251 256.823 498.141 295.652 485.978 333.688C445.587 460.056 310.408 529.76 184.037 489.37C57.6902 448.979 -13.7481 314.536 26.6311 188.167C28.7416 181.58 32.8771 174.468 35.4877 168.198Z" fill="url(#paint3_radial_800_32752)" style=""/>
<path d="M297.843 221.983C295.769 211.845 290.682 195.56 288.779 187.448C286.9 179.335 227.429 161.159 207.532 156.182L333.782 106.923L357.46 117.585C357.619 118.073 353.325 117.658 350.092 121.354C338.307 134.797 308.993 164.904 298.014 178.225C295.171 181.678 294.561 184.801 294.695 185.325C303.21 217.347 310.896 259.445 314.202 278.878C314.421 280.208 317.435 282.916 323.668 285.197C340.089 291.211 375.966 304.313 396.863 316.243C400.584 318.366 406.403 316.768 426.617 302.886L389.349 340.788L238.079 364.161L225.294 360.367C225.294 360.367 233.578 360.965 239.75 355.158C256.634 339.226 292.5 307.448 305.358 291.211C308.676 287.027 309.127 281.379 308.859 279.866C306.248 265.545 301.942 242.257 297.843 221.983Z" fill="#6D6D6C" style="fill:#6D6D6C;fill:color(display-p3 0.4275 0.4275 0.4235);fill-opacity:1;"/>
<path d="M461.446 259.25C467.131 251.162 466.313 229.68 458.835 197.402C451.491 165.661 438.938 146.947 437.987 143.642C437.987 143.642 452.784 151.925 465.471 176.798C485.759 216.627 509.547 280.013 505.497 277.231C485.6 263.495 469.204 255.944 468.07 257.567C448.393 286.1 421.737 311.193 407.318 321.977C403.793 324.612 410.197 334.468 403.256 367.32C398.461 389.986 385.921 412.456 385.884 412.48L392.142 326.344L392.581 326.076C396.973 323.282 433.583 298.86 461.446 259.25Z" fill="#6D6D6C" style="fill:#6D6D6C;fill:color(display-p3 0.4275 0.4275 0.4235);fill-opacity:1;"/>
<path d="M420.469 434.243C424.019 435.902 442.5 426.424 442.5 426.424L423.238 442.514C423.238 442.502 410.868 455.31 411.246 454.603C413.332 450.651 419.078 443.051 417.163 439.452C412.991 431.596 400.462 422.923 388.031 416.713C383.761 414.591 363.267 422.191 361.266 420.495L390.398 385.448C392.874 387.546 387.787 409.784 390.166 411.736C404.171 423.301 416.089 432.194 420.469 434.243Z" fill="#6D6D6C" style="fill:#6D6D6C;fill:color(display-p3 0.4275 0.4275 0.4235);fill-opacity:1;"/>
<path d="M278.751 442.624C282.606 439.074 259.891 414.115 284.863 436.902C284.863 436.902 392.069 402.66 389.678 404.88C389.532 405.015 387.787 414.822 374.039 421.459C328.243 443.563 284.253 443.404 283.704 443.892C274.091 452.663 254.487 469.62 234.297 483.978C231.187 486.198 256.207 505.85 258.732 508.046L219.17 489.907C233.748 480.892 250.23 467.619 263.002 456.628C269.407 451.114 274.86 446.174 278.751 442.624Z" fill="#6D6D6C" style="fill:#6D6D6C;fill:color(display-p3 0.4275 0.4275 0.4235);fill-opacity:1;"/>
<path d="M368.33 116.097C361.705 113.73 358.961 110.888 355.557 108.045C342.394 91.0889 328.646 73.5225 297.806 46.5142C293.829 41.964 297.794 35.0472 298.977 32.8148C302.466 26.2153 306.211 19.2863 309.627 13.0893C307.883 12.7477 306.114 12.4183 304.357 12.1012C301.137 17.9444 293.268 32.7539 292.67 33.8762C288.998 37.7676 282.862 42.3422 273.152 43.1107C252.084 44.7819 245.777 48.1244 196.883 58.6033C183.622 61.4456 157.955 52.394 138.144 50.552C130.544 49.8445 130.946 46.075 130.666 43.5499L127.506 56.3587C162.969 55.7853 191.564 67.789 191.564 67.789C191.564 67.789 360.925 118.792 380.456 125.185C400.023 131.577 420.03 138.847 432.9 143.617C441.476 146.801 446.856 148.887 446.88 148.911L471.888 135.041C470.717 130.808 465.776 115.511 456.834 106.093C456.542 106.374 461.214 115.694 460.836 115.975C450.479 123.745 441.012 142.422 438.719 141.629C424.372 136.688 395.326 125.734 368.33 116.097Z" fill="#6D6D6C" style="fill:#6D6D6C;fill:color(display-p3 0.4275 0.4275 0.4235);fill-opacity:1;"/>
<path d="M26.5213 304.35L13.4195 310.571C13.0535 308.863 12.6631 307.167 12.3459 305.447L24.3621 299.751L26.5213 304.35Z" fill="#6D6D6C" style="fill:#6D6D6C;fill:color(display-p3 0.4275 0.4275 0.4235);fill-opacity:1;"/>
<path d="M504.143 275.719C497.47 269.607 486.442 260.507 474.999 255.517C472.998 254.639 468.838 250.211 468.411 244.978C466.838 225.728 461.36 177.774 444.428 150.863C443.184 148.887 441.085 144.63 442.061 143.434C445.404 139.36 453.528 129.332 460.092 120.134C461.299 118.451 464.996 117.353 465.715 118.427C496.177 163.794 510.706 217.847 507.79 271.754C507.693 274.096 505.375 276.841 504.143 275.719Z" fill="#222200" style="fill:#222200;fill:color(display-p3 0.1333 0.1333 0.0000);fill-opacity:1;"/>
<path d="M445.636 423.471C433.802 436.951 420.762 448.845 406.793 459.178C412.649 451.395 416.602 445.478 418.956 441.77C420.81 438.842 424.702 436.341 426.459 435.536C432.4 432.767 439.829 427.729 445.636 423.471Z" fill="#222200" style="fill:#222200;fill:color(display-p3 0.1333 0.1333 0.0000);fill-opacity:1;"/>
<path d="M51.4564 126.331C51.4564 126.331 103.254 69.8018 128.519 62.2263C139.144 59.0424 184.159 68.3624 187.953 73.1077C191.735 77.8409 186.94 139.604 185.525 148.131C185.525 148.131 189.563 152.669 193.467 149.924C197.371 147.179 192.637 67.5938 192.637 67.5938C192.637 67.5938 168.007 54.8094 130.104 55.273C118.161 55.4316 58.0806 106.923 51.4564 126.331Z" fill="#F2F2F3" style="fill:#F2F2F3;fill:color(display-p3 0.9490 0.9490 0.9529);fill-opacity:1;"/>
<path d="M348.14 119.817C338.991 128.173 320.582 146.118 295.391 176.359C293.866 178.189 288.498 180.909 284.302 179.128C270.334 173.199 234.773 159.329 188.782 150.522C188.782 150.522 192.93 75.3645 193.479 66.7155C193.479 66.7155 195.065 63.4218 199.03 61.897C213.681 56.2367 248.461 45.6481 285.924 45.9042C285.924 45.9042 290.938 46.685 294.122 49.0271C304.321 56.5417 328.414 76.1086 350.409 107.813C351.836 109.851 352.397 115.926 348.14 119.817Z" fill="url(#paint4_radial_800_32752)" style=""/>
<path d="M50.1877 204.343C50.1877 204.343 38.8181 160.769 59.0321 114.023C72.9391 81.8665 117.137 63.495 129.141 62.8607C141.145 62.2263 80.5026 93.1749 72.9269 160.757C72.9269 160.757 67.2421 197.39 77.9774 211.284L50.1877 204.343Z" fill="white" style="fill:white;fill-opacity:1;"/>
<path d="M242.08 360.769C236.749 360.111 228.796 359.061 218.536 356.731C153.063 341.873 136.155 330.211 136.094 330.04C114.611 274.462 113.514 233.999 114.611 227.716C115.844 220.763 119.516 217.25 121.565 214.456C147 179.494 176.022 161.025 183.854 156.121C188.685 153.096 190.014 151.302 258.232 168.979C258.464 169.04 191.954 149.119 192.113 145.606C193.028 126.331 193.76 66.1666 193.76 66.1544L185.964 71.5463C188.612 72.5222 190.429 144.203 185.037 148.131C155.064 170.016 133.13 191.412 118.357 212.992C113.709 219.775 107.695 221.934 105.206 221.007C69.4258 214.48 49.4436 212.285 47.0525 207.088C39.4769 190.668 47.4673 125.892 53.9817 118.439L48.6872 122.757C39.0377 153.254 39.5378 187.497 40.6846 205.709C40.6968 205.856 39.4403 212.968 37.0004 216.847C32.0842 224.691 25.6064 239.354 22.2394 256.188C15.6519 289.101 20.4462 302.581 20.4828 303.154C20.8121 307.668 41.9655 220.751 41.9655 220.763L102.425 234.987C99.9603 238.549 115.563 326.32 115.563 326.32C114.636 321.111 82.2959 368.65 82.0153 366.722L62.8138 358.915C63.8752 365.893 75.196 375.408 80.1001 385.911C85.0285 396.39 94.6781 416.469 100.704 427.119C112.782 448.418 127.372 466.253 127.384 466.265L212.046 497.714L229.076 483.539C229.076 483.539 168.471 478.769 129.153 455.555C126.859 454.2 117.966 440.806 109.634 426.155C103.413 413.627 92.8726 393.169 88.4077 384.02C84.3332 375.664 90.6279 372.578 92.9946 370.577C105.584 359.879 122.992 344.142 130.58 337.689C132.813 335.798 138.07 336.25 139.9 336.957C183.012 353.767 212.583 360.83 230.747 364.136C238.567 365.551 251.035 392.816 265.564 417.897C279.666 442.233 279.544 439.22 284.997 441.111C284.997 441.111 244.752 361.086 242.08 360.769Z" fill="#6D6D6C" style="fill:#6D6D6C;fill:color(display-p3 0.4275 0.4275 0.4235);fill-opacity:1;"/>
<path d="M115.575 326.332C115.636 326.686 115.722 327.064 115.88 327.515L115.575 326.332Z" fill="#6D6D6C" style="fill:#6D6D6C;fill:color(display-p3 0.4275 0.4275 0.4235);fill-opacity:1;"/>
<path d="M129.897 55.0534C129.897 55.0534 81.5517 84.8064 48.9434 128.198C48.9434 128.198 48.1749 128.076 44.8567 126.844C47.1135 123.196 49.468 119.573 51.9078 116.023C73.2319 85.0626 100.326 60.4453 130.727 42.5373L129.897 55.0534Z" fill="url(#paint5_radial_800_32752)" style=""/>
<path d="M48.675 122.769L50.8221 122.233C50.8221 122.233 87.4561 74.23 123.456 54.6508L126.615 49.6005C126.615 49.6005 85.6995 69.6188 48.675 122.769Z" fill="#E0E0E0" style="fill:#E0E0E0;fill:color(display-p3 0.8784 0.8784 0.8784);fill-opacity:1;"/>
<path d="M132.337 43.2693C132.337 43.2693 131.776 47.7585 136.277 48.8808C140.766 50.0031 184.5 58.5789 196.883 56.7002C212.51 54.3337 247.826 42.6959 268.894 40.7319C268.894 40.7319 243.886 39.6096 204.275 50.5642C204.275 50.5642 193.882 52.0037 184.049 51.4059C170.008 50.5642 147.525 48.0146 138.534 46.0628C132.056 44.6722 132.337 43.2693 132.337 43.2693Z" fill="white" style="fill:white;fill-opacity:1;"/>
<path d="M83.04 379.787C75.0374 366.198 25.5088 307.167 23.1422 305.752C20.7755 304.325 13.6024 310.522 13.6024 310.522C19.3604 308.546 20.678 308.875 20.678 308.875C35.3169 354.292 73.8663 371.504 78.0994 382.581C90.0546 413.871 110.891 443.478 110.891 443.478C106.633 435.902 92.1894 405.112 83.04 379.787Z" fill="#CDCBCD" style="fill:#CDCBCD;fill:color(display-p3 0.8039 0.7961 0.8039);fill-opacity:1;"/>
<path d="M131.532 325.917C126.31 311.242 111.025 265.764 110.391 234.328C110.342 231.949 107.487 226.875 102.668 225.935C89.957 223.471 64.7657 218.64 49.6022 216.042C46.0156 215.432 40.5626 214.907 36.7686 223.434C31.523 235.231 19.3604 260.97 20.3852 297.994C20.3852 297.994 26.2896 338.262 75.9401 373.334C77.709 374.578 82.7961 375.774 85.1017 373.615C93.7021 365.576 115.27 345.545 127.347 335.371C129.751 333.371 132.605 328.955 131.532 325.917Z" fill="#1B1A17" style="fill:#1B1A17;fill:color(display-p3 0.1059 0.1020 0.0902);fill-opacity:1;"/>
<path d="M39.7696 220.763C39.7696 220.763 19.8728 254.554 21.1415 298.14C21.1415 298.14 32.3159 347.107 75.4522 368.882C75.4522 368.882 77.9774 370.772 84.6137 364.148C91.2501 357.512 122.041 333.834 124.407 330.516C126.774 327.198 104.035 281.721 103.559 235.78C103.559 235.78 103.559 230.095 94.0803 228.204C84.6015 226.313 50.6513 218.567 45.4422 217.628C45.4544 217.603 40.7212 218.872 39.7696 220.763Z" fill="url(#paint6_radial_800_32752)" style=""/>
<path d="M22.5566 294.981C22.5566 294.981 25.399 248.088 40.526 225.167C40.526 225.167 41.3921 221.702 49.1752 223.434C56.9582 225.167 82.0153 228.619 99.3137 233.816C116.6 239 49.6266 223.312 45.3081 226.777C40.9652 230.217 31.0838 242.391 22.5566 294.981Z" fill="white" style="fill:white;fill-opacity:1;"/>
<path d="M18.2991 299.202C18.2991 299.202 4.39207 222.398 35.4877 168.198C35.4877 168.198 38.0496 143.837 41.5629 135.066C41.5629 135.066 -5.84302 204.843 13.0291 303.166L18.2991 299.202Z" fill="url(#paint7_radial_800_32752)" style=""/>
<path d="M259.135 508.193C211.107 508.449 162.554 494.896 119.674 466.448C119.674 466.448 123.529 462.032 124.005 461.093C124.481 460.141 129.738 460.166 131.41 460.946C176.717 481.941 212.644 485.259 223.879 485.783C226.283 485.893 229.857 487.772 230.882 488.833C239.946 498.165 253.023 505.85 259.135 508.193Z" fill="url(#paint8_radial_800_32752)" style=""/>
<path d="M396.229 319.391C381.553 312.95 344.614 297.103 319.387 289.747C317.557 289.211 312.287 290.028 309.273 292.968C295.793 306.118 257.549 343.276 241.361 357C238.872 359.11 237.335 364.624 240.177 369.735C248.314 384.374 267.028 417.494 280.008 436.841C281.679 439.33 287.193 441.001 291.621 440.635C309.029 439.208 353.983 433.682 384.737 410.968C384.737 410.968 407.44 368.821 403.707 330.016C403.451 327.393 400.23 321.16 396.229 319.391Z" fill="#222200" style="fill:#222200;fill:color(display-p3 0.1333 0.1333 0.0000);fill-opacity:1;"/>
<path d="M299.575 37.4626C299.575 37.4626 297.025 42.0128 300.429 46.5508C302.186 48.893 335.929 77.2309 353.825 105.63C353.825 105.63 356.374 110.461 366.317 114.157C376.259 117.853 420.566 130.064 436.193 137.445C436.193 137.445 395.595 120.415 378.528 114.718C365.743 110.461 356.655 101.08 340.186 79.2072C337.209 75.2547 324.559 62.1653 307.529 43.4157C302.625 38.0238 306.626 24.3976 308.09 21.5431C308.09 21.5553 301.856 32.0585 299.575 37.4626Z" fill="white" style="fill:white;fill-opacity:1;"/>
<path d="M451.894 151.29C458.128 161.196 470.851 187.033 474.633 230.241C475.17 236.353 480.208 247.869 483.709 250.077C490.333 254.249 500.837 262.007 506.217 271.925C506.217 271.925 512.853 191.669 468.326 125.514C467.301 123.989 464.142 122.721 462.69 125.246C460.458 129.113 457.213 134.785 455.053 138.652C452.211 143.776 448.661 146.142 451.894 151.29Z" fill="url(#paint9_radial_800_32752)" style=""/>
<path d="M451.259 144.971C451.259 144.971 462.47 122.708 465.008 123.965C467.533 125.234 484.112 150.022 495.481 188.546C495.481 188.546 477.695 144.983 467.411 130.32C466.46 128.954 464.349 127.502 462.763 129.564C460.921 131.967 457.481 136.505 451.259 144.971Z" fill="url(#paint10_radial_800_32752)" style=""/>
<path d="M408.001 324.343C408.001 324.343 408.318 327.503 408.623 335.713C408.941 343.923 407.672 378.031 392.52 406.454C392.52 406.454 406.732 401.404 412.417 331.614C412.417 331.614 409.575 328.772 423.787 317.719C437.999 306.667 464.215 278.561 470.522 264.972C470.522 264.972 477.158 264.032 493.578 271.925C493.578 271.925 480.635 264.032 469.253 261.824C469.253 261.824 467.362 262.459 464.203 267.826C461.055 273.181 424.421 313.926 408.001 324.343Z" fill="#D6D6D8" style="fill:#D6D6D8;fill:color(display-p3 0.8392 0.8392 0.8471);fill-opacity:1;"/>
<path d="M320.204 279.5C320.204 279.5 335.05 284.868 363.157 296.554C391.264 308.241 396.949 313.608 404.524 311.4C412.112 309.192 442.732 285.819 460.421 256.762C460.421 256.762 467.838 216.347 437.523 147.655C437.523 147.655 422.36 145.288 355.569 122.55C356.289 125.124 434.461 149.168 435.62 151.925C454.09 195.499 461.177 243.563 452.199 257.713C437.987 280.135 408.697 302.629 396.937 301.288C380.212 299.397 342.626 284.868 320.204 279.5Z" fill="white" style="fill:white;fill-opacity:1;"/>
<path d="M253.731 502.923C253.731 502.923 237.201 490.419 238.567 487.296C240.226 483.502 243.544 482.319 248.985 478.293C259.342 470.632 277.409 456.506 283.094 450.821C283.094 450.821 286.412 447.979 291.621 447.503C296.83 447.027 327.621 442.77 339.466 438.5C339.466 438.5 312.945 447.967 294.939 450.821C294.939 450.821 286.888 452.48 283.094 455.554C275.958 461.349 255.109 479.476 245.435 485.515C245.435 485.527 239.726 489.919 253.731 502.923Z" fill="#CDCBCD" style="fill:#CDCBCD;fill:color(display-p3 0.8039 0.7961 0.8039);fill-opacity:1;"/>
<path d="M243.3 366.978C243.3 366.978 241.873 362.953 244.252 360.342C246.619 357.732 296.599 314.157 310.335 297.103C310.335 297.103 313.653 291.419 321.704 293.553C329.756 295.688 380.919 316.048 393.472 321.501C393.472 321.501 400.34 324.343 400.816 331.687C401.292 339.031 404.378 353.718 385.421 404.161C385.421 404.161 379.26 423.105 293.524 436.841C293.524 436.841 286.656 440.404 277.885 427.839C269.126 415.298 243.3 366.978 243.3 366.978Z" fill="url(#paint11_radial_800_32752)" style=""/>
<path d="M215.669 148.765C215.669 148.765 252.779 160.452 281.679 172.297C281.679 172.297 289.255 174.663 296.367 167.564C303.467 160.464 333.306 123.989 347.054 114.986C347.054 114.986 348.469 113.096 340.894 102.666C333.306 92.2478 306.309 61.4578 290.682 50.0885C290.67 50.0763 246.936 78.341 215.669 148.765Z" fill="url(#paint12_radial_800_32752)" style=""/>
<path d="M122.114 467.241C122.114 467.241 124.956 462.74 126.14 462.74C127.323 462.74 127.555 462.264 131.581 463.923C135.606 465.582 165.433 483.563 217.036 489.016C217.036 489.016 223.428 489.016 228.637 492.566C233.846 496.116 243.544 504.399 253.011 507.717C253.011 507.717 240.934 504.643 226.734 494.701C226.734 494.701 220.586 492.09 215.608 492.09C210.643 492.09 162.591 486.405 130.629 466.765C130.629 466.765 126.127 464.643 124.005 468.193L122.114 467.241Z" fill="url(#paint13_radial_800_32752)" style=""/>
<path d="M197.358 68.9357C197.358 68.9357 194.858 125.294 195.968 143.068C195.968 143.068 200.189 72.3514 203.982 70.4484C207.776 68.5575 230.955 57.2736 286.205 48.6734C286.205 48.6612 225.685 53.9433 197.358 68.9357Z" fill="url(#paint14_radial_800_32752)" style=""/>
<path d="M153.917 176.835C154.832 176.371 157.577 172.321 157.955 169.674C151.807 175.054 146.134 180.409 140.925 185.752C140.779 186.191 140.522 186.655 140.01 187.167C138.754 188.46 137.692 191.717 138.449 193.413C138.449 193.584 138.449 193.742 138.449 193.901C144.024 187.875 149.513 182.593 154.674 178.006C154.613 177.42 154.381 176.981 153.917 176.835Z" fill="#4D4D4C" style="fill:#4D4D4C;fill:color(display-p3 0.3020 0.3020 0.2980);fill-opacity:1;"/>
<path d="M126.445 310.144C128.018 314.499 129.092 319.488 132.093 326.905C132.825 326.734 133.703 326.429 134.581 326.015C129.104 311.376 125.054 297.872 122.077 285.819C121.907 286.173 121.65 286.576 121.236 287.161C120.504 288.174 120.138 289.211 120.284 290.748C120.296 290.882 124.517 304.813 126.445 310.144Z" fill="#4D4D4C" style="fill:#4D4D4C;fill:color(display-p3 0.3020 0.3020 0.2980);fill-opacity:1;"/>
<path d="M117.271 227.35C117.271 227.35 119.723 275.17 137.619 325.307C141.864 337.177 232.187 355.841 232.187 355.841C232.187 355.841 312.836 291.443 305.26 279.464C305.101 279.208 285.912 185.703 283.704 187.619C282.569 188.594 300.075 261.885 300.075 281.05C289.291 308.595 233.004 350.059 230.991 349.729C199.054 344.533 147.366 328.406 143.548 322.172C135.179 308.522 120.101 238.097 125.2 225.703C130.312 213.309 176.595 163.514 191.905 162.05C207.227 160.586 226.563 163.721 238.226 167.356C238.226 167.356 198.688 154.84 188.941 157.804C171.435 163.135 126.603 205.722 117.271 227.35Z" fill="white" style="fill:white;fill-opacity:1;"/>
<path d="M131.532 325.917C129.116 319.147 124.566 305.826 120.308 290.345C120.174 291.931 120.382 293.432 121.016 293.505C116.149 293.834 115.16 296.298 115.709 300.556C115.636 300.543 115.563 300.556 115.502 300.543C120.772 317.305 125.566 328.894 124.407 330.516C123.858 331.285 121.76 333.163 118.796 335.676C119.198 337.909 119.186 340.043 119.455 342.251C122.334 339.714 125.017 337.372 127.36 335.408C127.933 334.92 128.531 334.298 129.104 333.59C129.482 332.004 130.361 328.601 130.031 326.49C129.58 326.051 129.189 325.478 128.848 324.783C128.799 324.77 128.738 324.758 128.677 324.746C128.616 324.77 128.555 324.77 128.47 324.709C128.543 324.709 128.604 324.734 128.677 324.746C128.714 324.734 128.75 324.709 128.787 324.673C128.799 324.709 128.823 324.746 128.848 324.783C129.543 324.966 129.897 325.6 130.031 326.49C130.556 327.003 131.129 327.332 131.739 327.527C131.751 326.966 131.715 326.417 131.532 325.917Z" fill="#222221" style="fill:#222221;fill:color(display-p3 0.1333 0.1333 0.1294);fill-opacity:1;"/>
<path d="M107.939 303.3C107.255 303.642 102.364 304.032 102.62 305.679C101.388 304.35 97.0203 304.911 95.6296 305.142C94.9708 305.277 92.9214 306.24 92.958 306.814C92.2382 305.374 87.1512 305.557 85.9678 305.728C85.3091 305.887 83.1986 306.594 83.1986 307.192C82.1617 305.704 77.6846 305.569 76.2939 305.643C74.8056 305.752 73.4271 306.277 73.3539 307.655C73.7077 304.801 63.802 304.032 63.5702 306.106C62.8992 304.764 54.1402 302.325 53.7499 304.862C53.1033 303.569 44.4907 300.421 43.9661 303.166C41.8923 301.092 38.0617 299.677 35.0364 300.836C34.6338 301.056 34.5362 300.47 34.3776 301.092C33.5969 299.531 25.9358 295.713 24.9477 298.616C24.9477 298.592 24.9721 298.421 24.9965 298.47C24.9965 297.64 23.13 296.225 21.0927 295.225C21.1049 296.176 21.1049 297.14 21.1293 298.104C21.1293 298.104 22.1053 302.361 24.5695 308.9C24.8257 308.997 25.0818 309.083 25.338 309.205C25.9846 310.583 29.4613 311.217 30.6935 311.291C32.9381 311.413 33.1943 311.059 35.5121 311.888C36.9394 313.023 39.1109 313.694 40.9408 313.608C43.2952 313.486 44.0027 312.962 46.3084 314.304C48.3334 315.475 50.3463 314.938 52.3958 314.987C54.25 315.133 55.4334 315.658 57.2998 316.256C58.8613 316.756 62.5455 317.268 63.9118 315.829C65.6806 316.866 68.2425 317.805 70.3041 317.622C71.8412 317.902 71.7924 317.219 73.0367 317.122C74.647 317.061 74.8544 317.024 76.5989 317.341C77.9408 317.024 80.4416 318.439 82.2593 318C84.2356 317.536 84.9919 316.304 87.2487 317.463C89.6154 318.671 91.7746 317.463 93.9583 316.963C95.8979 316.622 97.0935 316.902 99.1307 317.085C100.814 317.244 104.559 316.719 105.523 314.938C106.938 315.292 109.329 315.585 110.793 315.292C112.757 314.902 116.149 311.925 117.686 313.34C117.686 315.511 120.296 314.743 118.479 317.634C117.454 319.269 117.003 322.904 118.076 324.551C118.637 328.174 117.722 331.626 118.784 335.566C121.76 333.114 123.858 331.236 124.407 330.467C125.554 328.857 120.772 317.256 115.502 300.495C112.721 300.165 110.415 302.3 107.939 303.3Z" fill="url(#paint15_radial_800_32752)" style=""/>
<path d="M93.9339 376.591C93.9339 376.591 129.458 345.179 136.253 344.496C143.06 343.813 164.091 353.023 181.987 358.976C199.884 364.941 202.848 365.624 225.307 371.236C235.53 373.785 264.1 423.789 276.336 438.073C276.336 438.073 244.496 382.129 232.175 366.259C232.175 366.259 174.034 355.573 141.389 340.141C139.12 339.067 133.301 339.592 130.666 342.044C122.834 349.302 105.816 365.136 93.9339 376.591Z" fill="white" style="fill:white;fill-opacity:1;"/>
<path d="M248.375 360.281C248.375 360.281 295.574 321.172 310.628 301.41C310.628 301.41 316.081 294.859 322.192 297.482C328.499 300.19 382.517 318.866 391.459 324.051C400.401 329.223 400.987 339.604 395.961 368.406C395.961 368.406 402.719 332.187 387.702 325.929C372.453 319.586 325.718 301.422 322.424 300.97C317.618 300.324 313.69 303.813 309.103 308.827C304.601 313.767 255.902 357.463 248.375 360.281Z" fill="white" style="fill:white;fill-opacity:1;"/>
<defs>
<radialGradient id="paint0_radial_800_32752" cx="0" cy="0" r="1" gradientUnits="userSpaceOnUse" gradientTransform="translate(242.504 77.5793) rotate(-126.678) scale(626.987 626.991)">
<stop stop-color="white" style="stop-color:white;stop-opacity:1;"/>
<stop offset="0.1275" stop-color="#FBFBFB" style="stop-color:#FBFBFB;stop-color:color(display-p3 0.9843 0.9843 0.9843);stop-opacity:1;"/>
<stop offset="0.2665" stop-color="#EEEEED" style="stop-color:#EEEEED;stop-color:color(display-p3 0.9333 0.9333 0.9294);stop-opacity:1;"/>
<stop offset="0.4106" stop-color="#D9D9D8" style="stop-color:#D9D9D8;stop-color:color(display-p3 0.8510 0.8510 0.8471);stop-opacity:1;"/>
<stop offset="0.4419" stop-color="#D3D3D2" style="stop-color:#D3D3D2;stop-color:color(display-p3 0.8275 0.8275 0.8235);stop-opacity:1;"/>
<stop offset="0.4615" stop-color="#D9D9D8" style="stop-color:#D9D9D8;stop-color:color(display-p3 0.8510 0.8510 0.8471);stop-opacity:1;"/>
<stop offset="0.5103" stop-color="#E1E1E0" style="stop-color:#E1E1E0;stop-color:color(display-p3 0.8824 0.8824 0.8784);stop-opacity:1;"/>
<stop offset="0.59" stop-color="#E3E3E3" style="stop-color:#E3E3E3;stop-color:color(display-p3 0.8902 0.8902 0.8902);stop-opacity:1;"/>
<stop offset="0.9038" stop-color="#7D7D7D" style="stop-color:#7D7D7D;stop-color:color(display-p3 0.4902 0.4902 0.4902);stop-opacity:1;"/>
<stop offset="1" stop-color="#B6B6B6" style="stop-color:#B6B6B6;stop-color:color(display-p3 0.7137 0.7137 0.7137);stop-opacity:1;"/>
</radialGradient>
<radialGradient id="paint1_radial_800_32752" cx="0" cy="0" r="1" gradientUnits="userSpaceOnUse" gradientTransform="translate(301.847 158.646) rotate(-178.304) scale(395.618 395.626)">
<stop stop-color="white" style="stop-color:white;stop-opacity:1;"/>
<stop offset="0.1275" stop-color="#FBFBFB" style="stop-color:#FBFBFB;stop-color:color(display-p3 0.9843 0.9843 0.9843);stop-opacity:1;"/>
<stop offset="0.2665" stop-color="#EEEEED" style="stop-color:#EEEEED;stop-color:color(display-p3 0.9333 0.9333 0.9294);stop-opacity:1;"/>
<stop offset="0.4106" stop-color="#D9D9D8" style="stop-color:#D9D9D8;stop-color:color(display-p3 0.8510 0.8510 0.8471);stop-opacity:1;"/>
<stop offset="0.4419" stop-color="#D3D3D2" style="stop-color:#D3D3D2;stop-color:color(display-p3 0.8275 0.8275 0.8235);stop-opacity:1;"/>
<stop offset="0.4615" stop-color="#D9D9D8" style="stop-color:#D9D9D8;stop-color:color(display-p3 0.8510 0.8510 0.8471);stop-opacity:1;"/>
<stop offset="0.5103" stop-color="#E1E1E0" style="stop-color:#E1E1E0;stop-color:color(display-p3 0.8824 0.8824 0.8784);stop-opacity:1;"/>
<stop offset="0.59" stop-color="#E3E3E3" style="stop-color:#E3E3E3;stop-color:color(display-p3 0.8902 0.8902 0.8902);stop-opacity:1;"/>
<stop offset="1" stop-color="#7D7D7D" style="stop-color:#7D7D7D;stop-color:color(display-p3 0.4902 0.4902 0.4902);stop-opacity:1;"/>
</radialGradient>
<radialGradient id="paint2_radial_800_32752" cx="0" cy="0" r="1" gradientUnits="userSpaceOnUse" gradientTransform="translate(246.895 186.252) rotate(-178.304) scale(304.01 304.021)">
<stop stop-color="white" style="stop-color:white;stop-opacity:1;"/>
<stop offset="0.1275" stop-color="#FBFBFB" style="stop-color:#FBFBFB;stop-color:color(display-p3 0.9843 0.9843 0.9843);stop-opacity:1;"/>
<stop offset="0.2665" stop-color="#EEEEED" style="stop-color:#EEEEED;stop-color:color(display-p3 0.9333 0.9333 0.9294);stop-opacity:1;"/>
<stop offset="0.4106" stop-color="#D9D9D8" style="stop-color:#D9D9D8;stop-color:color(display-p3 0.8510 0.8510 0.8471);stop-opacity:1;"/>
<stop offset="0.4419" stop-color="#D3D3D2" style="stop-color:#D3D3D2;stop-color:color(display-p3 0.8275 0.8275 0.8235);stop-opacity:1;"/>
<stop offset="0.4482" stop-color="#D6D6D6" style="stop-color:#D6D6D6;stop-color:color(display-p3 0.8392 0.8392 0.8392);stop-opacity:1;"/>
<stop offset="0.4821" stop-color="#E4E4E4" style="stop-color:#E4E4E4;stop-color:color(display-p3 0.8941 0.8941 0.8941);stop-opacity:1;"/>
<stop offset="0.5231" stop-color="#EDEDEC" style="stop-color:#EDEDEC;stop-color:color(display-p3 0.9294 0.9294 0.9255);stop-opacity:1;"/>
<stop offset="0.59" stop-color="#EFEFEF" style="stop-color:#EFEFEF;stop-color:color(display-p3 0.9373 0.9373 0.9373);stop-opacity:1;"/>
<stop offset="0.9038" stop-color="#7D7D7D" style="stop-color:#7D7D7D;stop-color:color(display-p3 0.4902 0.4902 0.4902);stop-opacity:1;"/>
<stop offset="1" stop-color="#B6B6B6" style="stop-color:#B6B6B6;stop-color:color(display-p3 0.7137 0.7137 0.7137);stop-opacity:1;"/>
</radialGradient>
<radialGradient id="paint3_radial_800_32752" cx="0" cy="0" r="1" gradientUnits="userSpaceOnUse" gradientTransform="translate(252.774 108.159) rotate(-177.543) scale(260.016 376.442)">
<stop stop-color="white" style="stop-color:white;stop-opacity:1;"/>
<stop offset="0.1275" stop-color="#FBFBFB" style="stop-color:#FBFBFB;stop-color:color(display-p3 0.9843 0.9843 0.9843);stop-opacity:1;"/>
<stop offset="0.2665" stop-color="#EEEEED" style="stop-color:#EEEEED;stop-color:color(display-p3 0.9333 0.9333 0.9294);stop-opacity:1;"/>
<stop offset="0.4106" stop-color="#D9D9D8" style="stop-color:#D9D9D8;stop-color:color(display-p3 0.8510 0.8510 0.8471);stop-opacity:1;"/>
<stop offset="0.4419" stop-color="#D3D3D2" style="stop-color:#D3D3D2;stop-color:color(display-p3 0.8275 0.8275 0.8235);stop-opacity:1;"/>
<stop offset="0.4615" stop-color="#D9D9D8" style="stop-color:#D9D9D8;stop-color:color(display-p3 0.8510 0.8510 0.8471);stop-opacity:1;"/>
<stop offset="0.5103" stop-color="#E1E1E0" style="stop-color:#E1E1E0;stop-color:color(display-p3 0.8824 0.8824 0.8784);stop-opacity:1;"/>
<stop offset="0.59" stop-color="#E3E3E3" style="stop-color:#E3E3E3;stop-color:color(display-p3 0.8902 0.8902 0.8902);stop-opacity:1;"/>
<stop offset="1" stop-color="#7D7D7D" style="stop-color:#7D7D7D;stop-color:color(display-p3 0.4902 0.4902 0.4902);stop-opacity:1;"/>
</radialGradient>
<radialGradient id="paint4_radial_800_32752" cx="0" cy="0" r="1" gradientUnits="userSpaceOnUse" gradientTransform="translate(-294.588 -341.626) scale(843.07 1024.91)">
<stop stop-color="#666666" style="stop-color:#666666;stop-color:color(display-p3 0.4000 0.4000 0.4000);stop-opacity:1;"/>
<stop offset="0.2128" stop-color="#4A4A4A" style="stop-color:#4A4A4A;stop-color:color(display-p3 0.2902 0.2902 0.2902);stop-opacity:1;"/>
<stop offset="0.5584" stop-color="#222222" style="stop-color:#222222;stop-color:color(display-p3 0.1333 0.1333 0.1333);stop-opacity:1;"/>
<stop offset="0.8329" stop-color="#090909" style="stop-color:#090909;stop-color:color(display-p3 0.0353 0.0353 0.0353);stop-opacity:1;"/>
<stop offset="1" style="stop-color:black;stop-opacity:1;"/>
</radialGradient>
<radialGradient id="paint5_radial_800_32752" cx="0" cy="0" r="1" gradientUnits="userSpaceOnUse" gradientTransform="translate(149.694 -44.9538) scale(684.783 686.441)">
<stop stop-color="#666666" style="stop-color:#666666;stop-color:color(display-p3 0.4000 0.4000 0.4000);stop-opacity:1;"/>
<stop offset="0.2128" stop-color="#4A4A4A" style="stop-color:#4A4A4A;stop-color:color(display-p3 0.2902 0.2902 0.2902);stop-opacity:1;"/>
<stop offset="0.5584" stop-color="#222222" style="stop-color:#222222;stop-color:color(display-p3 0.1333 0.1333 0.1333);stop-opacity:1;"/>
<stop offset="0.8329" stop-color="#090909" style="stop-color:#090909;stop-color:color(display-p3 0.0353 0.0353 0.0353);stop-opacity:1;"/>
<stop offset="1" style="stop-color:black;stop-opacity:1;"/>
</radialGradient>
<radialGradient id="paint6_radial_800_32752" cx="0" cy="0" r="1" gradientUnits="userSpaceOnUse" gradientTransform="translate(-0.0331553 57.4741) scale(663.23 453.061)">
<stop stop-color="#333333" style="stop-color:#333333;stop-color:color(display-p3 0.2000 0.2000 0.2000);stop-opacity:1;"/>
<stop offset="0.2638" stop-color="#222222" style="stop-color:#222222;stop-color:color(display-p3 0.1333 0.1333 0.1333);stop-opacity:1;"/>
<stop offset="0.7209" stop-color="#090909" style="stop-color:#090909;stop-color:color(display-p3 0.0353 0.0353 0.0353);stop-opacity:1;"/>
<stop offset="1" style="stop-color:black;stop-opacity:1;"/>
</radialGradient>
<radialGradient id="paint7_radial_800_32752" cx="0" cy="0" r="1" gradientUnits="userSpaceOnUse" gradientTransform="translate(-76.8519 -21.5969) scale(3679.13 721.649)">
<stop stop-color="white" style="stop-color:white;stop-opacity:1;"/>
<stop offset="0.157" stop-color="#FBFBFB" style="stop-color:#FBFBFB;stop-color:color(display-p3 0.9843 0.9843 0.9843);stop-opacity:1;"/>
<stop offset="0.3279" stop-color="#EDEDED" style="stop-color:#EDEDED;stop-color:color(display-p3 0.9294 0.9294 0.9294);stop-opacity:1;"/>
<stop offset="0.4218" stop-color="#E3E3E3" style="stop-color:#E3E3E3;stop-color:color(display-p3 0.8902 0.8902 0.8902);stop-opacity:1;"/>
<stop offset="1" stop-color="#7D7D7D" style="stop-color:#7D7D7D;stop-color:color(display-p3 0.4902 0.4902 0.4902);stop-opacity:1;"/>
</radialGradient>
<radialGradient id="paint8_radial_800_32752" cx="0" cy="0" r="1" gradientUnits="userSpaceOnUse" gradientTransform="translate(115.647 998.165) scale(360.696 1051.74)">
<stop stop-color="#919191" style="stop-color:#919191;stop-color:color(display-p3 0.5686 0.5686 0.5686);stop-opacity:1;"/>
<stop offset="0.2137" stop-color="#666666" style="stop-color:#666666;stop-color:color(display-p3 0.4000 0.4000 0.4000);stop-opacity:1;"/>
<stop offset="0.4616" stop-color="#3A3A3A" style="stop-color:#3A3A3A;stop-color:color(display-p3 0.2275 0.2275 0.2275);stop-opacity:1;"/>
<stop offset="0.6842" stop-color="#1A1A1A" style="stop-color:#1A1A1A;stop-color:color(display-p3 0.1020 0.1020 0.1020);stop-opacity:1;"/>
<stop offset="0.8712" stop-color="#070707" style="stop-color:#070707;stop-color:color(display-p3 0.0275 0.0275 0.0275);stop-opacity:1;"/>
<stop offset="1" style="stop-color:black;stop-opacity:1;"/>
</radialGradient>
<radialGradient id="paint9_radial_800_32752" cx="0" cy="0" r="1" gradientUnits="userSpaceOnUse" gradientTransform="translate(773.985 159.137) scale(934.911 353.197)">
<stop stop-color="#919191" style="stop-color:#919191;stop-color:color(display-p3 0.5686 0.5686 0.5686);stop-opacity:1;"/>
<stop offset="0.2137" stop-color="#666666" style="stop-color:#666666;stop-color:color(display-p3 0.4000 0.4000 0.4000);stop-opacity:1;"/>
<stop offset="0.4616" stop-color="#3A3A3A" style="stop-color:#3A3A3A;stop-color:color(display-p3 0.2275 0.2275 0.2275);stop-opacity:1;"/>
<stop offset="0.6842" stop-color="#1A1A1A" style="stop-color:#1A1A1A;stop-color:color(display-p3 0.1020 0.1020 0.1020);stop-opacity:1;"/>
<stop offset="0.8712" stop-color="#070707" style="stop-color:#070707;stop-color:color(display-p3 0.0275 0.0275 0.0275);stop-opacity:1;"/>
<stop offset="1" style="stop-color:black;stop-opacity:1;"/>
</radialGradient>
<radialGradient id="paint10_radial_800_32752" cx="0" cy="0" r="1" gradientUnits="userSpaceOnUse" gradientTransform="translate(-22.1197 227.785) scale(863.814 591.017)">
<stop stop-color="white" style="stop-color:white;stop-opacity:1;"/>
<stop offset="0.1275" stop-color="#FBFBFB" style="stop-color:#FBFBFB;stop-color:color(display-p3 0.9843 0.9843 0.9843);stop-opacity:1;"/>
<stop offset="0.2665" stop-color="#EEEEED" style="stop-color:#EEEEED;stop-color:color(display-p3 0.9333 0.9333 0.9294);stop-opacity:1;"/>
<stop offset="0.4106" stop-color="#D9D9D8" style="stop-color:#D9D9D8;stop-color:color(display-p3 0.8510 0.8510 0.8471);stop-opacity:1;"/>
<stop offset="0.4419" stop-color="#D3D3D2" style="stop-color:#D3D3D2;stop-color:color(display-p3 0.8275 0.8275 0.8235);stop-opacity:1;"/>
<stop offset="0.4615" stop-color="#D9D9D8" style="stop-color:#D9D9D8;stop-color:color(display-p3 0.8510 0.8510 0.8471);stop-opacity:1;"/>
<stop offset="0.5103" stop-color="#E1E1E0" style="stop-color:#E1E1E0;stop-color:color(display-p3 0.8824 0.8824 0.8784);stop-opacity:1;"/>
<stop offset="0.59" stop-color="#E3E3E3" style="stop-color:#E3E3E3;stop-color:color(display-p3 0.8902 0.8902 0.8902);stop-opacity:1;"/>
<stop offset="1" stop-color="#7D7D7D" style="stop-color:#7D7D7D;stop-color:color(display-p3 0.4902 0.4902 0.4902);stop-opacity:1;"/>
</radialGradient>
<radialGradient id="paint11_radial_800_32752" cx="0" cy="0" r="1" gradientUnits="userSpaceOnUse" gradientTransform="translate(186.296 -105.615) scale(471.456 517.79)">
<stop stop-color="#636363" style="stop-color:#636363;stop-color:color(display-p3 0.3882 0.3882 0.3882);stop-opacity:1;"/>
<stop offset="0.3064" stop-color="#414141" style="stop-color:#414141;stop-color:color(display-p3 0.2549 0.2549 0.2549);stop-opacity:1;"/>
<stop offset="0.7687" stop-color="#121212" style="stop-color:#121212;stop-color:color(display-p3 0.0706 0.0706 0.0706);stop-opacity:1;"/>
<stop offset="1" style="stop-color:black;stop-opacity:1;"/>
</radialGradient>
<radialGradient id="paint12_radial_800_32752" cx="0" cy="0" r="1" gradientUnits="userSpaceOnUse" gradientTransform="translate(510.549 418.65) scale(487.765 523.176)">
<stop stop-color="#333333" style="stop-color:#333333;stop-color:color(display-p3 0.2000 0.2000 0.2000);stop-opacity:1;"/>
<stop offset="0.2638" stop-color="#222222" style="stop-color:#222222;stop-color:color(display-p3 0.1333 0.1333 0.1333);stop-opacity:1;"/>
<stop offset="0.7209" stop-color="#090909" style="stop-color:#090909;stop-color:color(display-p3 0.0353 0.0353 0.0353);stop-opacity:1;"/>
<stop offset="1" style="stop-color:black;stop-opacity:1;"/>
</radialGradient>
<radialGradient id="paint13_radial_800_32752" cx="0" cy="0" r="1" gradientUnits="userSpaceOnUse" gradientTransform="translate(248.635 -113.07) scale(240.384 698.59)">
<stop stop-color="#636363" style="stop-color:#636363;stop-color:color(display-p3 0.3882 0.3882 0.3882);stop-opacity:1;"/>
<stop offset="0.3064" stop-color="#414141" style="stop-color:#414141;stop-color:color(display-p3 0.2549 0.2549 0.2549);stop-opacity:1;"/>
<stop offset="0.7687" stop-color="#121212" style="stop-color:#121212;stop-color:color(display-p3 0.0706 0.0706 0.0706);stop-opacity:1;"/>
<stop offset="1" style="stop-color:black;stop-opacity:1;"/>
</radialGradient>
<radialGradient id="paint14_radial_800_32752" cx="0" cy="0" r="1" gradientUnits="userSpaceOnUse" gradientTransform="translate(68.2471 128.935) scale(547.367 524.893)">
<stop stop-color="white" style="stop-color:white;stop-opacity:1;"/>
<stop offset="0.1275" stop-color="#FBFBFB" style="stop-color:#FBFBFB;stop-color:color(display-p3 0.9843 0.9843 0.9843);stop-opacity:1;"/>
<stop offset="0.2665" stop-color="#EEEEED" style="stop-color:#EEEEED;stop-color:color(display-p3 0.9333 0.9333 0.9294);stop-opacity:1;"/>
<stop offset="0.4106" stop-color="#D9D9D8" style="stop-color:#D9D9D8;stop-color:color(display-p3 0.8510 0.8510 0.8471);stop-opacity:1;"/>
<stop offset="0.4419" stop-color="#D3D3D2" style="stop-color:#D3D3D2;stop-color:color(display-p3 0.8275 0.8275 0.8235);stop-opacity:1;"/>
<stop offset="0.4615" stop-color="#D9D9D8" style="stop-color:#D9D9D8;stop-color:color(display-p3 0.8510 0.8510 0.8471);stop-opacity:1;"/>
<stop offset="0.5103" stop-color="#E1E1E0" style="stop-color:#E1E1E0;stop-color:color(display-p3 0.8824 0.8824 0.8784);stop-opacity:1;"/>
<stop offset="0.59" stop-color="#E3E3E3" style="stop-color:#E3E3E3;stop-color:color(display-p3 0.8902 0.8902 0.8902);stop-opacity:1;"/>
<stop offset="0.9038" stop-color="#7D7D7D" style="stop-color:#7D7D7D;stop-color:color(display-p3 0.4902 0.4902 0.4902);stop-opacity:1;"/>
<stop offset="1" stop-color="#B6B6B6" style="stop-color:#B6B6B6;stop-color:color(display-p3 0.7137 0.7137 0.7137);stop-opacity:1;"/>
</radialGradient>
<radialGradient id="paint15_radial_800_32752" cx="0" cy="0" r="1" gradientUnits="userSpaceOnUse" gradientTransform="translate(-0.0861611 -775.656) scale(662.875 1700.4)">
<stop stop-color="#333333" style="stop-color:#333333;stop-color:color(display-p3 0.2000 0.2000 0.2000);stop-opacity:1;"/>
<stop offset="0.2638" stop-color="#222222" style="stop-color:#222222;stop-color:color(display-p3 0.1333 0.1333 0.1333);stop-opacity:1;"/>
<stop offset="0.7209" stop-color="#090909" style="stop-color:#090909;stop-color:color(display-p3 0.0353 0.0353 0.0353);stop-opacity:1;"/>
<stop offset="1" style="stop-color:black;stop-opacity:1;"/>
</radialGradient>
</defs>
</svg>
