<svg width="24" height="24" viewBox="0 0 24 24" fill="none" xmlns="http://www.w3.org/2000/svg">
        <path
          d="M22.2026 4.1377H1.79742C0.804703 4.1377 0 4.9424 0 5.93512V18.0645C0 19.0572 0.804703 19.8619 1.79742 19.8619H22.2026C23.1952 19.8619 24 19.0572 24 18.0645V5.93512C24 4.9424 23.1953 4.1377 22.2026 4.1377Z"
          fill="#FF4B55"
        />
        <path
          d="M3.98469 6.59679L4.37919 7.77963L5.62607 7.78929C5.7875 7.79051 5.85444 7.99657 5.72455 8.09243L4.72152 8.8331L5.0976 10.0219C5.14625 10.1759 4.97104 10.3031 4.83969 10.2093L3.82532 9.48419L2.81094 10.2093C2.6796 10.3031 2.50438 10.1758 2.55304 10.0219L2.92911 8.83305L1.92608 8.09243C1.79619 7.99652 1.86313 7.79051 2.02457 7.78929L3.27144 7.77963L3.66594 6.59679C3.71704 6.44365 3.93365 6.44365 3.98469 6.59679Z"
          fill="#FFE15A"
        />
        <path
          d="M8.51249 6.88829L8.79538 7.27397L9.2519 7.13119C9.31101 7.11272 9.35962 7.18013 9.32343 7.23033L9.04396 7.6185L9.3208 8.00855C9.35666 8.05904 9.30758 8.12611 9.24862 8.10722L8.79304 7.96139L8.50762 8.34525C8.47068 8.39494 8.39169 8.36897 8.39146 8.3071L8.38935 7.82874L7.93607 7.67588C7.87738 7.65605 7.87766 7.57299 7.93649 7.55358L8.39071 7.40377L8.39605 6.92546C8.39671 6.86372 8.47588 6.83836 8.51249 6.88829Z"
          fill="#FFE15A"
        />
        <path
          d="M6.79011 5.73847L7.26561 5.79012L7.46849 5.35695C7.49479 5.30089 7.57733 5.3105 7.58994 5.37111L7.68772 5.83929L8.16238 5.89836C8.22383 5.906 8.24019 5.98747 8.18643 6.01826L7.77135 6.25592L7.86186 6.72561C7.87358 6.78645 7.80116 6.82714 7.75527 6.78556L7.40094 6.46423L6.98225 6.69542C6.92807 6.72537 6.8669 6.66903 6.8923 6.61254L7.08838 6.17623L6.73907 5.84942C6.69393 5.80733 6.72857 5.73181 6.79011 5.73847Z"
          fill="#FFE15A"
        />
        <path
          d="M7.54195 10.3741L7.2591 10.7599L6.80259 10.6171C6.74348 10.5987 6.69487 10.666 6.73106 10.7163L7.01053 11.1045L6.73368 11.4945C6.69782 11.545 6.7469 11.6121 6.80587 11.5932L7.2614 11.4473L7.54682 11.8312C7.58376 11.8809 7.66275 11.8549 7.66298 11.793L7.66509 11.3147L8.11837 11.1618C8.17706 11.142 8.17678 11.0589 8.11795 11.0395L7.66373 10.8897L7.65839 10.4114C7.65764 10.3496 7.57856 10.3242 7.54195 10.3741Z"
          fill="#FFE15A"
        />
        <path
          d="M9.26411 9.29364L8.78856 9.3453L8.58569 8.91213C8.55939 8.85606 8.47689 8.86567 8.46423 8.92628L8.3664 9.39447L7.89175 9.45353C7.83029 9.46117 7.81394 9.54264 7.8677 9.57344L8.28278 9.81109L8.19226 10.2808C8.18054 10.3416 8.25297 10.3823 8.29886 10.3407L8.65319 10.0194L9.07187 10.2506C9.12606 10.2805 9.18723 10.2242 9.16183 10.1677L8.96575 9.73141L9.31506 9.4046C9.36039 9.3625 9.32575 9.28699 9.26411 9.29364Z"
          fill="#FFE15A"
        />
      </svg>