<svg width="24" height="24" viewBox="0 0 24 24" fill="none" xmlns="http://www.w3.org/2000/svg">
<g clip-path="url(#clip0_4184_1214)">
<path d="M8.79506 10.8438H2.04877C0.919078 10.8438 0 9.92475 0 8.79506V2.04877C0 0.919078 0.919078 0 2.04877 0H8.79506C9.92475 0 10.8438 0.919078 10.8438 2.04877V8.79506C10.8438 9.92475 9.92475 10.8438 8.79506 10.8438Z" fill="#CAF0E3" style="fill:#CAF0E3;fill:color(display-p3 0.7921 0.9430 0.8887);fill-opacity:1;"/>
<path d="M21.9513 10.8438H15.205C14.0753 10.8438 13.1562 9.92475 13.1562 8.79506V2.04877C13.1562 0.919078 14.0753 0 15.205 0H21.9513C23.0809 0 24 0.919078 24 2.04877V8.79506C24 9.92475 23.0809 10.8438 21.9513 10.8438Z" fill="#0EF09F" style="fill:#0EF09F;fill:color(display-p3 0.0550 0.9430 0.6233);fill-opacity:1;"/>
<path d="M8.79506 24H2.04877C0.919078 24 0 23.0809 0 21.9513V15.205C0 14.0753 0.919078 13.1562 2.04877 13.1562H8.79506C9.92475 13.1562 10.8438 14.0753 10.8438 15.205V21.9513C10.8438 23.0809 9.92475 24 8.79506 24Z" fill="#068E5D" style="fill:#068E5D;fill:color(display-p3 0.0233 0.5583 0.3657);fill-opacity:1;"/>
<path d="M21.9513 24H15.205C14.0753 24 13.1562 23.0809 13.1562 21.9513V15.205C13.1562 14.0753 14.0753 13.1562 15.205 13.1562H21.9513C23.0809 13.1562 24 14.0753 24 15.205V21.9513C24 23.0809 23.0809 24 21.9513 24Z" fill="#CAF0E3" style="fill:#CAF0E3;fill:color(display-p3 0.7921 0.9430 0.8887);fill-opacity:1;"/>
</g>
<defs>
<clipPath id="clip0_4184_1214">
<rect width="24" height="24" fill="white" style="fill:white;fill-opacity:1;"/>
</clipPath>
</defs>
</svg>
