<svg width="24" height="24" viewBox="0 0 24 24" fill="none" xmlns="http://www.w3.org/2000/svg">
<g clip-path="url(#clip0_4130_716)">
<path d="M23.6242 1.7093C23.487 1.03695 22.9634 0.5133 22.291 0.37614C22.2273 0.363109 22.1634 0.350921 22.0995 0.338593C17.0442 0.966687 11.8597 3.43786 7.64865 7.64893C3.43752 11.8601 0.966351 17.0445 0.338257 22.0999C0.350585 22.1637 0.36282 22.2276 0.375805 22.2914C0.512964 22.9637 1.03662 23.4874 1.70896 23.6245C3.79566 24.0502 5.94132 24.1141 8.04588 23.817L8.68953 22.978L10.8224 22.5809L12.1116 22.7637C14.4629 21.8595 16.6673 20.4599 18.5634 18.5637C20.4596 16.6676 21.8592 14.4631 22.7634 12.1119L22.6352 10.9656L23.3852 8.51811L23.8167 8.04626C24.1137 5.94166 24.0499 3.79599 23.6242 1.7093Z" fill="#CE775F" style="fill:#CE775F;fill:color(display-p3 0.8078 0.4667 0.3725);fill-opacity:1;"/>
<path d="M16.8483 19.1301C11.4116 19.1301 6.731 15.8931 4.6286 11.2413C2.24157 14.6431 0.797222 18.4057 0.338257 22.0999C0.350585 22.1637 0.36282 22.2276 0.375805 22.2914C0.512964 22.9637 1.03662 23.4874 1.70896 23.6245C3.79575 24.0502 5.94146 24.114 8.04602 23.8169L8.68953 22.978L10.8224 22.5809L12.1116 22.7637H12.112C14.245 21.9433 16.257 20.7146 18.0278 19.0779C17.639 19.1118 17.2458 19.1301 16.8483 19.1301Z" fill="#C0694E" style="fill:#C0694E;fill:color(display-p3 0.7529 0.4118 0.3059);fill-opacity:1;"/>
<path d="M15.9542 0.183611V0.72489L13.2951 1.73413L11.8884 1.23692C9.53721 2.14111 7.33276 3.54074 5.43662 5.43688C3.54038 7.33312 2.14075 9.53761 1.23656 11.8889L1.4963 13.9088L0.978409 15.5729L0.183295 15.9544C-0.113759 18.059 -0.049867 20.2047 0.375816 22.2914C0.427708 22.5459 0.535242 22.779 0.685058 22.978C0.996878 17.7281 3.41752 12.2194 7.8183 7.81857C12.219 3.41779 17.7278 0.997194 22.9776 0.685327C22.7787 0.53551 22.5455 0.428023 22.291 0.376131C20.2044 -0.0495514 18.0587 -0.113397 15.9542 0.183611Z" fill="#C0694E" style="fill:#C0694E;fill:color(display-p3 0.7529 0.4118 0.3059);fill-opacity:1;"/>
<path d="M3.57688 7.60446C2.59431 8.94465 1.81429 10.3868 1.23654 11.889L1.49623 13.9088L0.978343 15.5729L0.18337 15.9544C-0.113778 18.0589 -0.0498861 20.2046 0.375797 22.2914C0.427689 22.5459 0.535222 22.779 0.685039 22.978C0.914638 19.1126 2.2876 15.1069 4.7523 11.5063C4.17263 10.2952 3.7702 8.98342 3.57688 7.60446Z" fill="#B25D46" style="fill:#B25D46;fill:color(display-p3 0.6980 0.3647 0.2745);fill-opacity:1;"/>
<path d="M4.11838 12.4747C3.94981 12.367 3.9005 12.143 4.00822 11.9744C5.01629 10.397 6.21201 8.91256 7.56223 7.56239C9.02833 6.09629 10.6488 4.8154 12.3786 3.75529C12.5492 3.65066 12.7722 3.70429 12.8767 3.87483C12.9812 4.04541 12.9277 4.2684 12.7571 4.37289C11.0758 5.40327 9.50033 6.64873 8.07445 8.07456C6.76126 9.38775 5.59854 10.8311 4.61864 12.3644C4.51087 12.533 4.28695 12.5824 4.11838 12.4747Z" fill="#B5DCFF" style="fill:#B5DCFF;fill:color(display-p3 0.7098 0.8627 1.0000);fill-opacity:1;"/>
<path d="M1.49622 17.2674L8.0458 23.817C9.28118 23.6523 10.7357 23.2928 12.1116 22.7637L3.08077 13.7329C2.45108 14.8887 1.92241 16.0717 1.49622 17.2674Z" fill="#B5DCFF" style="fill:#B5DCFF;fill:color(display-p3 0.7098 0.8627 1.0000);fill-opacity:1;"/>
<path d="M1.75094 17.522C2.15318 16.3101 2.66507 15.1094 3.28444 13.9365L1.23666 11.8887C1.23666 11.8887 1.23661 11.8888 1.23656 11.8889C0.72116 13.2293 0.380511 14.5744 0.18335 15.9545L1.75094 17.522Z" fill="#8BCAFF" style="fill:#8BCAFF;fill:color(display-p3 0.5451 0.7922 1.0000);fill-opacity:1;"/>
<path d="M17.2671 1.49658C16.0714 1.92278 14.8884 2.45145 13.7327 3.08114L22.7635 12.1119C23.2663 10.8044 23.62 9.44036 23.8168 8.04622L17.2671 1.49658Z" fill="#DBEDFF" style="fill:#DBEDFF;fill:color(display-p3 0.8588 0.9294 1.0000);fill-opacity:1;"/>
<path d="M15.9542 0.183624C14.8552 0.321018 13.3159 0.688012 11.8884 1.23693L13.9362 3.28472C15.1091 2.66534 16.3098 2.15346 17.5218 1.75121L15.9542 0.183624Z" fill="#B5DCFF" style="fill:#B5DCFF;fill:color(display-p3 0.7098 0.8627 1.0000);fill-opacity:1;"/>
<path d="M5.37257 12.0509L4.0928 10.7711C3.95133 10.6297 3.95133 10.4003 4.0928 10.2589C4.23422 10.1175 4.46359 10.1175 4.60501 10.2589L5.88478 11.5387C6.02625 11.6801 6.02625 11.9095 5.88478 12.0509C5.74331 12.1924 5.51399 12.1923 5.37257 12.0509Z" fill="#DBEDFF" style="fill:#DBEDFF;fill:color(display-p3 0.8588 0.9294 1.0000);fill-opacity:1;"/>
<path d="M11.823 5.60035L10.5432 4.32059C10.4018 4.17916 10.4018 3.9498 10.5432 3.80837C10.6847 3.66694 10.914 3.66694 11.0555 3.80837L12.3352 5.08814C12.4767 5.22956 12.4767 5.45893 12.3352 5.60035C12.1938 5.74183 11.9645 5.74183 11.823 5.60035Z" fill="#DBEDFF" style="fill:#DBEDFF;fill:color(display-p3 0.8588 0.9294 1.0000);fill-opacity:1;"/>
<path d="M10.6316 6.55912L9.35183 5.27936C9.21036 5.13793 9.21036 4.90857 9.35183 4.76714C9.49326 4.62572 9.72262 4.62572 9.86405 4.76714L11.1438 6.04691C11.2853 6.18833 11.2853 6.4177 11.1438 6.55912C11.0023 6.7006 10.773 6.70055 10.6316 6.55912Z" fill="#DBEDFF" style="fill:#DBEDFF;fill:color(display-p3 0.8588 0.9294 1.0000);fill-opacity:1;"/>
<path d="M9.44019 7.51786L8.16043 6.2381C8.01895 6.09667 8.01895 5.86731 8.16043 5.72588C8.30185 5.58446 8.53122 5.58446 8.67264 5.72588L9.95241 7.00565C10.0939 7.14707 10.0939 7.37644 9.95241 7.51786C9.81098 7.65929 9.58167 7.65929 9.44019 7.51786Z" fill="#DBEDFF" style="fill:#DBEDFF;fill:color(display-p3 0.8588 0.9294 1.0000);fill-opacity:1;"/>
<path d="M8.3263 8.55415L7.04653 7.27438C6.90506 7.13296 6.90506 6.90359 7.04653 6.76217C7.18796 6.62074 7.41732 6.62074 7.55875 6.76217L8.83852 8.04193C8.97999 8.18336 8.97999 8.41272 8.83852 8.55415C8.69709 8.69562 8.46777 8.69558 8.3263 8.55415Z" fill="#DBEDFF" style="fill:#DBEDFF;fill:color(display-p3 0.8588 0.9294 1.0000);fill-opacity:1;"/>
<path d="M7.28992 9.66804L6.01016 8.38827C5.86868 8.24685 5.86868 8.01748 6.01016 7.87606C6.15158 7.73463 6.38095 7.73463 6.52237 7.87606L7.80214 9.15582C7.94361 9.29725 7.94361 9.52662 7.80214 9.66804C7.66067 9.80951 7.43135 9.80947 7.28992 9.66804Z" fill="#DBEDFF" style="fill:#DBEDFF;fill:color(display-p3 0.8588 0.9294 1.0000);fill-opacity:1;"/>
<path d="M6.33118 10.8594L5.05142 9.57968C4.90994 9.43826 4.90994 9.20889 5.05142 9.06746C5.19284 8.92604 5.42221 8.92604 5.56363 9.06746L6.8434 10.3472C6.98487 10.4887 6.98487 10.718 6.8434 10.8594C6.70197 11.0009 6.47266 11.0009 6.33118 10.8594Z" fill="#DBEDFF" style="fill:#DBEDFF;fill:color(display-p3 0.8588 0.9294 1.0000);fill-opacity:1;"/>
</g>
<defs>
<clipPath id="clip0_4130_716">
<rect width="24" height="24" fill="white" style="fill:white;fill-opacity:1;" transform="translate(0 0.000335693)"/>
</clipPath>
</defs>
</svg>
