<svg width="24" height="24" viewBox="0 0 24 24" fill="none" xmlns="http://www.w3.org/2000/svg">
<g clip-path="url(#clip0_4130_941)">
<path d="M6.46641 13.6808C10.0377 13.6808 12.9328 10.7849 12.9328 7.21254C12.9328 3.64021 10.0377 0.744263 6.46641 0.744263C2.89511 0.744263 0 3.64021 0 7.21254C0 10.7849 2.89511 13.6808 6.46641 13.6808Z" fill="#EE3835" style="fill:#EE3835;fill:color(display-p3 0.9333 0.2196 0.2078);fill-opacity:1;"/>
<path opacity="0.1" d="M1.19217 7.21247C1.19217 3.84117 3.77063 1.07278 7.06238 0.77175C6.86606 0.753797 6.66727 0.744141 6.46627 0.744141C2.89509 0.744141 0 3.64012 0 7.21247C0 10.7848 2.89509 13.6807 6.46631 13.6807C6.66731 13.6807 6.86606 13.6711 7.06242 13.6531C3.77062 13.3521 1.19217 10.5837 1.19217 7.21247Z" fill="black" style="fill:black;fill-opacity:1;"/>
<path d="M6.46646 10.4765C8.26855 10.4765 9.72943 9.01518 9.72943 7.21258C9.72943 5.40997 8.26855 3.94867 6.46646 3.94867C4.66437 3.94867 3.20349 5.40997 3.20349 7.21258C3.20349 9.01518 4.66437 10.4765 6.46646 10.4765Z" fill="#F9FAFB" style="fill:#F9FAFB;fill:color(display-p3 0.9765 0.9804 0.9843);fill-opacity:1;"/>
<path opacity="0.1" d="M4.37021 7.21247C4.37021 5.60916 5.52619 4.27687 7.04963 4.00167C6.86026 3.96745 6.66554 3.94861 6.46627 3.94861C4.6643 3.94861 3.20349 5.40989 3.20349 7.21247C3.20349 9.015 4.6643 10.4763 6.46627 10.4763C6.66549 10.4763 6.86021 10.4574 7.04963 10.4232C5.52624 10.148 4.37021 8.81573 4.37021 7.21247Z" fill="black" style="fill:black;fill-opacity:1;"/>
<path d="M7.72237 6.50113C7.72237 5.92518 7.2569 5.45667 6.68475 5.45667H5.85168C5.65753 5.45667 5.50012 5.61407 5.50012 5.80823C5.50012 6.00238 5.65753 6.15979 5.85168 6.15979H6.68475C6.8692 6.15979 7.01925 6.31293 7.01925 6.50113C7.01925 6.68934 6.8692 6.84248 6.68475 6.84248H6.29151C6.09736 6.84248 5.93995 6.99988 5.93995 7.19404C5.93995 7.3882 6.09736 7.5456 6.29151 7.5456H6.68475C6.8692 7.5456 7.01925 7.6987 7.01925 7.8869C7.01925 8.07515 6.8692 8.22829 6.68475 8.22829H5.85168C5.65753 8.22829 5.50012 8.3857 5.50012 8.57985C5.50012 8.77401 5.65753 8.93142 5.85168 8.93142H6.68475C7.2569 8.93142 7.72237 8.46285 7.72237 7.8869C7.72237 7.62121 7.62314 7.37854 7.46025 7.19404C7.62314 7.00949 7.72237 6.76682 7.72237 6.50113Z" fill="#005289" style="fill:#005289;fill:color(display-p3 0.0000 0.3216 0.5373);fill-opacity:1;"/>
<path d="M17.5335 15.7635C21.1048 15.7635 24 12.8675 24 9.29519C24 5.72285 21.1048 2.8269 17.5335 2.8269C13.9622 2.8269 11.0671 5.72285 11.0671 9.29519C11.0671 12.8675 13.9622 15.7635 17.5335 15.7635Z" fill="#0059AD" style="fill:#0059AD;fill:color(display-p3 0.0000 0.3490 0.6784);fill-opacity:1;"/>
<path opacity="0.1" d="M12.154 9.29523C12.154 5.90594 14.7601 3.12592 18.0771 2.84983C17.8979 2.83492 17.7168 2.8269 17.5338 2.8269C13.9626 2.8269 11.0675 5.72284 11.0675 9.29523C11.0675 12.8676 13.9626 15.7635 17.5338 15.7635C17.7168 15.7635 17.8979 15.7555 18.0771 15.7406C14.7601 15.4645 12.154 12.6845 12.154 9.29523Z" fill="black" style="fill:black;fill-opacity:1;"/>
<path d="M17.5336 12.5591C19.3357 12.5591 20.7966 11.0978 20.7966 9.29522C20.7966 7.49261 19.3357 6.03131 17.5336 6.03131C15.7315 6.03131 14.2706 7.49261 14.2706 9.29522C14.2706 11.0978 15.7315 12.5591 17.5336 12.5591Z" fill="#F9FAFB" style="fill:#F9FAFB;fill:color(display-p3 0.9765 0.9804 0.9843);fill-opacity:1;"/>
<path opacity="0.1" d="M15.3738 9.29518C15.3738 7.68076 16.5459 6.34098 18.0852 6.07872C17.9058 6.04815 17.7218 6.03137 17.5337 6.03137C15.7318 6.03137 14.271 7.49265 14.271 9.29518C14.271 11.0977 15.7318 12.559 17.5337 12.559C17.7218 12.559 17.9058 12.5422 18.0852 12.5117C16.5459 12.2494 15.3738 10.9096 15.3738 9.29518Z" fill="black" style="fill:black;fill-opacity:1;"/>
<path d="M18.9879 8.5839C18.9879 8.00799 18.5224 7.53943 17.9503 7.53943H17.1172C16.5451 7.53943 16.0796 8.00799 16.0796 8.5839C16.0796 8.85854 16.1856 9.10862 16.3584 9.29523C16.1856 9.48188 16.0796 9.73191 16.0796 10.0066C16.0796 10.5825 16.5451 11.051 17.1172 11.051H17.9503C18.5224 11.051 18.9879 10.5825 18.9879 10.0066C18.9879 9.73191 18.8819 9.48184 18.7091 9.29523C18.8819 9.10862 18.9879 8.85854 18.9879 8.5839ZM17.1172 8.24255H17.9503C18.1347 8.24255 18.2848 8.39569 18.2848 8.5839C18.2848 8.7721 18.1347 8.92519 17.9503 8.92519H17.1172C16.9328 8.92519 16.7827 8.7721 16.7827 8.5839C16.7827 8.39569 16.9328 8.24255 17.1172 8.24255ZM17.9503 10.3479H17.1172C16.9328 10.3479 16.7827 10.1948 16.7827 10.0066C16.7827 9.81835 16.9328 9.66526 17.1172 9.66526H17.9503C18.1347 9.66526 18.2848 9.81835 18.2848 10.0066C18.2848 10.1948 18.1347 10.3479 17.9503 10.3479Z" fill="#005289" style="fill:#005289;fill:color(display-p3 0.0000 0.3216 0.5373);fill-opacity:1;"/>
<path d="M12.1495 23.2564C15.7208 23.2564 18.6159 20.3605 18.6159 16.7882C18.6159 13.2158 15.7208 10.3199 12.1495 10.3199C8.57821 10.3199 5.68311 13.2158 5.68311 16.7882C5.68311 20.3605 8.57821 23.2564 12.1495 23.2564Z" fill="#E9EAEC" style="fill:#E9EAEC;fill:color(display-p3 0.9137 0.9176 0.9255);fill-opacity:1;"/>
<path d="M5.68335 16.7883C5.68335 18.4665 6.32235 19.9952 7.37005 21.1448H16.9292C17.977 19.9952 18.6159 18.4665 18.6159 16.7883C18.6159 15.1102 17.977 13.5813 16.9292 12.4318H7.37001C6.3223 13.5813 5.68335 15.1102 5.68335 16.7883Z" fill="#FECF05" style="fill:#FECF05;fill:color(display-p3 0.9961 0.8118 0.0196);fill-opacity:1;"/>
<path opacity="0.1" d="M6.89033 16.7883C6.89033 13.4196 9.46494 10.6528 12.7532 10.3483C12.5545 10.3299 12.3532 10.32 12.1497 10.32C8.57844 10.32 5.68335 13.216 5.68335 16.7883C5.68335 20.3606 8.5784 23.2566 12.1497 23.2566C12.3532 23.2566 12.5545 23.2467 12.7532 23.2283C9.46494 22.9239 6.89033 20.1571 6.89033 16.7883Z" fill="black" style="fill:black;fill-opacity:1;"/>
<path d="M12.1496 20.0521C13.9517 20.0521 15.4125 18.5908 15.4125 16.7882C15.4125 14.9856 13.9517 13.5243 12.1496 13.5243C10.3475 13.5243 8.8866 14.9856 8.8866 16.7882C8.8866 18.5908 10.3475 20.0521 12.1496 20.0521Z" fill="#F9FAFB" style="fill:#F9FAFB;fill:color(display-p3 0.9765 0.9804 0.9843);fill-opacity:1;"/>
<path opacity="0.1" d="M9.96534 16.7883C9.96534 15.1696 11.1436 13.8269 12.6889 13.5697C12.5134 13.5404 12.3335 13.5245 12.1497 13.5245C10.3477 13.5245 8.88684 14.9858 8.88684 16.7883C8.88684 18.5909 10.3477 20.0521 12.1497 20.0521C12.3334 20.0521 12.5134 20.0362 12.6889 20.007C11.1436 19.7498 9.96534 18.407 9.96534 16.7883Z" fill="black" style="fill:black;fill-opacity:1;"/>
<path d="M12.1456 14.4674C11.5769 14.4674 11.0875 14.8915 11.0072 15.4538C11.0033 15.4807 11.0037 15.5528 11.0037 15.5629V15.6548C11.0037 16.289 11.5196 16.8051 12.1537 16.8051C12.3082 16.8051 12.4564 16.7729 12.5925 16.716V16.9584C12.5925 17.2314 12.3609 17.3558 12.1456 17.3558C11.8819 17.3558 11.8107 17.2605 11.7873 17.2293C11.671 17.0738 11.4507 17.042 11.2952 17.1583C11.1397 17.2746 11.1079 17.4949 11.2242 17.6504C11.3635 17.8367 11.6365 18.0589 12.1456 18.0589C12.7905 18.0589 13.2956 17.5755 13.2956 16.9584V15.6177C13.2957 14.9835 12.7798 14.4674 12.1456 14.4674ZM12.5926 15.7377C12.5536 15.9465 12.3684 16.1019 12.1537 16.1019C11.9073 16.1019 11.7068 15.9013 11.7068 15.6548C11.7068 15.6548 11.7062 15.548 11.7057 15.5406C11.7423 15.3288 11.929 15.1705 12.1457 15.1705C12.3921 15.1705 12.5926 15.3712 12.5926 15.6177V15.7377Z" fill="#005289" style="fill:#005289;fill:color(display-p3 0.0000 0.3216 0.5373);fill-opacity:1;"/>
<path d="M12.8888 18.2748H11.4105C11.2164 18.2748 11.059 18.4322 11.059 18.6263C11.059 18.8205 11.2164 18.9779 11.4105 18.9779H12.8888C13.0829 18.9779 13.2403 18.8205 13.2403 18.6263C13.2403 18.4322 13.083 18.2748 12.8888 18.2748Z" fill="#005289" style="fill:#005289;fill:color(display-p3 0.0000 0.3216 0.5373);fill-opacity:1;"/>
</g>
<defs>
<clipPath id="clip0_4130_941">
<rect width="24" height="24" fill="white" style="fill:white;fill-opacity:1;" transform="translate(0 0.000366211)"/>
</clipPath>
</defs>
</svg>
