<svg width="24" height="24" viewBox="0 0 24 24" fill="none" xmlns="http://www.w3.org/2000/svg">
<g clip-path="url(#clip0_4130_749)">
<path d="M5.44737 17.3934C5.44737 16.448 5.51356 15.5128 5.64266 14.5928C5.68011 14.3258 5.96356 14.1686 6.21078 14.2761C6.2607 14.2978 6.31072 14.3194 6.36097 14.3405C6.94925 14.5894 7.54601 14.8098 8.15023 15.0018C8.34856 15.0648 8.46649 15.2667 8.42688 15.4709C8.28096 16.2238 8.20615 16.9963 8.20615 17.7802C8.20615 19.8635 8.73377 21.8654 9.72462 23.6345C9.78438 23.7412 9.88999 23.8155 10.0107 23.8356C10.018 23.8368 10.0253 23.8381 10.0326 23.8392C10.3693 23.8947 10.6211 23.5327 10.4542 23.2352C9.54804 21.6206 9.03063 19.7598 9.03063 17.7803C9.03063 17.09 9.09391 16.4144 9.21434 15.7585C9.25681 15.5274 9.48209 15.3779 9.71098 15.4312C11.2443 15.7882 12.8193 15.9681 14.4217 15.9681C17.2171 15.9681 19.929 15.4205 22.4824 14.3406C22.891 14.1678 23.2923 13.9818 23.6867 13.7841C23.8102 13.7222 23.894 13.6017 23.9107 13.4644C23.9501 13.1398 23.6122 12.9039 23.3199 13.0506C20.5918 14.419 17.5627 15.1437 14.4217 15.1437C12.8966 15.1437 11.3978 14.9727 9.94699 14.6405C9.70826 14.5859 9.57157 14.3346 9.65224 14.1034C11.1765 9.7372 15.3354 6.59611 20.2148 6.59611C20.9952 6.59611 21.757 6.67702 22.4927 6.83011C22.6463 6.86208 22.7695 6.70069 22.6983 6.56086C22.6249 6.41653 22.5486 6.27384 22.4694 6.13294C22.4094 6.02606 22.3035 5.95191 22.1826 5.93203C21.5382 5.82624 20.8808 5.77172 20.2148 5.77172C17.0072 5.77172 13.9916 7.0208 11.7235 9.28893C10.3954 10.617 9.41707 12.2015 8.83395 13.9306C8.76199 14.144 8.5339 14.2625 8.31954 14.1936C7.59246 13.9603 6.88029 13.6851 6.18603 13.369C6.00758 13.2877 5.91167 13.092 5.95559 12.901C6.78181 9.30609 8.59859 6.00619 11.2712 3.33352C12.3471 2.25765 13.525 1.32114 14.7825 0.531246C14.884 0.46745 14.853 0.312153 14.7348 0.291997L14.0273 0.171341C13.9247 0.153856 13.8191 0.176075 13.733 0.234434C12.6466 0.970042 11.6289 1.8099 10.6882 2.75059C8.78651 4.65225 7.2934 6.86681 6.25044 9.33281C5.83733 10.3095 5.50241 11.3095 5.24595 12.3284C5.18023 12.5898 4.88192 12.7176 4.64736 12.5848C4.31666 12.3977 3.99088 12.2008 3.67053 11.9941C3.52475 11.9001 3.45205 11.7259 3.4911 11.5569C3.69547 10.673 3.80094 9.75956 3.80094 8.82989C3.80094 7.33894 3.53075 5.88956 3.01405 4.53736C2.95335 4.3785 2.74049 4.34977 2.63802 4.48547L2.41865 4.77582C2.33591 4.88532 2.31219 5.02894 2.35738 5.15855C2.75835 6.309 2.97655 7.54439 2.97655 8.82984C2.97655 9.45656 2.92457 10.0714 2.82486 10.6702C2.7741 10.9752 2.41635 11.1165 2.17307 10.9257C1.76268 10.6037 1.10545 10.0065 0.691915 9.62409C0.52279 9.46771 0.246744 9.55823 0.204603 9.78463C0.189838 9.86423 0.175822 9.94401 0.16251 10.0241C0.140104 10.1598 0.18501 10.2984 0.285416 10.3924C0.902196 10.9694 1.54944 11.5056 2.22543 11.9993C2.37027 12.1051 2.42896 12.2936 2.37051 12.4631C1.98374 13.586 1.4226 14.6283 0.72004 15.5582C0.637774 15.6671 0.617431 15.8104 0.662149 15.9394C0.710524 16.0789 0.761337 16.2171 0.81468 16.3542C0.863196 16.4789 1.02895 16.505 1.11351 16.4013C1.92276 15.4087 2.56072 14.3058 3.01129 13.1289C3.10339 12.8883 3.39008 12.7913 3.60969 12.9259C3.96439 13.1434 4.3258 13.3502 4.69377 13.5461C4.84766 13.628 4.93184 13.8 4.90325 13.972C4.71678 15.0947 4.62275 16.2369 4.62275 17.3935C4.62275 18.8401 4.76961 20.2643 5.06084 21.6558C5.08231 21.7584 5.14245 21.8493 5.22894 21.9085C5.37205 22.0065 5.51741 22.1014 5.66487 22.1932C5.82148 22.2907 6.01681 22.1493 5.97472 21.9697C5.62714 20.4872 5.44737 18.9542 5.44737 17.3934Z" fill="url(#paint0_linear_4130_749)" style=""/>
<path d="M6.08645 13.3233C6.85089 13.6765 7.63735 13.98 8.44177 14.2325C8.58877 14.2786 8.7458 14.199 8.79348 14.0525C9.37121 12.2759 10.3642 10.6481 11.7234 9.28889C13.9915 7.02075 17.0071 5.77168 20.2147 5.77168C20.7961 5.77168 21.371 5.81326 21.9364 5.89421C22.1104 5.9191 22.2322 5.72691 22.1381 5.5786C20.5517 3.07932 18.067 1.20653 15.1378 0.415047C15.0631 0.394844 14.983 0.406703 14.9171 0.447391C13.609 1.25458 12.3854 2.21931 11.2711 3.33353C8.5718 6.03286 6.74551 9.37204 5.93106 13.0086C5.90237 13.1367 5.96729 13.2682 6.08645 13.3233Z" fill="url(#paint1_radial_4130_749)" style=""/>
<path d="M9.60372 14.2453C9.55132 14.4023 9.6461 14.5698 9.80716 14.6079C11.3015 14.9614 12.8475 15.1436 14.4216 15.1436C17.6214 15.1436 20.705 14.3915 23.4725 12.973C23.7921 12.8092 23.9953 12.4836 23.9993 12.1245C23.9998 12.0832 24 12.0418 24 12.0003C24 10.2529 23.6258 8.59313 22.9542 7.09566C22.9022 6.97974 22.7969 6.89701 22.673 6.86912C21.8818 6.69076 21.0592 6.59607 20.2148 6.59607C15.2827 6.59612 11.0866 9.8055 9.60372 14.2453Z" fill="url(#paint2_radial_4130_749)" style=""/>
<path d="M4.79693 12.6685C4.95912 12.7584 5.16237 12.6697 5.20615 12.4895C5.46734 11.4148 5.81562 10.3608 6.25048 9.33269C7.29349 6.8667 8.78655 4.65219 10.6883 2.75047C11.573 1.86571 12.526 1.07019 13.54 0.366647C13.6547 0.287053 13.6112 0.1071 13.4727 0.0901317C12.9901 0.0310224 12.4986 0.000366211 12 0.000366211C8.41211 0.000366211 5.19242 1.57541 2.99342 4.07131C2.92334 4.15086 2.90614 4.26341 2.94552 4.3618C3.50689 5.76373 3.80098 7.27413 3.80098 8.82972C3.80098 9.78846 3.68886 10.7298 3.47173 11.6394C3.44412 11.7552 3.4902 11.8766 3.5899 11.9416C3.98426 12.1988 4.38687 12.4411 4.79693 12.6685Z" fill="url(#paint3_radial_4130_749)" style=""/>
<path d="M12 24.0003C17.8643 24.0003 22.7453 19.7934 23.7917 14.233C23.8342 14.0073 23.6014 13.8279 23.3945 13.9277C23.0945 14.0724 22.7905 14.2102 22.4823 14.3405C19.9291 15.4204 17.217 15.968 14.4216 15.968C12.7737 15.968 11.1548 15.7777 9.58025 15.4002C9.42575 15.3632 9.27148 15.4636 9.24083 15.6195C9.10325 16.3188 9.03064 17.0412 9.03064 17.7803C9.03064 19.8156 9.57767 21.7254 10.5317 23.3712C10.7458 23.7405 11.1337 23.9763 11.5604 23.9922C11.7063 23.9975 11.8528 24.0003 12 24.0003Z" fill="url(#paint4_radial_4130_749)" style=""/>
<path d="M0.332531 10.4362C0.246046 10.3557 0.104859 10.4081 0.0904217 10.5252C0.0309843 11.0086 0 11.5009 0 12.0004C0 13.1868 0.172828 14.3327 0.493733 15.4151C0.53278 15.5468 0.706592 15.5775 0.788295 15.4671C1.47764 14.5352 2.02617 13.4931 2.4014 12.3724C2.44078 12.2547 2.4 12.1257 2.29954 12.053C1.6139 11.5569 0.957654 11.0174 0.332531 10.4362Z" fill="url(#paint5_radial_4130_749)" style=""/>
<path d="M8.20626 17.7802C8.20626 16.9569 8.28876 16.1462 8.44949 15.3575C8.47823 15.2165 8.39376 15.078 8.25637 15.0351C7.61587 14.8353 6.98367 14.6038 6.36098 14.3404L6.05728 14.2119C5.88637 14.1396 5.69325 14.2482 5.66592 14.4318C5.5215 15.4037 5.44739 16.3928 5.44739 17.3934C5.44739 19.081 5.65757 20.7361 6.06304 22.33C6.08217 22.405 6.13143 22.4693 6.19912 22.5068C7.18893 23.0544 8.26424 23.4663 9.40011 23.7173C9.56418 23.7535 9.69397 23.5817 9.61475 23.4336C8.69493 21.7145 8.20626 19.785 8.20626 17.7802Z" fill="url(#paint6_radial_4130_749)" style=""/>
<path d="M4.62293 17.3934C4.62293 16.2065 4.72198 15.0347 4.91829 13.8837C4.93882 13.7633 4.87995 13.6442 4.77199 13.5873C4.33052 13.3547 3.89848 13.1064 3.47609 12.8431C3.32492 12.7488 3.12659 12.819 3.06504 12.9861C2.64453 14.1283 2.04875 15.2028 1.29209 16.177C1.06733 16.4663 1.01783 16.857 1.17641 17.1874C2.00675 18.9168 3.23932 20.4165 4.75301 21.5651C4.87202 21.6555 5.03909 21.5525 5.01026 21.406C4.75277 20.0939 4.62293 18.7535 4.62293 17.3934Z" fill="url(#paint7_radial_4130_749)" style=""/>
<path d="M2.97661 8.82975C2.97661 7.57303 2.76811 6.36417 2.38406 5.23571C2.34408 5.11814 2.18653 5.09513 2.11547 5.19699C1.36683 6.26995 0.746442 7.63992 0.380865 8.97604C0.330193 9.16125 0.388037 9.35906 0.529833 9.48857C0.940832 9.86395 1.81299 10.6506 2.34108 11.056C2.50772 11.1839 2.74908 11.0885 2.78756 10.882C2.91164 10.2165 2.97661 9.53062 2.97661 8.82975Z" fill="url(#paint8_radial_4130_749)" style=""/>
</g>
<defs>
<linearGradient id="paint0_linear_4130_749" x1="0.156887" y1="12.0055" x2="23.9133" y2="12.0055" gradientUnits="userSpaceOnUse">
<stop stop-color="#654E48" style="stop-color:#654E48;stop-color:color(display-p3 0.3961 0.3059 0.2824);stop-opacity:1;"/>
<stop offset="0.445" stop-color="#5F4843" style="stop-color:#5F4843;stop-color:color(display-p3 0.3725 0.2824 0.2627);stop-opacity:1;"/>
<stop offset="1" stop-color="#503837" style="stop-color:#503837;stop-color:color(display-p3 0.3137 0.2196 0.2157);stop-opacity:1;"/>
</linearGradient>
<radialGradient id="paint1_radial_4130_749" cx="0" cy="0" r="1" gradientUnits="userSpaceOnUse" gradientTransform="translate(5.29727 5.69111) scale(18.2288 18.2287)">
<stop stop-color="#FF931E" style="stop-color:#FF931E;stop-color:color(display-p3 1.0000 0.5765 0.1176);stop-opacity:1;"/>
<stop offset="0.325" stop-color="#FF901C" style="stop-color:#FF901C;stop-color:color(display-p3 1.0000 0.5647 0.1098);stop-opacity:1;"/>
<stop offset="0.567" stop-color="#FF8717" style="stop-color:#FF8717;stop-color:color(display-p3 1.0000 0.5294 0.0902);stop-opacity:1;"/>
<stop offset="0.781" stop-color="#FF770E" style="stop-color:#FF770E;stop-color:color(display-p3 1.0000 0.4667 0.0549);stop-opacity:1;"/>
<stop offset="0.978" stop-color="#FF6002" style="stop-color:#FF6002;stop-color:color(display-p3 1.0000 0.3765 0.0078);stop-opacity:1;"/>
<stop offset="1" stop-color="#FF5D00" style="stop-color:#FF5D00;stop-color:color(display-p3 1.0000 0.3647 0.0000);stop-opacity:1;"/>
</radialGradient>
<radialGradient id="paint2_radial_4130_749" cx="0" cy="0" r="1" gradientUnits="userSpaceOnUse" gradientTransform="translate(5.29728 5.69111) scale(18.2287 18.2288)">
<stop stop-color="#FF931E" style="stop-color:#FF931E;stop-color:color(display-p3 1.0000 0.5765 0.1176);stop-opacity:1;"/>
<stop offset="0.325" stop-color="#FF901C" style="stop-color:#FF901C;stop-color:color(display-p3 1.0000 0.5647 0.1098);stop-opacity:1;"/>
<stop offset="0.567" stop-color="#FF8717" style="stop-color:#FF8717;stop-color:color(display-p3 1.0000 0.5294 0.0902);stop-opacity:1;"/>
<stop offset="0.781" stop-color="#FF770E" style="stop-color:#FF770E;stop-color:color(display-p3 1.0000 0.4667 0.0549);stop-opacity:1;"/>
<stop offset="0.978" stop-color="#FF6002" style="stop-color:#FF6002;stop-color:color(display-p3 1.0000 0.3765 0.0078);stop-opacity:1;"/>
<stop offset="1" stop-color="#FF5D00" style="stop-color:#FF5D00;stop-color:color(display-p3 1.0000 0.3647 0.0000);stop-opacity:1;"/>
</radialGradient>
<radialGradient id="paint3_radial_4130_749" cx="0" cy="0" r="1" gradientUnits="userSpaceOnUse" gradientTransform="translate(5.29733 5.69108) scale(18.2288 18.2288)">
<stop stop-color="#FF931E" style="stop-color:#FF931E;stop-color:color(display-p3 1.0000 0.5765 0.1176);stop-opacity:1;"/>
<stop offset="0.325" stop-color="#FF901C" style="stop-color:#FF901C;stop-color:color(display-p3 1.0000 0.5647 0.1098);stop-opacity:1;"/>
<stop offset="0.567" stop-color="#FF8717" style="stop-color:#FF8717;stop-color:color(display-p3 1.0000 0.5294 0.0902);stop-opacity:1;"/>
<stop offset="0.781" stop-color="#FF770E" style="stop-color:#FF770E;stop-color:color(display-p3 1.0000 0.4667 0.0549);stop-opacity:1;"/>
<stop offset="0.978" stop-color="#FF6002" style="stop-color:#FF6002;stop-color:color(display-p3 1.0000 0.3765 0.0078);stop-opacity:1;"/>
<stop offset="1" stop-color="#FF5D00" style="stop-color:#FF5D00;stop-color:color(display-p3 1.0000 0.3647 0.0000);stop-opacity:1;"/>
</radialGradient>
<radialGradient id="paint4_radial_4130_749" cx="0" cy="0" r="1" gradientUnits="userSpaceOnUse" gradientTransform="translate(5.29729 5.69109) scale(18.2287)">
<stop stop-color="#FF931E" style="stop-color:#FF931E;stop-color:color(display-p3 1.0000 0.5765 0.1176);stop-opacity:1;"/>
<stop offset="0.325" stop-color="#FF901C" style="stop-color:#FF901C;stop-color:color(display-p3 1.0000 0.5647 0.1098);stop-opacity:1;"/>
<stop offset="0.567" stop-color="#FF8717" style="stop-color:#FF8717;stop-color:color(display-p3 1.0000 0.5294 0.0902);stop-opacity:1;"/>
<stop offset="0.781" stop-color="#FF770E" style="stop-color:#FF770E;stop-color:color(display-p3 1.0000 0.4667 0.0549);stop-opacity:1;"/>
<stop offset="0.978" stop-color="#FF6002" style="stop-color:#FF6002;stop-color:color(display-p3 1.0000 0.3765 0.0078);stop-opacity:1;"/>
<stop offset="1" stop-color="#FF5D00" style="stop-color:#FF5D00;stop-color:color(display-p3 1.0000 0.3647 0.0000);stop-opacity:1;"/>
</radialGradient>
<radialGradient id="paint5_radial_4130_749" cx="0" cy="0" r="1" gradientUnits="userSpaceOnUse" gradientTransform="translate(5.29729 5.69111) scale(18.2287 18.2288)">
<stop stop-color="#FF931E" style="stop-color:#FF931E;stop-color:color(display-p3 1.0000 0.5765 0.1176);stop-opacity:1;"/>
<stop offset="0.325" stop-color="#FF901C" style="stop-color:#FF901C;stop-color:color(display-p3 1.0000 0.5647 0.1098);stop-opacity:1;"/>
<stop offset="0.567" stop-color="#FF8717" style="stop-color:#FF8717;stop-color:color(display-p3 1.0000 0.5294 0.0902);stop-opacity:1;"/>
<stop offset="0.781" stop-color="#FF770E" style="stop-color:#FF770E;stop-color:color(display-p3 1.0000 0.4667 0.0549);stop-opacity:1;"/>
<stop offset="0.978" stop-color="#FF6002" style="stop-color:#FF6002;stop-color:color(display-p3 1.0000 0.3765 0.0078);stop-opacity:1;"/>
<stop offset="1" stop-color="#FF5D00" style="stop-color:#FF5D00;stop-color:color(display-p3 1.0000 0.3647 0.0000);stop-opacity:1;"/>
</radialGradient>
<radialGradient id="paint6_radial_4130_749" cx="0" cy="0" r="1" gradientUnits="userSpaceOnUse" gradientTransform="translate(5.29734 5.69109) scale(18.2288)">
<stop stop-color="#FF931E" style="stop-color:#FF931E;stop-color:color(display-p3 1.0000 0.5765 0.1176);stop-opacity:1;"/>
<stop offset="0.325" stop-color="#FF901C" style="stop-color:#FF901C;stop-color:color(display-p3 1.0000 0.5647 0.1098);stop-opacity:1;"/>
<stop offset="0.567" stop-color="#FF8717" style="stop-color:#FF8717;stop-color:color(display-p3 1.0000 0.5294 0.0902);stop-opacity:1;"/>
<stop offset="0.781" stop-color="#FF770E" style="stop-color:#FF770E;stop-color:color(display-p3 1.0000 0.4667 0.0549);stop-opacity:1;"/>
<stop offset="0.978" stop-color="#FF6002" style="stop-color:#FF6002;stop-color:color(display-p3 1.0000 0.3765 0.0078);stop-opacity:1;"/>
<stop offset="1" stop-color="#FF5D00" style="stop-color:#FF5D00;stop-color:color(display-p3 1.0000 0.3647 0.0000);stop-opacity:1;"/>
</radialGradient>
<radialGradient id="paint7_radial_4130_749" cx="0" cy="0" r="1" gradientUnits="userSpaceOnUse" gradientTransform="translate(5.29732 5.6911) scale(18.2287 18.2287)">
<stop stop-color="#FF931E" style="stop-color:#FF931E;stop-color:color(display-p3 1.0000 0.5765 0.1176);stop-opacity:1;"/>
<stop offset="0.325" stop-color="#FF901C" style="stop-color:#FF901C;stop-color:color(display-p3 1.0000 0.5647 0.1098);stop-opacity:1;"/>
<stop offset="0.567" stop-color="#FF8717" style="stop-color:#FF8717;stop-color:color(display-p3 1.0000 0.5294 0.0902);stop-opacity:1;"/>
<stop offset="0.781" stop-color="#FF770E" style="stop-color:#FF770E;stop-color:color(display-p3 1.0000 0.4667 0.0549);stop-opacity:1;"/>
<stop offset="0.978" stop-color="#FF6002" style="stop-color:#FF6002;stop-color:color(display-p3 1.0000 0.3765 0.0078);stop-opacity:1;"/>
<stop offset="1" stop-color="#FF5D00" style="stop-color:#FF5D00;stop-color:color(display-p3 1.0000 0.3647 0.0000);stop-opacity:1;"/>
</radialGradient>
<radialGradient id="paint8_radial_4130_749" cx="0" cy="0" r="1" gradientUnits="userSpaceOnUse" gradientTransform="translate(5.29734 5.6911) scale(18.2287 18.2288)">
<stop stop-color="#FF931E" style="stop-color:#FF931E;stop-color:color(display-p3 1.0000 0.5765 0.1176);stop-opacity:1;"/>
<stop offset="0.325" stop-color="#FF901C" style="stop-color:#FF901C;stop-color:color(display-p3 1.0000 0.5647 0.1098);stop-opacity:1;"/>
<stop offset="0.567" stop-color="#FF8717" style="stop-color:#FF8717;stop-color:color(display-p3 1.0000 0.5294 0.0902);stop-opacity:1;"/>
<stop offset="0.781" stop-color="#FF770E" style="stop-color:#FF770E;stop-color:color(display-p3 1.0000 0.4667 0.0549);stop-opacity:1;"/>
<stop offset="0.978" stop-color="#FF6002" style="stop-color:#FF6002;stop-color:color(display-p3 1.0000 0.3765 0.0078);stop-opacity:1;"/>
<stop offset="1" stop-color="#FF5D00" style="stop-color:#FF5D00;stop-color:color(display-p3 1.0000 0.3647 0.0000);stop-opacity:1;"/>
</radialGradient>
<clipPath id="clip0_4130_749">
<rect width="24" height="24" fill="white" style="fill:white;fill-opacity:1;" transform="translate(0 0.000335693)"/>
</clipPath>
</defs>
</svg>
