<svg width="24" height="24" viewBox="0 0 24 24" fill="none" xmlns="http://www.w3.org/2000/svg">
<g clip-path="url(#clip0_4130_1134)">
<path d="M12.3527 18.6478L5.35252 11.6477C5.15729 11.4525 4.84078 11.4525 4.64549 11.6477L0.855429 15.4377C-0.284783 16.5774 -0.285205 18.4257 0.854538 19.5659C0.854819 19.5662 0.855147 19.5665 0.855429 19.5668L4.43352 23.1449C5.57322 24.2851 7.42149 24.2855 8.5617 23.1458C8.56203 23.1455 8.56231 23.1452 8.56259 23.1449L12.3517 19.3558C12.5475 19.1611 12.5483 18.8445 12.3535 18.6487C12.3533 18.6484 12.3529 18.6481 12.3527 18.6478Z" fill="#455A64" style="fill:#455A64;fill:color(display-p3 0.2706 0.3529 0.3922);fill-opacity:1;"/>
<path d="M5.49957 21.0009C5.36687 21.0011 5.23951 20.9486 5.14557 20.8549L3.14551 18.8548C2.95364 18.6562 2.95913 18.3396 3.15779 18.1478C3.35158 17.9606 3.65875 17.9606 3.85254 18.1478L5.8526 20.1478C6.04756 20.3434 6.04709 20.66 5.85147 20.855C5.758 20.9481 5.63153 21.0006 5.49957 21.0009Z" fill="#CFD8DC" style="fill:#CFD8DC;fill:color(display-p3 0.8118 0.8471 0.8627);fill-opacity:1;"/>
<path d="M7.49956 20.0008C7.36686 20.0011 7.2395 19.9486 7.14556 19.8548L4.14549 16.8547C3.95363 16.6561 3.95916 16.3396 4.15777 16.1477C4.35156 15.9605 4.65874 15.9605 4.85252 16.1477L7.85259 19.1478C8.04754 19.3433 8.04708 19.6599 7.85146 19.8549C7.75804 19.9481 7.63152 20.0005 7.49956 20.0008Z" fill="#CFD8DC" style="fill:#CFD8DC;fill:color(display-p3 0.8118 0.8471 0.8627);fill-opacity:1;"/>
<path d="M22.4999 13.0007V12.5007C22.6245 12.5019 22.745 12.4566 22.8379 12.3737C23.5888 11.6066 24.0065 10.574 24 9.50059C24 7.68756 20.8329 0.000366211 14.4997 0.000366211C8.2176 0.000366211 3.99951 8.69455 3.99951 10.5006C3.99951 13.0426 9.99964 19.5008 12.9997 19.5008C15.9428 19.5008 22.9999 17.7737 22.9999 13.5007C23 13.2246 22.7761 13.0007 22.4999 13.0007Z" fill="#F44336" style="fill:#F44336;fill:color(display-p3 0.9569 0.2627 0.2118);fill-opacity:1;"/>
<path d="M17.4998 15.0008C17.3671 15.001 17.2397 14.9485 17.1458 14.8548C16.1286 13.8139 15.8414 12.2616 16.4188 10.9257C16.8035 9.81583 17.8264 9.05297 18.9998 9.00061C21.3999 9.00061 22.9999 11.7087 22.9999 13.5007C22.9999 13.7769 22.776 14.0007 22.4999 14.0007C22.2237 14.0007 21.9998 13.7769 21.9998 13.5007C21.9998 12.1237 20.7118 10.0006 18.9998 10.0006C18.2358 10.0659 17.5842 10.58 17.3428 11.3077C16.9255 12.2704 17.1265 13.3894 17.8528 14.1467C18.0483 14.3417 18.0487 14.6583 17.8537 14.8538C17.7599 14.9479 17.6326 15.0007 17.4998 15.0008Z" fill="#C62828" style="fill:#C62828;fill:color(display-p3 0.7765 0.1569 0.1569);fill-opacity:1;"/>
<path d="M16.4998 14.0007C14.2998 14.0007 9.99963 9.03659 9.99963 7.50055C10.199 5.80899 10.99 4.24234 12.2327 3.07747C12.4663 2.93 12.7752 2.99985 12.9227 3.23348C13.0702 3.46711 13.0003 3.77602 12.7667 3.92349C11.8173 4.90114 11.1991 6.15245 10.9996 7.50055C10.9996 8.38356 14.7737 13.0007 16.4997 13.0007C16.7759 13.0007 16.9998 13.2245 16.9998 13.5007C16.9998 13.7769 16.7759 14.0007 16.4998 14.0007Z" fill="#C62828" style="fill:#C62828;fill:color(display-p3 0.7765 0.1569 0.1569);fill-opacity:1;"/>
<path d="M11.1067 5.94555C10.9422 5.9457 10.7881 5.86493 10.6947 5.72955L10.0877 4.84753C9.93897 4.61489 10.007 4.30569 10.2396 4.15691C10.4611 4.01534 10.7543 4.06934 10.9108 4.28052L11.5178 5.16254C11.6746 5.38979 11.6175 5.70124 11.3902 5.85808C11.3069 5.9156 11.208 5.94644 11.1067 5.94659V5.94555H11.1067Z" fill="#C62828" style="fill:#C62828;fill:color(display-p3 0.7765 0.1569 0.1569);fill-opacity:1;"/>
</g>
<defs>
<clipPath id="clip0_4130_1134">
<rect width="24" height="24" fill="white" style="fill:white;fill-opacity:1;" transform="translate(0 0.000366211)"/>
</clipPath>
</defs>
</svg>
