<svg width="24" height="24" viewBox="0 0 24 24" fill="none" xmlns="http://www.w3.org/2000/svg">
<g id="shuttlecock (2) 1">
<g id="Group">
<g id="Group_2">
<g id="Group_3">
<g id="Group_4">
<path id="Vector" d="M9.34285 20.6712L8.28685 21.7272C6.62742 23.3867 3.93256 23.3867 2.27314 21.7272C0.613707 20.0678 0.613707 17.373 2.27314 15.7135L3.32914 14.6575L9.34285 20.6712Z" fill="#E5E8F9" style="fill:#E5E8F9;fill:color(display-p3 0.8980 0.9098 0.9765);fill-opacity:1;"/>
</g>
</g>
<g id="Group_5">
<g id="Group_6">
<path id="Vector_2" d="M9.34282 20.6712L8.28682 21.7272C6.62396 23.3901 3.93596 23.3901 2.27653 21.7306L2.2731 21.7272C1.7451 21.1992 1.38853 20.5718 1.19653 19.9032C1.2411 19.9512 1.2891 20.0026 1.34053 20.0506C3.00339 21.7135 5.69139 21.7135 7.35082 20.0541L8.03653 19.3683L9.34282 20.6712Z" fill="#D6DBF2" style="fill:#D6DBF2;fill:color(display-p3 0.8392 0.8588 0.9490);fill-opacity:1;"/>
</g>
</g>
<g id="Group_7">
<g id="Group_8">
<path id="Vector_3" d="M2.89715 20.3181C2.85258 20.3181 2.81144 20.2975 2.78744 20.2564C2.23201 19.3546 2.20801 18.2198 2.7223 17.2941C2.75658 17.2324 2.83544 17.2084 2.89715 17.2461C2.95887 17.2804 2.98287 17.3592 2.94858 17.4209C2.47887 18.2644 2.49944 19.2998 3.00687 20.1226C3.04458 20.1844 3.02401 20.2632 2.96572 20.3009C2.94172 20.3112 2.92115 20.3181 2.89715 20.3181Z" fill="#F9FAFB" style="fill:#F9FAFB;fill:color(display-p3 0.9765 0.9804 0.9843);fill-opacity:1;"/>
</g>
</g>
<g id="Group_9">
<g id="Group_10">
<path id="Vector_4" d="M12.3154 3.6655L5.9588 14.4312L4.75537 13.2278L9.18851 2.1295C9.6548 0.963789 11.1599 0.655217 12.0479 1.54322C12.6102 2.1055 12.7199 2.97979 12.3154 3.6655Z" fill="#D6DBF2" style="fill:#D6DBF2;fill:color(display-p3 0.8392 0.8588 0.9490);fill-opacity:1;"/>
</g>
</g>
<g id="Group_11">
<g id="Group_12">
<path id="Vector_5" d="M5.95891 14.4312L4.75891 13.2278L5.59891 11.1192L7.05605 12.5729L5.95891 14.4312Z" fill="#C5CEEA" style="fill:#C5CEEA;fill:color(display-p3 0.7725 0.8078 0.9176);fill-opacity:1;"/>
</g>
</g>
<g id="Group_13">
<g id="Group_14">
<path id="Vector_6" d="M14.8046 6.55919L7.16229 15.6346L5.95886 14.4312L11.856 4.44033C12.4354 3.45633 13.7897 3.2849 14.5954 4.09405L14.6983 4.1969C15.3429 4.83805 15.3874 5.86319 14.8046 6.55919Z" fill="#E5E8F9" style="fill:#E5E8F9;fill:color(display-p3 0.8980 0.9098 0.9765);fill-opacity:1;"/>
</g>
</g>
<g id="Group_15">
<g id="Group_16">
<path id="Vector_7" d="M17.2114 9.39122L8.36566 16.8381L7.16223 15.6346L14.6091 6.78893C15.2674 6.00722 16.4571 5.95579 17.1805 6.67922L17.3211 6.81979C18.0479 7.54322 17.9965 8.7295 17.2114 9.39122Z" fill="#D6DBF2" style="fill:#D6DBF2;fill:color(display-p3 0.8392 0.8588 0.9490);fill-opacity:1;"/>
</g>
</g>
<g id="Group_17">
<g id="Group_18">
<path id="Vector_8" d="M10.2205 15.2747L8.36566 16.8381L7.16223 15.6347L8.51309 14.0301L8.72223 14.2392C9.16452 14.6815 9.67195 15.0278 10.2205 15.2747Z" fill="#C5CEEA" style="fill:#C5CEEA;fill:color(display-p3 0.7725 0.8078 0.9176);fill-opacity:1;"/>
</g>
</g>
<g id="Group_19">
<g id="Group_20">
<path id="Vector_9" d="M17.2937 9.3158C17.2663 9.34322 17.2388 9.36722 17.208 9.39122L9.87769 15.5009L17.2937 9.3158Z" fill="#A9DCEA" style="fill:#A9DCEA;fill:color(display-p3 0.6627 0.8627 0.9176);fill-opacity:1;"/>
</g>
</g>
<g id="Group_21">
<g id="Group_22">
<path id="Vector_10" d="M19.56 12.1409L9.56915 18.0381L8.36572 16.8346L17.4446 9.19236C18.1372 8.6095 19.1623 8.65065 19.8069 9.29522L19.9097 9.39808C20.7154 10.2106 20.544 11.5615 19.56 12.1409Z" fill="#E5E8F9" style="fill:#E5E8F9;fill:color(display-p3 0.8980 0.9098 0.9765);fill-opacity:1;"/>
</g>
</g>
<g id="Group_23">
<g id="Group_24">
<path id="Vector_11" d="M21.8708 14.8118L10.7691 19.2449L9.56567 18.0415L20.3348 11.6849C21.0205 11.2804 21.8948 11.3901 22.4571 11.9558C23.3451 12.8404 23.0365 14.3455 21.8708 14.8118Z" fill="#D6DBF2" style="fill:#D6DBF2;fill:color(display-p3 0.8392 0.8588 0.9490);fill-opacity:1;"/>
</g>
</g>
<g id="Group_25">
<g id="Group_26">
<path id="Vector_12" d="M22.9714 13.1832C22.9714 13.8621 22.5805 14.5272 21.8708 14.8118L10.7725 19.2449L9.56909 18.0415L14.0674 15.3878C14.0948 15.3809 14.1222 15.3707 14.1531 15.3569L22.1759 12.1581C22.2891 12.1135 22.3954 12.0552 22.4914 11.9935C22.4845 11.9798 22.4742 11.9695 22.4639 11.9592C22.8068 12.3021 22.9714 12.7444 22.9714 13.1832Z" fill="#C5CEEA" style="fill:#C5CEEA;fill:color(display-p3 0.7725 0.8078 0.9176);fill-opacity:1;"/>
</g>
</g>
<g id="Group_27">
<g id="Group_28">
<path id="Vector_13" d="M7.16229 15.6347L5.95886 14.4312L7.05601 12.5729L8.51315 14.0301L7.16229 15.6347Z" fill="#D6DBF2" style="fill:#D6DBF2;fill:color(display-p3 0.8392 0.8588 0.9490);fill-opacity:1;"/>
</g>
</g>
<g id="Group_29">
<g id="Group_30">
<path id="Vector_14" d="M14.064 15.3844L9.56573 18.0381L8.3623 16.8347L10.2172 15.2712C11.4172 15.8095 12.7989 15.8712 14.064 15.3844Z" fill="#D6DBF2" style="fill:#D6DBF2;fill:color(display-p3 0.8392 0.8588 0.9490);fill-opacity:1;"/>
</g>
</g>
<g id="Group_31">
<g id="Group_32">
<path id="Vector_15" d="M8.21824 6.92951C8.19767 6.92951 8.1771 6.92608 8.15996 6.9158C8.09824 6.88151 8.07424 6.80608 8.1051 6.74094L9.53482 4.01523C9.5691 3.95351 9.64453 3.92608 9.70967 3.96037C9.77139 3.99466 9.79539 4.07008 9.76453 4.13523L8.33482 6.86094C8.31082 6.90551 8.26624 6.92951 8.21824 6.92951Z" fill="#F9FAFB" style="fill:#F9FAFB;fill:color(display-p3 0.9765 0.9804 0.9843);fill-opacity:1;"/>
</g>
</g>
<g id="Group_33">
<g id="Group_34">
<path id="Vector_16" d="M3.69629 14.2859L4.75315 13.229L10.7647 19.2405L9.70781 20.2974L3.69629 14.2859Z" fill="#666666" style="fill:#666666;fill:color(display-p3 0.4000 0.4000 0.4000);fill-opacity:1;"/>
</g>
</g>
<g id="Group_35">
<g id="Group_36">
<path id="Vector_17" d="M8.40344 18.9901L9.46047 17.9331L10.7672 19.2398L9.71018 20.2968L8.40344 18.9901Z" fill="#595857" style="fill:#595857;fill:color(display-p3 0.3490 0.3451 0.3412);fill-opacity:1;"/>
</g>
</g>
<g id="Group_37">
<g id="Group_38">
<path id="Vector_18" d="M2.64233 15.344L3.6992 14.2871L9.71072 20.2986L8.65385 21.3555L2.64233 15.344Z" fill="#FF4848" style="fill:#FF4848;fill:color(display-p3 1.0000 0.2824 0.2824);fill-opacity:1;"/>
</g>
</g>
<g id="Group_39">
<g id="Group_40">
<path id="Vector_19" d="M7.34949 20.0483L8.40651 18.9913L9.71324 20.298L8.65622 21.355L7.34949 20.0483Z" fill="#F91C1C" style="fill:#F91C1C;fill:color(display-p3 0.9765 0.1098 0.1098);fill-opacity:1;"/>
</g>
</g>
</g>
</g>
</g>
</svg>
