<svg width="24" height="24" viewBox="0 0 24 24" fill="none" xmlns="http://www.w3.org/2000/svg">
<g id="baseball (2) 1">
<g id="_x33_8">
<g id="Group">
<g id="Group_2">
<g id="Group_3">
<path id="Vector" d="M19.1393 19.1488C17.3038 20.9843 14.9235 21.9712 12.5119 22.0873C12.5074 22.0829 12.5029 22.0873 12.4985 22.0829C12.3198 22.1007 12.1323 22.1007 11.9447 22.1007C9.37325 22.1004 6.79525 21.0957 4.84833 19.1488C-1.19882 13.1016 2.58622 2.8191 10.9488 1.94597C10.9488 1.94597 10.9533 1.9415 10.9577 1.94594C11.5964 1.88791 12.2261 1.88344 12.8603 1.93703C13.5569 1.99062 14.2491 2.12906 14.9235 2.33003C16.4687 2.7945 17.9201 3.63855 19.1393 4.85776C23.0759 8.79431 23.0916 15.1965 19.1393 19.1488Z" fill="#DEDFFB" style="fill:#DEDFFB;fill:color(display-p3 0.8706 0.8745 0.9843);fill-opacity:1;"/>
</g>
</g>
<g id="Group_4">
<g id="Group_5">
<path id="Vector_2" d="M11.9436 22.1006C4.75903 19.9286 2.32295 10.7313 7.75901 5.29526C9.73742 3.31685 12.3322 2.3299 14.9224 2.3299C15.5431 2.51301 16.1505 2.76308 16.7311 3.0757C17.5975 3.53123 18.4103 4.12965 19.1382 4.8576C25.5205 11.2399 20.9615 22.1006 11.9436 22.1006Z" fill="#E9E7FC" style="fill:#E9E7FC;fill:color(display-p3 0.9137 0.9059 0.9882);fill-opacity:1;"/>
</g>
</g>
<g id="Group_6">
<g id="Group_7">
<path id="Vector_3" d="M13.9666 21.9086C13.1047 21.4486 12.3008 20.859 11.5773 20.1356C5.85799 14.4162 8.87755 4.67614 16.731 3.07568C17.5974 3.53122 18.4102 4.12964 19.1381 4.85759C24.8907 10.6101 21.7828 20.36 13.9666 21.9086Z" fill="#F3F1FC" style="fill:#F3F1FC;fill:color(display-p3 0.9529 0.9451 0.9882);fill-opacity:1;"/>
</g>
</g>
<g id="Group_8">
<g id="Group_9">
<path id="Vector_4" d="M20.4037 14.7965C19.0976 17.1858 17.3005 18.5478 14.7927 17.177C12.2848 15.8061 11.3105 12.7579 12.6166 10.3685C13.9226 7.97919 17.0144 7.15353 19.5223 8.52438C22.0302 9.89523 21.7097 12.4071 20.4037 14.7965Z" fill="#F8F9FE" style="fill:#F8F9FE;fill:color(display-p3 0.9725 0.9765 0.9961);fill-opacity:1;"/>
</g>
</g>
<g id="Group_10">
<g id="Group_11">
<path id="Vector_5" d="M12.2662 22.0561C12.3421 22.0605 12.418 22.0739 12.4984 22.0829C12.2092 22.1118 11.6761 22.1011 11.3864 22.0873C11.521 22.0621 11.7572 22.0293 11.9 22.0293C11.967 21.864 12.0339 21.7077 12.1054 21.547C11.6856 21.5023 11.2613 21.48 10.8281 21.3326C11.2703 21.2209 11.7347 21.2299 12.1902 21.2388C12.2036 21.2433 12.226 21.2477 12.2483 21.2522C12.3108 21.1182 12.3689 20.9887 12.4359 20.8592C12.0071 20.7699 11.5829 20.7029 11.1541 20.5064C11.6008 20.4439 12.0652 20.4975 12.5162 20.5555C12.5341 20.5645 12.5564 20.5689 12.5743 20.5778C12.6949 20.3412 12.8199 20.1089 12.9494 19.8812C12.5654 19.7829 12.1724 19.7293 11.757 19.6355C12.1947 19.4837 12.6636 19.5149 13.1058 19.5998C13.2487 19.3586 13.396 19.1219 13.5479 18.8808C13.2811 18.8081 13.6048 18.7943 12.092 18.5324C12.5891 18.3336 13.2615 18.4004 13.7131 18.6262C13.865 18.3851 14.0213 18.1573 14.1865 17.9295C14.1731 17.9251 14.1686 17.9206 14.1597 17.9117C13.7756 17.6884 13.3648 17.5544 12.9182 17.3937C13.4057 17.2925 13.9639 17.4387 14.3652 17.6795C14.5393 17.4428 14.718 17.2016 14.9011 16.9739C14.2023 16.6229 14.5693 16.7829 13.6104 16.4245C14.0793 16.3307 14.5706 16.4558 14.9993 16.6701C15.0306 16.6925 15.0618 16.7148 15.0976 16.7326C15.2985 16.487 15.5084 16.2414 15.7183 16.0047C15.3566 15.7948 14.9546 15.6608 14.5304 15.5045C14.9993 15.4107 15.4861 15.5403 15.9193 15.7502C15.9237 15.7546 15.9327 15.7636 15.9416 15.7636C15.9616 15.7427 15.8079 15.9004 16.5936 15.0847C16.2498 14.9017 15.8836 14.7677 15.4906 14.6247C15.9461 14.5354 16.4195 14.6515 16.8348 14.8525C17.0626 14.6337 17.2948 14.4193 17.5315 14.2094C17.2323 13.9459 16.8929 13.7405 16.5311 13.5038C16.9911 13.5172 17.4064 13.7271 17.7637 14.0129C17.9915 13.812 18.2282 13.6199 18.4693 13.4323C18.2416 13.1331 17.9602 12.8696 17.6744 12.5838C18.0808 12.6776 18.4202 12.9366 18.7016 13.2448C18.9606 13.0483 19.2241 12.8562 19.492 12.6776C19.3 12.3337 19.0588 12.0301 18.8043 11.6951C19.1973 11.8469 19.5054 12.1551 19.7421 12.5079C19.8895 12.4052 20.0414 12.298 20.1977 12.2042C20.1932 12.1997 20.1932 12.1997 20.1932 12.1997C20.0726 11.7755 19.8627 11.3959 19.6528 10.9716C20.0414 11.2173 20.2959 11.6147 20.4656 12.0434C20.6175 11.9452 20.7737 11.8514 20.9301 11.7576C20.8675 11.3646 20.7425 10.9895 20.613 10.5831C20.9122 10.8466 21.0998 11.2128 21.207 11.6058C21.3543 11.5209 21.5017 11.4361 21.6491 11.3601C21.5866 10.9761 21.4615 10.6099 21.3365 10.2079C21.6312 10.467 21.8143 10.8287 21.926 11.2083C21.9662 11.186 22.0153 11.1636 22.06 11.1458C22.0734 11.2753 22.0823 11.4003 22.0868 11.5209C22.0555 11.5343 22.0287 11.5522 21.9974 11.5656C22.0376 12.0077 21.993 12.4632 21.7697 12.8384C21.7608 12.4543 21.7518 12.0881 21.7072 11.7308C21.5598 11.8067 21.4213 11.8827 21.2784 11.9631C21.3142 12.4007 21.2695 12.8473 21.0507 13.218C21.0373 12.8384 21.0328 12.4856 20.9881 12.1372C20.8452 12.2176 20.7023 12.3069 20.5594 12.3962C20.6264 12.7669 20.6308 13.1555 20.4835 13.5083C20.4299 13.1778 20.3674 12.8652 20.2959 12.5615C20.1619 12.6419 20.0369 12.7312 19.9074 12.816C20.0771 13.2001 20.1753 13.6199 20.0949 14.0308C19.952 13.6557 19.8225 13.3118 19.6528 12.9902C19.4027 13.1599 19.1571 13.343 18.9115 13.5261C19.1392 13.8879 19.2956 14.2943 19.2688 14.723C19.0767 14.3613 18.8936 14.0263 18.6748 13.7182C18.447 13.8923 18.2327 14.071 18.0138 14.2541C18.2729 14.5488 18.4783 14.8882 18.5319 15.2723C18.2818 14.9776 18.054 14.6962 17.795 14.4461C17.5717 14.6426 17.3529 14.8436 17.1385 15.049C17.4422 15.2634 17.7012 15.5492 17.8396 15.8931C17.527 15.6608 17.2367 15.4331 16.9241 15.2545C16.7906 15.388 16.8029 15.3428 16.2364 15.969C16.5133 16.1834 16.75 16.4468 16.8795 16.7729C16.5937 16.5585 16.3212 16.3486 16.0399 16.1744C15.8121 16.429 15.5933 16.6835 15.3789 16.9426C15.629 17.148 15.8434 17.3892 15.9595 17.6929C15.7049 17.5008 15.4637 17.3132 15.2047 17.1525C15.0216 17.3892 14.8341 17.6303 14.6554 17.8804C14.9189 18.0903 15.1467 18.3449 15.2717 18.6664C15.0038 18.461 14.7537 18.2734 14.4947 18.1037C14.3294 18.3315 14.1731 18.5592 14.0213 18.7915C14.2624 18.9433 14.4768 19.1309 14.6286 19.3721C14.3696 19.2381 14.124 19.1175 13.8783 19.0148C13.731 19.2425 13.5925 19.4703 13.4541 19.707C13.789 19.8276 14.1061 20.0017 14.3518 20.2563C13.9855 20.167 13.6461 20.0598 13.3023 19.966C13.1683 20.2072 13.0388 20.4439 12.9137 20.685C13.2129 20.7878 13.4987 20.9217 13.7488 21.1272C13.4094 21.0914 13.0968 21.0111 12.7842 20.9396C12.7217 21.0646 12.6636 21.1941 12.6011 21.3281C12.9048 21.3996 13.204 21.5023 13.4764 21.6765C13.1281 21.6765 12.8021 21.6274 12.476 21.5871C12.4046 21.739 12.3331 21.8997 12.2662 22.0561Z" fill="#E11226" style="fill:#E11226;fill:color(display-p3 0.8824 0.0706 0.1490);fill-opacity:1;"/>
</g>
<g id="Group_12">
<path id="Vector_6" d="M7.74221 8.02857C7.50553 8.23849 7.25991 8.44834 7.01429 8.64932C7.03214 8.68505 7.05447 8.71632 7.07679 8.74758C7.29118 9.17632 7.41176 9.66309 7.31797 10.132C6.97003 9.20102 7.11499 9.52751 6.77311 8.84585C6.5409 9.02447 6.30419 9.20759 6.06751 9.38174C6.07643 9.39959 6.09431 9.41747 6.10769 9.4398C6.32207 9.86854 6.44711 10.3509 6.34884 10.8243C6.18808 10.3777 6.0541 9.9668 5.83525 9.58718C5.82634 9.57827 5.82187 9.56486 5.81739 9.56039C5.58516 9.72115 5.35742 9.87748 5.12071 10.0338C5.3426 10.4774 5.41611 11.1508 5.2145 11.6549C4.96642 10.2215 4.93381 10.4474 4.86617 10.199C4.625 10.3508 4.38832 10.4982 4.1427 10.6367C4.23199 11.0833 4.26326 11.5522 4.1114 11.9899C4.01764 11.5745 3.96405 11.1815 3.86578 10.7975C3.63357 10.9225 3.40133 11.0476 3.17357 11.1681C3.17804 11.1904 3.18251 11.2128 3.19142 11.2306C3.24948 11.6817 3.29863 12.1417 3.24057 12.5927C3.04406 12.164 2.97706 11.7398 2.88774 11.311C2.75824 11.378 2.62874 11.4361 2.49476 11.4986C2.49921 11.5209 2.49921 11.5388 2.50815 11.5567C2.51706 12.0122 2.52156 12.4722 2.41435 12.9188C2.26697 12.4856 2.24464 12.0613 2.2 11.6415C2.09729 11.6906 1.99458 11.7308 1.89185 11.771C1.89632 11.6415 1.90076 11.512 1.91417 11.3825C1.99458 11.3468 2.07943 11.3066 2.15979 11.2708C2.11961 10.9448 2.07047 10.6188 2.07049 10.2705C2.24467 10.5429 2.34735 10.8421 2.41885 11.1458C2.5528 11.0833 2.68233 11.0252 2.80736 10.9627C2.73591 10.6501 2.65553 10.3375 2.6198 9.99807C2.82077 10.2437 2.95474 10.5295 3.06192 10.8332C3.29863 10.7037 3.53978 10.5786 3.77649 10.4402C3.68716 10.1008 3.57998 9.76136 3.48619 9.39068C3.74522 9.64077 3.91937 9.95786 4.03996 10.2928C4.2722 10.1499 4.50444 10.0159 4.73218 9.86854C4.625 9.61842 4.50888 9.3773 4.37491 9.11826C4.61608 9.27009 4.80365 9.48447 4.9555 9.72562C5.18771 9.57377 5.41548 9.41747 5.64324 9.25223C5.47351 8.9932 5.28595 8.74311 5.08053 8.47517C5.40209 8.6002 5.65663 8.82797 5.86654 9.09147C6.11216 8.90838 6.35778 8.72523 6.59002 8.5377C6.4337 8.28313 6.24613 8.04198 6.04963 7.78295C6.35331 7.89904 6.59893 8.1179 6.80438 8.36799C7.06341 8.1536 7.31794 7.93478 7.57253 7.70701C7.39388 7.42118 7.18847 7.15324 6.96961 6.86297C7.29565 6.99247 7.56359 7.23365 7.77795 7.51054C8.34969 6.99313 8.40552 6.90974 8.49249 6.82276C8.3094 6.50567 8.0861 6.21985 7.85386 5.90725C8.19775 6.04567 8.4791 6.30026 8.69793 6.60838C8.90337 6.39405 9.10435 6.1752 9.29638 5.94746C9.05076 5.6929 8.7694 5.46513 8.47019 5.21057C8.85873 5.26863 9.19814 5.47404 9.49288 5.73307C9.676 5.51425 9.85015 5.29539 10.0288 5.07212C9.72065 4.8533 9.3857 4.67018 9.02396 4.47815C9.44823 4.44688 9.85906 4.60765 10.2164 4.83095C10.4039 4.58979 10.5825 4.3397 10.7567 4.09408C10.4307 3.9199 10.0868 3.7904 9.71618 3.65193C10.127 3.57155 10.5468 3.66981 10.9264 3.83505C11.0158 3.71002 11.1006 3.58049 11.1855 3.45096C10.8818 3.37952 10.5692 3.31701 10.2342 3.25895C10.5915 3.11604 10.9755 3.11604 11.3507 3.18748C11.44 3.04457 11.5293 2.90166 11.6097 2.75874C11.2614 2.7141 10.9086 2.70965 10.529 2.69624C10.8996 2.47741 11.3507 2.4283 11.7839 2.46847C11.8643 2.32556 11.9402 2.18712 12.0161 2.03973C11.6588 1.99509 11.2927 1.98615 10.9041 1.97276C10.922 1.96382 10.9309 1.95491 10.9488 1.94597C10.9488 1.94597 10.9533 1.9415 10.9577 1.94594C11.5963 1.88791 12.226 1.88344 12.8602 1.93703C13.1192 2.0442 13.3559 2.20053 13.539 2.41041C13.1371 2.28536 12.7709 2.16032 12.3868 2.09779C12.3109 2.24518 12.226 2.39256 12.1412 2.53994C12.5342 2.64712 12.8959 2.83021 13.1639 3.13389C12.7575 3.00436 12.3823 2.87933 11.9893 2.8168C11.8955 2.97313 11.8018 3.12942 11.7035 3.28128C12.1278 3.44652 12.5297 3.70555 12.7753 4.09405C12.3511 3.88417 11.9715 3.67426 11.5472 3.55369C11.5427 3.54922 11.5427 3.54922 11.5427 3.54922C11.4445 3.70105 11.3373 3.85293 11.2391 4.00476C11.5919 4.24144 11.9 4.54959 12.0519 4.94259C11.7169 4.68806 11.4132 4.44691 11.0693 4.25485C10.8863 4.51835 10.6942 4.78183 10.4977 5.04083C10.8059 5.32221 11.0693 5.6661 11.1631 6.07249C10.8728 5.78219 10.6138 5.50531 10.3146 5.27754C10.127 5.51869 9.93053 5.75095 9.73403 5.98316C10.0154 6.33599 10.2297 6.75576 10.2387 7.2113C10.0065 6.85403 9.79656 6.51017 9.53309 6.21093C9.32764 6.45208 9.11329 6.68432 8.89443 6.91206C9.0954 7.32739 9.21152 7.8008 9.1222 8.25631C8.97482 7.85886 8.84531 7.49712 8.66219 7.15324C8.5598 7.25188 8.52425 7.3051 7.97892 7.80081C7.98339 7.81422 7.98783 7.81866 7.99677 7.8276C8.20669 8.26081 8.33175 8.74311 8.23795 9.21203C8.08163 8.78776 7.95213 8.39031 7.74221 8.02857Z" fill="#E11226" style="fill:#E11226;fill:color(display-p3 0.8824 0.0706 0.1490);fill-opacity:1;"/>
</g>
</g>
</g>
</g>
</g>
</svg>
