<svg width="24" height="24" viewBox="0 0 24 24" fill="none" xmlns="http://www.w3.org/2000/svg">
<g clip-path="url(#clip0_4130_788)">
<path d="M16.6609 10.9593L10.3009 17.3193L6.39368 21.2265L4.47368 23.1465C4.06575 23.5545 3.39848 23.5545 2.99043 23.1465L0.729653 20.8857C0.321724 20.4777 0.321724 19.8105 0.729653 19.4025L12.9169 7.21527C13.1809 6.95608 13.6033 6.95608 13.8673 7.21527L14.0593 7.40728L16.0704 9.41848L16.6609 10.0089C16.92 10.2729 16.92 10.6953 16.6609 10.9593Z" fill="#F4B37D" style="fill:#F4B37D;fill:color(display-p3 0.9569 0.7020 0.4902);fill-opacity:1;"/>
<path d="M16.6993 10.9113C16.6897 10.8921 16.6754 10.8777 16.661 10.8633L13.8673 8.06968C13.6033 7.81049 13.181 7.81049 12.9169 8.06968L0.729668 20.2569C0.633691 20.3481 0.561738 20.4537 0.513691 20.5689C0.340957 20.1849 0.41291 19.7193 0.729668 19.4025L12.9169 7.21527C13.181 6.95608 13.6033 6.95608 13.8673 7.21527L14.0593 7.40728L16.0704 9.41848L16.661 10.0089C16.9058 10.2585 16.9201 10.6473 16.6993 10.9113Z" fill="#EA9C5C" style="fill:#EA9C5C;fill:color(display-p3 0.9176 0.6118 0.3608);fill-opacity:1;"/>
<path d="M11.2932 12.3893L14.4562 7.80511L16.071 9.4199L11.4869 12.583C11.3595 12.6708 11.2053 12.5166 11.2932 12.3893Z" fill="#F2A764" style="fill:#F2A764;fill:color(display-p3 0.9490 0.6549 0.3922);fill-opacity:1;"/>
<path d="M16.4718 9.81878L14.0586 7.40553C14.4964 7.46323 14.88 7.39872 15.2092 7.19854C15.3551 7.11362 15.4875 7.00843 15.6097 6.87265L21.3458 1.1366L22.7408 2.53161L17.0047 8.26767C16.8689 8.38985 16.7638 8.52223 16.6788 8.66813C16.4786 8.99733 16.4142 9.38095 16.4718 9.81878Z" fill="#A04747" style="fill:#A04747;fill:color(display-p3 0.6275 0.2784 0.2784);fill-opacity:1;"/>
<path d="M23.4976 2.28382L23.1888 2.59268C23.0836 2.69789 22.9105 2.70129 22.8018 2.59266L21.2847 1.0755C21.176 0.966863 21.1794 0.79376 21.2847 0.688544L21.5935 0.379688C21.6987 0.274472 21.8718 0.271074 21.9805 0.379709L23.4976 1.89687C23.6063 2.0055 23.6029 2.17861 23.4976 2.28382Z" fill="#7F3939" style="fill:#7F3939;fill:color(display-p3 0.4980 0.2235 0.2235);fill-opacity:1;"/>
<path d="M16.4718 9.81879L14.0586 7.40553C14.4964 7.46323 14.88 7.39872 15.2092 7.19854C15.3551 7.11363 15.4875 7.00843 15.6097 6.87266L15.9254 6.55701L17.3204 7.95202L17.0047 8.26767C16.8689 8.38986 16.7638 8.52223 16.6788 8.66813C16.4786 8.99733 16.4142 9.38095 16.4718 9.81879Z" fill="#7F3939" style="fill:#7F3939;fill:color(display-p3 0.4980 0.2235 0.2235);fill-opacity:1;"/>
<path d="M16.9364 5.54498L17.6152 4.86616L19.0102 6.26114L18.3314 6.93996L16.9364 5.54498Z" fill="#7F3939" style="fill:#7F3939;fill:color(display-p3 0.4980 0.2235 0.2235);fill-opacity:1;"/>
<path d="M18.2941 4.1875L18.9695 3.51207L20.3645 4.90705L19.689 5.58248L18.2941 4.1875Z" fill="#7F3939" style="fill:#7F3939;fill:color(display-p3 0.4980 0.2235 0.2235);fill-opacity:1;"/>
<path d="M19.6479 2.83392L20.3268 2.1551L21.7218 3.55008L21.0429 4.2289L19.6479 2.83392Z" fill="#7F3939" style="fill:#7F3939;fill:color(display-p3 0.4980 0.2235 0.2235);fill-opacity:1;"/>
<path d="M10.3009 17.3193L6.39367 21.2265C6.36496 21.0681 6.35535 20.9049 6.35535 20.7369C6.35535 18.3663 8.72781 16.947 10.3009 17.3193Z" fill="#EA9C5C" style="fill:#EA9C5C;fill:color(display-p3 0.9176 0.6118 0.3608);fill-opacity:1;"/>
<path d="M9.94684 23.0309V23.6972C9.89719 23.7012 9.85169 23.7012 9.80204 23.7012C9.75239 23.7012 9.70688 23.7012 9.65723 23.6972V23.0972C9.70688 23.0929 9.75653 23.0806 9.80204 23.0681C9.85169 23.0557 9.90134 23.0474 9.94684 23.0309Z" fill="#D0D0F7" style="fill:#D0D0F7;fill:color(display-p3 0.8157 0.8157 0.9686);fill-opacity:1;"/>
<path d="M12.7687 20.7346C12.7687 22.0173 11.9536 23.1095 10.8116 23.5232C10.7165 23.5606 10.6213 23.5895 10.522 23.6101C10.3358 23.6598 10.1413 23.6887 9.94684 23.6972C9.89719 23.7012 9.85168 23.7012 9.80203 23.7012C9.75238 23.7012 9.70687 23.7012 9.65722 23.6972C9.46274 23.6887 9.26828 23.6598 9.08208 23.6101C8.98278 23.5895 8.8876 23.5606 8.79244 23.5232C7.65044 23.1095 6.83533 22.0173 6.83533 20.7346C6.83533 19.4518 7.65044 18.3594 8.79244 17.9457C8.8876 17.9085 8.98278 17.8796 9.08208 17.8588C9.26828 17.8091 9.46274 17.7802 9.65722 17.7719C9.70687 17.7679 9.75238 17.7679 9.80203 17.7679C9.85168 17.7679 9.89719 17.7679 9.94684 17.7719C10.1413 17.7802 10.3358 17.8091 10.522 17.8588C10.6213 17.8796 10.7165 17.9085 10.8116 17.9457C11.9536 18.3594 12.7687 19.4518 12.7687 20.7346Z" fill="#F05543" style="fill:#F05543;fill:color(display-p3 0.9412 0.3333 0.2627);fill-opacity:1;"/>
<g opacity="0.8">
<path d="M9.94684 17.7719V23.6972C9.89719 23.7012 9.85169 23.7012 9.80204 23.7012C9.75239 23.7012 9.70688 23.7012 9.65723 23.6972V17.7719C9.70688 17.7679 9.75239 17.7679 9.80204 17.7679C9.85169 17.7679 9.89719 17.7679 9.94684 17.7719Z" fill="#F9FAFB" style="fill:#F9FAFB;fill:color(display-p3 0.9765 0.9804 0.9843);fill-opacity:1;"/>
</g>
<g opacity="0.8">
<path d="M10.8116 17.9457V17.9623C10.8116 18.0451 10.7454 18.1071 10.6668 18.1071C10.5882 18.1071 10.522 18.0451 10.522 17.9623V17.8588C10.6213 17.8796 10.7165 17.9085 10.8116 17.9457Z" fill="#F9FAFB" style="fill:#F9FAFB;fill:color(display-p3 0.9765 0.9804 0.9843);fill-opacity:1;"/>
<path d="M10.6668 18.612C10.5882 18.612 10.522 18.674 10.522 18.7567V19.547C10.522 19.6256 10.5882 19.6919 10.6668 19.6919C10.7454 19.6919 10.8116 19.6256 10.8116 19.547V18.7567C10.8116 18.674 10.7454 18.612 10.6668 18.612ZM10.6668 20.1925C10.5882 20.1925 10.522 20.2588 10.522 20.3374V21.1318C10.522 21.2104 10.5882 21.2766 10.6668 21.2766C10.7454 21.2766 10.8116 21.2104 10.8116 21.1318V20.3374C10.8116 20.2588 10.7454 20.1925 10.6668 20.1925ZM10.6668 21.7773C10.5882 21.7773 10.522 21.8433 10.522 21.9221V22.7123C10.522 22.7331 10.5261 22.7578 10.5385 22.7743C10.5592 22.824 10.6089 22.8572 10.6668 22.8572C10.7454 22.8572 10.8116 22.7951 10.8116 22.7123V21.9221C10.8116 21.8433 10.7454 21.7773 10.6668 21.7773Z" fill="#F9FAFB" style="fill:#F9FAFB;fill:color(display-p3 0.9765 0.9804 0.9843);fill-opacity:1;"/>
<path d="M10.8116 23.5067V23.5233C10.7165 23.5607 10.6213 23.5896 10.522 23.6102V23.5067C10.522 23.4241 10.5882 23.3621 10.6668 23.3621C10.7454 23.3621 10.8116 23.4241 10.8116 23.5067Z" fill="#F9FAFB" style="fill:#F9FAFB;fill:color(display-p3 0.9765 0.9804 0.9843);fill-opacity:1;"/>
<path d="M9.08212 17.8588V17.9623C9.08212 18.0451 9.02005 18.1071 8.93729 18.1071C8.8587 18.1071 8.79248 18.0451 8.79248 17.9623V17.9457C8.88764 17.9085 8.98282 17.8796 9.08212 17.8588Z" fill="#F9FAFB" style="fill:#F9FAFB;fill:color(display-p3 0.9765 0.9804 0.9843);fill-opacity:1;"/>
<path d="M8.93729 18.612C8.8587 18.612 8.79248 18.674 8.79248 18.7567V19.547C8.79248 19.6256 8.8587 19.6919 8.93729 19.6919C9.02005 19.6919 9.08212 19.6256 9.08212 19.547V18.7567C9.08212 18.674 9.02005 18.612 8.93729 18.612ZM8.93729 20.1925C8.8587 20.1925 8.79248 20.2588 8.79248 20.3374V21.1318C8.79248 21.2104 8.8587 21.2766 8.93729 21.2766C9.02005 21.2766 9.08212 21.2104 9.08212 21.1318V20.3374C9.08212 20.2588 9.02005 20.1925 8.93729 20.1925ZM8.93729 21.7773C8.8587 21.7773 8.79248 21.8433 8.79248 21.9221V22.7123C8.79248 22.7951 8.8587 22.8572 8.93729 22.8572C9.02005 22.8572 9.08212 22.7951 9.08212 22.7123V21.9221C9.08212 21.8433 9.02005 21.7773 8.93729 21.7773Z" fill="#F9FAFB" style="fill:#F9FAFB;fill:color(display-p3 0.9765 0.9804 0.9843);fill-opacity:1;"/>
<path d="M9.08212 23.5067V23.6102C8.98282 23.5896 8.88764 23.5607 8.79248 23.5233V23.5067C8.79248 23.4241 8.8587 23.3621 8.93729 23.3621C9.02005 23.3621 9.08212 23.4241 9.08212 23.5067Z" fill="#F9FAFB" style="fill:#F9FAFB;fill:color(display-p3 0.9765 0.9804 0.9843);fill-opacity:1;"/>
</g>
<path d="M12.7688 20.7345C12.7688 22.0173 11.9537 23.1095 10.8117 23.5232C10.7165 23.5606 10.6213 23.5895 10.522 23.6101C10.3358 23.6598 10.1414 23.6887 9.94687 23.6972C9.89722 23.7012 9.85171 23.7012 9.80206 23.7012C9.75241 23.7012 9.7069 23.7012 9.65725 23.6972C9.46277 23.6887 9.26831 23.6598 9.08211 23.6101C8.98281 23.5895 8.88763 23.5606 8.79247 23.5232C8.3663 23.3703 7.98562 23.1177 7.67529 22.8034C7.80356 22.8737 7.93597 22.9317 8.07252 22.9812C8.16768 23.0185 8.26286 23.0474 8.36216 23.068C8.54836 23.1177 8.74282 23.1468 8.93728 23.1551C8.98695 23.1592 9.03246 23.1592 9.08211 23.1592C9.13176 23.1592 9.17727 23.1592 9.22692 23.1551C9.4214 23.1468 9.61586 23.1177 9.80206 23.068C9.90136 23.0474 9.99655 23.0185 10.0917 22.9812C11.2337 22.5674 12.0488 21.4752 12.0488 20.1925C12.0488 19.3898 11.7302 18.6615 11.213 18.1277C12.1399 18.6285 12.7688 19.609 12.7688 20.7345Z" fill="#E24B40" style="fill:#E24B40;fill:color(display-p3 0.8863 0.2941 0.2510);fill-opacity:1;"/>
<path d="M9.08212 23.5067V23.6101C8.98282 23.5895 8.88764 23.5606 8.79248 23.5232V23.5067C8.79248 23.424 8.8587 23.362 8.93729 23.362C9.02005 23.362 9.08212 23.424 9.08212 23.5067Z" fill="#D0D0F7" style="fill:#D0D0F7;fill:color(display-p3 0.8157 0.8157 0.9686);fill-opacity:1;"/>
<path d="M10.8116 22.5965V22.7123C10.8116 22.7951 10.7455 22.8571 10.6668 22.8571C10.6089 22.8571 10.5593 22.824 10.5386 22.7743C10.6337 22.7205 10.7247 22.6628 10.8116 22.5965Z" fill="#D0D0F7" style="fill:#D0D0F7;fill:color(display-p3 0.8157 0.8157 0.9686);fill-opacity:1;"/>
<path d="M10.8116 23.5067V23.5232C10.7165 23.5606 10.6213 23.5895 10.522 23.6101V23.5067C10.522 23.424 10.5882 23.362 10.6668 23.362C10.7454 23.362 10.8116 23.424 10.8116 23.5067Z" fill="#D0D0F7" style="fill:#D0D0F7;fill:color(display-p3 0.8157 0.8157 0.9686);fill-opacity:1;"/>
<g opacity="0.4">
<path d="M13.3205 13.4742L11.7253 15.1489C11.6066 15.2736 11.4096 15.2784 11.285 15.1596C11.1603 15.0409 11.1555 14.844 11.2742 14.7193L12.8695 13.0445C12.9882 12.9199 13.1852 12.9151 13.3098 13.0338C13.4345 13.1526 13.4393 13.3495 13.3205 13.4742Z" fill="#F9FAFB" style="fill:#F9FAFB;fill:color(display-p3 0.9765 0.9804 0.9843);fill-opacity:1;"/>
</g>
<g opacity="0.4">
<path d="M10.8499 16.068L10.6936 16.2321C10.5748 16.3568 10.3779 16.3616 10.2532 16.2428C10.1286 16.1241 10.1238 15.9271 10.2425 15.8025L10.3988 15.6384C10.5175 15.5137 10.7145 15.509 10.8391 15.6277C10.9638 15.7464 10.9686 15.9434 10.8499 16.068Z" fill="#F9FAFB" style="fill:#F9FAFB;fill:color(display-p3 0.9765 0.9804 0.9843);fill-opacity:1;"/>
</g>
</g>
<defs>
<clipPath id="clip0_4130_788">
<rect width="24" height="24" fill="white" style="fill:white;fill-opacity:1;" transform="translate(0 0.000366211)"/>
</clipPath>
</defs>
</svg>
