<svg width="24" height="24" viewBox="0 0 24 24" fill="none" xmlns="http://www.w3.org/2000/svg">
<g clip-path="url(#clip0_4028_10907)">
<path d="M24 12C24 5.37176 18.6277 0 12 0C5.37176 0 0 5.37233 0 12C0 18.6282 5.37233 24 12 24C18.6282 24 24 18.6277 24 12ZM1.43586 12.7059H3.7008C3.84984 14.4731 4.55285 16.0848 5.63525 17.3665L4.03426 18.9675C2.54758 17.27 1.59393 15.0951 1.43586 12.7059ZM4.03426 5.03247L5.63529 6.63351C4.55285 7.91525 3.84984 9.52692 3.7008 11.2941H1.43586C1.59393 8.90494 2.54758 6.73002 4.03426 5.03247ZM22.5641 11.2941H20.2992C20.1502 9.52692 19.4472 7.91525 18.3648 6.63351L19.9658 5.03247C21.4524 6.73002 22.4061 8.90494 22.5641 11.2941ZM12 18.9176C8.1856 18.9176 5.08235 15.8144 5.08235 12C5.08235 8.1856 8.1856 5.08235 12 5.08235C15.8144 5.08235 18.9176 8.1856 18.9176 12C18.9176 15.8144 15.8144 18.9176 12 18.9176ZM17.3665 5.63529C16.0848 4.55285 14.4731 3.84984 12.7059 3.7008V1.43586C15.095 1.59393 17.27 2.54758 18.9675 4.03426L17.3665 5.63529ZM11.2941 3.7008C9.52692 3.84984 7.91525 4.55285 6.63351 5.63529L5.03247 4.03426C6.73002 2.54758 8.90499 1.59393 11.2941 1.43586V3.7008ZM6.63351 18.3647C7.91525 19.4471 9.52692 20.1502 11.2941 20.2992V22.5641C8.90499 22.406 6.73002 21.4523 5.03252 19.9657L6.63351 18.3647ZM12.7059 20.2992C14.4731 20.1502 16.0848 19.4472 17.3665 18.3648L18.9675 19.9658C17.27 21.4524 15.0951 22.4061 12.7059 22.5642V20.2992H12.7059ZM18.3648 17.3665C19.4472 16.0848 20.1502 14.4731 20.2992 12.7059H22.5641C22.4061 15.0951 21.4524 17.27 19.9657 18.9675L18.3648 17.3665Z" fill="#0A0E14" style="fill:#0A0E14;fill:color(display-p3 0.0392 0.0549 0.0784);fill-opacity:1;"/>
<path d="M12.8219 11.2941H11.178C10.7532 11.2941 10.4076 10.9485 10.4076 10.5237C10.4076 10.1027 10.7459 9.75322 11.1837 9.75332L12.7611 9.76499C13.1412 9.76781 13.4904 9.96066 13.695 10.2806L13.7034 10.2936C13.9133 10.6221 14.3498 10.7182 14.6783 10.5083C15.0068 10.2984 15.1029 9.86188 14.893 9.53336L14.8845 9.52004C14.4444 8.83209 13.6958 8.36009 12.7058 8.3528V7.61525C12.7058 7.22541 12.3898 6.90936 11.9999 6.90936C11.6101 6.90936 11.2941 7.22541 11.2941 7.61525V8.34235C9.86564 8.33186 8.99585 9.39543 8.99585 10.5237C8.99585 11.727 9.97477 12.7059 11.178 12.7059H12.8219C13.2467 12.7059 13.5923 13.0515 13.5923 13.4763C13.5923 13.8971 13.2537 14.2478 12.8162 14.2467L11.0954 14.234C10.7655 14.2315 10.4552 14.0848 10.2441 13.8313C9.99453 13.5317 9.54945 13.4912 9.24997 13.7408C8.95044 13.9903 8.90992 14.4354 9.15947 14.7349C9.63707 15.3082 10.3389 15.6401 11.085 15.6457L11.2941 15.6472V16.3848C11.2941 16.7746 11.6102 17.0907 12 17.0907C12.3898 17.0907 12.7059 16.7746 12.7059 16.3848V15.6577C14.1185 15.6681 15.0041 14.621 15.0041 13.4763C15.004 12.273 14.0252 11.2941 12.8219 11.2941Z" fill="#0A0E14" style="fill:#0A0E14;fill:color(display-p3 0.0392 0.0549 0.0784);fill-opacity:1;"/>
</g>
<defs>
<clipPath id="clip0_4028_10907">
<rect width="24" height="24" fill="white" style="fill:white;fill-opacity:1;"/>
</clipPath>
</defs>
</svg>
