<svg width="16" height="16" viewBox="0 0 16 16" fill="none" xmlns="http://www.w3.org/2000/svg">
<path d="M3.68256 2.53967H13.5873C13.7276 2.53967 13.8413 2.65339 13.8413 2.79364V15.746C13.8413 15.8863 13.7276 16 13.5873 16H3.68256C3.54231 16 3.42859 15.8863 3.42859 15.746V2.79364C3.42859 2.65336 3.54231 2.53967 3.68256 2.53967Z" fill="#CCF49F" style="fill:#CCF49F;fill:color(display-p3 0.8000 0.9569 0.6235);fill-opacity:1;"/>
<path d="M3.68256 2.53967C3.54228 2.53967 3.42859 2.65336 3.42859 2.79364V15.492H10.3293C10.6007 15.492 10.8558 15.3864 11.0476 15.1945L13.0358 13.2064C13.2277 13.0145 13.3333 12.7594 13.3333 12.4881V2.53967H3.68256Z" fill="#B3E59F" style="fill:#B3E59F;fill:color(display-p3 0.7020 0.8980 0.6235);fill-opacity:1;"/>
<path d="M12.5715 1.5238H2.66669C2.52644 1.5238 2.41272 1.63752 2.41272 1.77777V14.7301C2.41272 14.8704 2.52644 14.9841 2.66669 14.9841H10.3293C10.4641 14.9841 10.5933 14.9306 10.6885 14.8354L12.6767 12.8472C12.7719 12.752 12.8254 12.6228 12.8254 12.4881V1.77777C12.8254 1.63749 12.7117 1.5238 12.5715 1.5238Z" fill="#ECEAEC" style="fill:#ECEAEC;fill:color(display-p3 0.9255 0.9176 0.9255);fill-opacity:1;"/>
<path d="M2.41272 1.5238V14.7301C2.41272 14.8704 2.52644 14.9841 2.66669 14.9841H2.92066V9.90474C2.92066 9.34368 3.37547 8.88887 3.93653 8.88887H9.01591C9.43669 8.88887 9.77781 8.54774 9.77781 8.12696V1.5238H2.41272Z" fill="#DAD8DB" style="fill:#DAD8DB;fill:color(display-p3 0.8549 0.8471 0.8588);fill-opacity:1;"/>
<path d="M9.01585 8.38093H2.41266C2.27241 8.38093 2.15869 8.26721 2.15869 8.12696V1.52381C2.15869 1.38356 2.27241 1.26984 2.41266 1.26984H9.01585C9.1561 1.26984 9.26982 1.38356 9.26982 1.52381V8.12699C9.26982 8.26724 9.1561 8.38093 9.01585 8.38093Z" fill="#FFE07D" style="fill:#FFE07D;fill:color(display-p3 1.0000 0.8784 0.4902);fill-opacity:1;"/>
<path d="M5.20632 7.87302C3.80369 7.87302 2.66663 6.73596 2.66663 5.33334V1.26984H2.41266C2.27241 1.26984 2.15869 1.38356 2.15869 1.52381V8.12699C2.15869 8.26724 2.27241 8.38096 2.41266 8.38096H9.01585C9.1561 8.38096 9.26982 8.26724 9.26982 8.12699V7.87302H5.20632Z" fill="#FFD064" style="fill:#FFD064;fill:color(display-p3 1.0000 0.8157 0.3922);fill-opacity:1;"/>
<path d="M7.74598 3.80954H6.47614C6.33576 3.80954 6.22217 3.69595 6.22217 3.55557C6.22217 3.4152 6.33576 3.30161 6.47614 3.30161H7.74598C7.88636 3.30161 7.99995 3.4152 7.99995 3.55557C7.99995 3.69595 7.88636 3.80954 7.74598 3.80954Z" fill="#6F6571" style="fill:#6F6571;fill:color(display-p3 0.4353 0.3961 0.4431);fill-opacity:1;"/>
<path d="M7.74598 5.07938H6.47614C6.33576 5.07938 6.22217 4.96579 6.22217 4.82541C6.22217 4.68504 6.33576 4.57144 6.47614 4.57144H7.74598C7.88636 4.57144 7.99995 4.68504 7.99995 4.82541C7.99995 4.96579 7.88636 5.07938 7.74598 5.07938Z" fill="#6F6571" style="fill:#6F6571;fill:color(display-p3 0.4353 0.3961 0.4431);fill-opacity:1;"/>
<path d="M7.74606 6.34922H3.68256C3.54218 6.34922 3.42859 6.23562 3.42859 6.09525C3.42859 5.95487 3.54218 5.84128 3.68256 5.84128H7.74606C7.88643 5.84128 8.00003 5.95487 8.00003 6.09525C8.00003 6.23562 7.88643 6.34922 7.74606 6.34922Z" fill="#6F6571" style="fill:#6F6571;fill:color(display-p3 0.4353 0.3961 0.4431);fill-opacity:1;"/>
<path d="M11.3016 6.34922H10.7936C10.6533 6.34922 10.5397 6.23562 10.5397 6.09525C10.5397 5.95487 10.6533 5.84128 10.7936 5.84128H11.3016C11.442 5.84128 11.5555 5.95487 11.5555 6.09525C11.5555 6.23562 11.442 6.34922 11.3016 6.34922Z" fill="#FFD064" style="fill:#FFD064;fill:color(display-p3 1.0000 0.8157 0.3922);fill-opacity:1;"/>
<path d="M11.3016 3.80954H10.7936C10.6533 3.80954 10.5397 3.69595 10.5397 3.55557C10.5397 3.4152 10.6533 3.30161 10.7936 3.30161H11.3016C11.442 3.30161 11.5555 3.4152 11.5555 3.55557C11.5555 3.69595 11.442 3.80954 11.3016 3.80954Z" fill="#FFD064" style="fill:#FFD064;fill:color(display-p3 1.0000 0.8157 0.3922);fill-opacity:1;"/>
<path d="M11.3016 5.07938H10.7936C10.6533 5.07938 10.5397 4.96579 10.5397 4.82541C10.5397 4.68504 10.6533 4.57144 10.7936 4.57144H11.3016C11.442 4.57144 11.5555 4.68504 11.5555 4.82541C11.5555 4.96579 11.442 5.07938 11.3016 5.07938Z" fill="#FFD064" style="fill:#FFD064;fill:color(display-p3 1.0000 0.8157 0.3922);fill-opacity:1;"/>
<path d="M11.3016 7.61905H10.7936C10.6533 7.61905 10.5397 7.50546 10.5397 7.36508C10.5397 7.22471 10.6533 7.11111 10.7936 7.11111H11.3016C11.442 7.11111 11.5555 7.22471 11.5555 7.36508C11.5555 7.50546 11.442 7.61905 11.3016 7.61905Z" fill="#FFD064" style="fill:#FFD064;fill:color(display-p3 1.0000 0.8157 0.3922);fill-opacity:1;"/>
<path d="M4.4444 9.90476H3.93646C3.79609 9.90476 3.6825 9.79116 3.6825 9.65079C3.6825 9.51041 3.79609 9.39682 3.93646 9.39682H4.4444C4.58478 9.39682 4.69837 9.51041 4.69837 9.65079C4.69837 9.79116 4.58478 9.90476 4.4444 9.90476Z" fill="#B3E59F" style="fill:#B3E59F;fill:color(display-p3 0.7020 0.8980 0.6235);fill-opacity:1;"/>
<path d="M4.4444 12.4444H3.93646C3.79609 12.4444 3.6825 12.3308 3.6825 12.1905C3.6825 12.0501 3.79609 11.9365 3.93646 11.9365H4.4444C4.58478 11.9365 4.69837 12.0501 4.69837 12.1905C4.69837 12.3308 4.58478 12.4444 4.4444 12.4444Z" fill="#B3E59F" style="fill:#B3E59F;fill:color(display-p3 0.7020 0.8980 0.6235);fill-opacity:1;"/>
<path d="M4.4444 11.1746H3.93646C3.79609 11.1746 3.6825 11.061 3.6825 10.9206C3.6825 10.7802 3.79609 10.6667 3.93646 10.6667H4.4444C4.58478 10.6667 4.69837 10.7802 4.69837 10.9206C4.69837 11.061 4.58478 11.1746 4.4444 11.1746Z" fill="#B3E59F" style="fill:#B3E59F;fill:color(display-p3 0.7020 0.8980 0.6235);fill-opacity:1;"/>
<path d="M11.3016 9.90476H5.7143C5.57392 9.90476 5.46033 9.79116 5.46033 9.65079C5.46033 9.51041 5.57392 9.39682 5.7143 9.39682H11.3016C11.442 9.39682 11.5556 9.51041 11.5556 9.65079C11.5556 9.79116 11.442 9.90476 11.3016 9.90476Z" fill="#6F6571" style="fill:#6F6571;fill:color(display-p3 0.4353 0.3961 0.4431);fill-opacity:1;"/>
<path d="M9.26986 12.4444H5.7143C5.57392 12.4444 5.46033 12.3308 5.46033 12.1905C5.46033 12.0501 5.57392 11.9365 5.7143 11.9365H9.26986C9.41023 11.9365 9.52383 12.0501 9.52383 12.1905C9.52383 12.3308 9.41023 12.4444 9.26986 12.4444Z" fill="#6F6571" style="fill:#6F6571;fill:color(display-p3 0.4353 0.3961 0.4431);fill-opacity:1;"/>
<path d="M11.3016 11.1746H5.7143C5.57392 11.1746 5.46033 11.061 5.46033 10.9206C5.46033 10.7802 5.57392 10.6667 5.7143 10.6667H11.3016C11.442 10.6667 11.5556 10.7802 11.5556 10.9206C11.5556 11.061 11.442 11.1746 11.3016 11.1746Z" fill="#6F6571" style="fill:#6F6571;fill:color(display-p3 0.4353 0.3961 0.4431);fill-opacity:1;"/>
<path d="M10.6885 14.8354L12.6766 12.8472C12.7199 12.804 12.7532 12.753 12.7782 12.6984H10.7936C10.6534 12.6984 10.5397 12.8121 10.5397 12.9524V14.9369C10.5943 14.912 10.6452 14.8786 10.6885 14.8354Z" fill="white" style="fill:white;fill-opacity:1;"/>
<path d="M4.69844 2.03175C4.27831 2.03175 3.93653 2.37353 3.93653 2.79366V3.30159C3.93653 3.44197 4.05012 3.55556 4.1905 3.55556C4.33087 3.55556 4.44447 3.44197 4.44447 3.30159V2.79366C4.44447 2.65353 4.55831 2.53969 4.69844 2.53969C4.83856 2.53969 4.9524 2.65353 4.9524 2.79366V3.80953C4.9524 4.22966 4.61062 4.57144 4.1905 4.57144C3.77037 4.57144 3.42859 4.22966 3.42859 3.80953V1.26984C3.42859 0.849719 3.77037 0.507937 4.1905 0.507937C4.61062 0.507937 4.9524 0.849719 4.9524 1.26984H5.46034C5.46034 0.569687 4.89065 0 4.1905 0C3.49034 0 2.92065 0.569687 2.92065 1.26984V3.80953C2.92065 4.50969 3.49034 5.07937 4.1905 5.07937C4.89065 5.07937 5.46034 4.50969 5.46034 3.80953V2.79366C5.46034 2.3735 5.11859 2.03175 4.69844 2.03175Z" fill="#B3E59F" style="fill:#B3E59F;fill:color(display-p3 0.7020 0.8980 0.6235);fill-opacity:1;"/>
<path d="M4.75793 0.761902C4.87978 0.896996 4.95234 1.074 4.95234 1.26984H5.46028C5.46028 1.08906 5.4224 0.917746 5.354 0.761902H4.75793Z" fill="#95D6A4" style="fill:#95D6A4;fill:color(display-p3 0.5843 0.8392 0.6431);fill-opacity:1;"/>
</svg>
