<svg width="24" height="24" viewBox="0 0 24 24" fill="none" xmlns="http://www.w3.org/2000/svg">
<g id="gamepad 1">
<path id="Vector" d="M21.0295 20.0004C19.4035 20.0004 17.4485 18.3884 15.6235 15.5004H8.37647C6.25797 18.8534 3.96447 20.4869 2.21497 19.8754C1.86835 19.7382 1.55323 19.5321 1.28876 19.2694C1.02428 19.0067 0.815964 18.693 0.676466 18.3474C-0.431034 16.0244 -0.150034 11.4729 1.36297 7.27886C1.63441 6.54586 2.07312 5.8863 2.64422 5.35262C3.21531 4.81894 3.90305 4.42586 4.65273 4.20464C5.40242 3.98342 6.19338 3.94015 6.96272 4.07829C7.73206 4.21643 8.45857 4.53215 9.08447 5.00036H14.9155C15.5414 4.53215 16.2679 4.21643 17.0372 4.07829C17.8066 3.94015 18.5975 3.98342 19.3472 4.20464C20.0969 4.42586 20.7846 4.81894 21.3557 5.35262C21.9268 5.8863 22.3655 6.54586 22.637 7.27886C24.149 11.4729 24.431 16.0244 23.3235 18.3474C23.184 18.693 22.9757 19.0067 22.7112 19.2694C22.4467 19.5321 22.1316 19.7382 21.785 19.8754C21.542 19.9594 21.2865 20.0016 21.0295 20.0004Z" fill="#34495E" style="fill:#34495E;fill:color(display-p3 0.2039 0.2863 0.3686);fill-opacity:1;"/>
<g id="Group">
<path id="Vector_2" d="M22.397 18.3679C22.1387 18.4569 21.8672 18.5017 21.594 18.5004C19.8665 18.5004 17.7895 16.7879 15.85 13.7179H8.14996C5.89996 17.2804 3.46196 19.0179 1.60296 18.3679C1.07754 18.1743 0.627794 17.8178 0.319458 17.3504C0.407142 17.6941 0.526659 18.0289 0.676458 18.3504C0.816295 18.6955 1.02476 19.0086 1.28922 19.2708C1.55368 19.5329 1.86863 19.7386 2.21496 19.8754C3.96496 20.4869 6.25796 18.8534 8.37646 15.5004H15.6235C17.4485 18.3894 19.4035 20.0004 21.0295 20.0004C21.2866 20.0013 21.542 19.9587 21.785 19.8744C22.1316 19.7373 22.4467 19.5311 22.7112 19.2684C22.9756 19.0058 23.184 18.6921 23.3235 18.3464C23.4733 18.0249 23.5928 17.6901 23.6805 17.3464C23.3728 17.8153 22.9229 18.1733 22.397 18.3679Z" fill="#2C3E50" style="fill:#2C3E50;fill:color(display-p3 0.1725 0.2431 0.3137);fill-opacity:1;"/>
<path id="Vector_3" d="M13 12.5004H11C10.8674 12.5004 10.7402 12.4477 10.6464 12.3539C10.5527 12.2602 10.5 12.133 10.5 12.0004C10.5 11.8678 10.5527 11.7406 10.6464 11.6468C10.7402 11.553 10.8674 11.5004 11 11.5004H13C13.1326 11.5004 13.2598 11.553 13.3536 11.6468C13.4473 11.7406 13.5 11.8678 13.5 12.0004C13.5 12.133 13.4473 12.2602 13.3536 12.3539C13.2598 12.4477 13.1326 12.5004 13 12.5004Z" fill="#2C3E50" style="fill:#2C3E50;fill:color(display-p3 0.1725 0.2431 0.3137);fill-opacity:1;"/>
<path id="Vector_4" d="M18 13.2504C20.0711 13.2504 21.75 11.5714 21.75 9.50037C21.75 7.4293 20.0711 5.75037 18 5.75037C15.9289 5.75037 14.25 7.4293 14.25 9.50037C14.25 11.5714 15.9289 13.2504 18 13.2504Z" fill="#2C3E50" style="fill:#2C3E50;fill:color(display-p3 0.1725 0.2431 0.3137);fill-opacity:1;"/>
<path id="Vector_5" d="M6 13.0004C7.933 13.0004 9.5 11.4334 9.5 9.50037C9.5 7.56737 7.933 6.00037 6 6.00037C4.067 6.00037 2.5 7.56737 2.5 9.50037C2.5 11.4334 4.067 13.0004 6 13.0004Z" fill="#2C3E50" style="fill:#2C3E50;fill:color(display-p3 0.1725 0.2431 0.3137);fill-opacity:1;"/>
</g>
<path id="Vector_6" d="M18 8.50037C18.4142 8.50037 18.75 8.16458 18.75 7.75037C18.75 7.33615 18.4142 7.00037 18 7.00037C17.5858 7.00037 17.25 7.33615 17.25 7.75037C17.25 8.16458 17.5858 8.50037 18 8.50037Z" fill="#F1C40F" style="fill:#F1C40F;fill:color(display-p3 0.9451 0.7686 0.0588);fill-opacity:1;"/>
<path id="Vector_7" d="M18 12.0004C18.4142 12.0004 18.75 11.6646 18.75 11.2504C18.75 10.8362 18.4142 10.5004 18 10.5004C17.5858 10.5004 17.25 10.8362 17.25 11.2504C17.25 11.6646 17.5858 12.0004 18 12.0004Z" fill="#3498DB" style="fill:#3498DB;fill:color(display-p3 0.2039 0.5961 0.8588);fill-opacity:1;"/>
<path id="Vector_8" d="M19.75 10.2504C20.1642 10.2504 20.5 9.91458 20.5 9.50037C20.5 9.08615 20.1642 8.75037 19.75 8.75037C19.3358 8.75037 19 9.08615 19 9.50037C19 9.91458 19.3358 10.2504 19.75 10.2504Z" fill="#2ECC71" style="fill:#2ECC71;fill:color(display-p3 0.1804 0.8000 0.4431);fill-opacity:1;"/>
<path id="Vector_9" d="M16.25 10.2504C16.6642 10.2504 17 9.91458 17 9.50037C17 9.08615 16.6642 8.75037 16.25 8.75037C15.8358 8.75037 15.5 9.08615 15.5 9.50037C15.5 9.91458 15.8358 10.2504 16.25 10.2504Z" fill="#E74C3C" style="fill:#E74C3C;fill:color(display-p3 0.9059 0.2980 0.2353);fill-opacity:1;"/>
<path id="Vector_10" d="M7.75 8.75037H6.75V7.75037C6.75 7.55145 6.67098 7.36069 6.53033 7.22004C6.38968 7.07938 6.19891 7.00037 6 7.00037C5.80109 7.00037 5.61032 7.07938 5.46967 7.22004C5.32902 7.36069 5.25 7.55145 5.25 7.75037V8.75037H4.25C4.05109 8.75037 3.86032 8.82938 3.71967 8.97004C3.57902 9.11069 3.5 9.30145 3.5 9.50037C3.5 9.69928 3.57902 9.89004 3.71967 10.0307C3.86032 10.1713 4.05109 10.2504 4.25 10.2504H5.25V11.2504C5.25 11.4493 5.32902 11.64 5.46967 11.7807C5.61032 11.9213 5.80109 12.0004 6 12.0004C6.19891 12.0004 6.38968 11.9213 6.53033 11.7807C6.67098 11.64 6.75 11.4493 6.75 11.2504V10.2504H7.75C7.94891 10.2504 8.13968 10.1713 8.28033 10.0307C8.42098 9.89004 8.5 9.69928 8.5 9.50037C8.5 9.30145 8.42098 9.11069 8.28033 8.97004C8.13968 8.82938 7.94891 8.75037 7.75 8.75037Z" fill="#ECF0F1" style="fill:#ECF0F1;fill:color(display-p3 0.9255 0.9412 0.9451);fill-opacity:1;"/>
</g>
</svg>
