<svg width="20" height="20" viewBox="0 0 20 20" fill="none" xmlns="http://www.w3.org/2000/svg">
<g clip-path="url(#clip0_4130_672)">
<path d="M10 20.0003C15.5228 20.0003 20 15.5232 20 10.0003C20 4.47749 15.5228 0.000335693 10 0.000335693C4.47715 0.000335693 0 4.47749 0 10.0003C0 15.5232 4.47715 20.0003 10 20.0003Z" fill="#F0F0F0" style="fill:#F0F0F0;fill:color(display-p3 0.9412 0.9412 0.9412);fill-opacity:1;"/>
<path d="M19.9154 8.696H11.3044H11.3044V0.0849841C10.8774 0.0293982 10.4421 0.000335693 10 0.000335693C9.55793 0.000335693 9.12262 0.0293982 8.69566 0.0849841V8.69592V8.69596H0.0846484C0.0290625 9.12295 0 9.55819 0 10.0003C0 10.4425 0.0290625 10.8777 0.0846484 11.3047H8.69559H8.69563V19.9157C9.12262 19.9713 9.55793 20.0003 10 20.0003C10.4421 20.0003 10.8774 19.9713 11.3043 19.9157V11.3048V11.3047H19.9154C19.9709 10.8777 20 10.4425 20 10.0003C20 9.55819 19.9709 9.12295 19.9154 8.696Z" fill="#D80027" style="fill:#D80027;fill:color(display-p3 0.8471 0.0000 0.1529);fill-opacity:1;"/>
</g>
<defs>
<clipPath id="clip0_4130_672">
<rect width="20" height="20" fill="white" style="fill:white;fill-opacity:1;" transform="translate(0 0.000335693)"/>
</clipPath>
</defs>
</svg>
