<svg width="20" height="20" viewBox="0 0 20 20" fill="none" xmlns="http://www.w3.org/2000/svg">
<g clip-path="url(#clip0_4130_682)">
<path d="M0 10.0003C0 11.2235 0.220039 12.3953 0.621992 13.4786L10 14.3482L19.378 13.4786C19.78 12.3953 20 11.2235 20 10.0003C20 8.77714 19.78 7.60542 19.378 6.5221L10 5.65253L0.621992 6.5221C0.220039 7.60542 0 8.77714 0 10.0003H0Z" fill="#FFDA44" style="fill:#FFDA44;fill:color(display-p3 1.0000 0.8549 0.2667);fill-opacity:1;"/>
<path d="M19.378 6.52209C17.965 2.71412 14.2996 0.000335693 9.99996 0.000335693C5.70031 0.000335693 2.03488 2.71412 0.621948 6.52209H19.378Z" fill="#D80027" style="fill:#D80027;fill:color(display-p3 0.8471 0.0000 0.1529);fill-opacity:1;"/>
<path d="M0.621948 13.4786C2.03488 17.2865 5.70031 20.0003 9.99996 20.0003C14.2996 20.0003 17.965 17.2865 19.378 13.4786H0.621948Z" fill="#D80027" style="fill:#D80027;fill:color(display-p3 0.8471 0.0000 0.1529);fill-opacity:1;"/>
</g>
<defs>
<clipPath id="clip0_4130_682">
<rect width="20" height="20" fill="white" style="fill:white;fill-opacity:1;" transform="translate(0 0.000335693)"/>
</clipPath>
</defs>
</svg>
