<svg width="20" height="20" viewBox="0 0 20 20" fill="none" xmlns="http://www.w3.org/2000/svg">
<g clip-path="url(#clip0_4130_705)">
<path d="M10 20.0003C15.5228 20.0003 20 15.5232 20 10.0003C20 4.47749 15.5228 0.000335693 10 0.000335693C4.47715 0.000335693 0 4.47749 0 10.0003C0 15.5232 4.47715 20.0003 10 20.0003Z" fill="#F0F0F0" style="fill:#F0F0F0;fill:color(display-p3 0.9412 0.9412 0.9412);fill-opacity:1;"/>
<path d="M20 10.0003C20 5.70067 17.2863 2.03524 13.4783 0.622314V19.3784C17.2863 17.9654 20 14.3 20 10.0003Z" fill="#D80027" style="fill:#D80027;fill:color(display-p3 0.8471 0.0000 0.1529);fill-opacity:1;"/>
<path d="M0 10.0003C0 14.3 2.71375 17.9654 6.52176 19.3783V0.622314C2.71375 2.03524 0 5.70067 0 10.0003Z" fill="#6DA544" style="fill:#6DA544;fill:color(display-p3 0.4275 0.6471 0.2667);fill-opacity:1;"/>
</g>
<defs>
<clipPath id="clip0_4130_705">
<rect width="20" height="20" fill="white" style="fill:white;fill-opacity:1;" transform="translate(0 0.000335693)"/>
</clipPath>
</defs>
</svg>
