<svg width="20" height="20" viewBox="0 0 20 20" fill="none" xmlns="http://www.w3.org/2000/svg">
<mask id="mask0_2899_2361" style="mask-type:alpha" maskUnits="userSpaceOnUse" x="0" y="0" width="20" height="20">
<rect width="20" height="20" fill="#D9D9D9" style="fill:#D9D9D9;fill:color(display-p3 0.8510 0.8510 0.8510);fill-opacity:1;"/>
</mask>
<g mask="url(#mask0_2899_2361)">
<path d="M9.95817 14.9998C10.2498 14.9998 10.4964 14.8991 10.6978 14.6978C10.8991 14.4964 10.9998 14.2498 10.9998 13.9582C10.9998 13.6665 10.8991 13.42 10.6978 13.2186C10.4964 13.0172 10.2498 12.9165 9.95817 12.9165C9.6665 12.9165 9.41998 13.0172 9.21859 13.2186C9.0172 13.42 8.9165 13.6665 8.9165 13.9582C8.9165 14.2498 9.0172 14.4964 9.21859 14.6978C9.41998 14.8991 9.6665 14.9998 9.95817 14.9998ZM9.20817 11.7915H10.7498C10.7498 11.3332 10.8019 10.9721 10.9061 10.7082C11.0103 10.4443 11.3054 10.0832 11.7915 9.62484C12.1526 9.26373 12.4373 8.91998 12.6457 8.59359C12.854 8.2672 12.9582 7.87484 12.9582 7.4165C12.9582 6.63873 12.6734 6.0415 12.104 5.62484C11.5346 5.20817 10.8609 4.99984 10.0832 4.99984C9.2915 4.99984 8.64914 5.20817 8.15609 5.62484C7.66303 6.0415 7.31928 6.5415 7.12484 7.12484L8.49984 7.6665C8.56928 7.4165 8.72553 7.14567 8.96859 6.854C9.21164 6.56234 9.58317 6.4165 10.0832 6.4165C10.5276 6.4165 10.8609 6.53803 11.0832 6.78109C11.3054 7.02414 11.4165 7.2915 11.4165 7.58317C11.4165 7.86095 11.3332 8.12137 11.1665 8.36442C10.9998 8.60748 10.7915 8.83317 10.5415 9.0415C9.93039 9.58317 9.55539 9.99289 9.4165 10.2707C9.27762 10.5484 9.20817 11.0554 9.20817 11.7915ZM9.99984 18.3332C8.84706 18.3332 7.76373 18.1144 6.74984 17.6769C5.73595 17.2394 4.854 16.6457 4.104 15.8957C3.354 15.1457 2.76025 14.2637 2.32275 13.2498C1.88525 12.2359 1.6665 11.1526 1.6665 9.99984C1.6665 8.84706 1.88525 7.76373 2.32275 6.74984C2.76025 5.73595 3.354 4.854 4.104 4.104C4.854 3.354 5.73595 2.76025 6.74984 2.32275C7.76373 1.88525 8.84706 1.6665 9.99984 1.6665C11.1526 1.6665 12.2359 1.88525 13.2498 2.32275C14.2637 2.76025 15.1457 3.354 15.8957 4.104C16.6457 4.854 17.2394 5.73595 17.6769 6.74984C18.1144 7.76373 18.3332 8.84706 18.3332 9.99984C18.3332 11.1526 18.1144 12.2359 17.6769 13.2498C17.2394 14.2637 16.6457 15.1457 15.8957 15.8957C15.1457 16.6457 14.2637 17.2394 13.2498 17.6769C12.2359 18.1144 11.1526 18.3332 9.99984 18.3332ZM9.99984 16.6665C11.8609 16.6665 13.4373 16.0207 14.729 14.729C16.0207 13.4373 16.6665 11.8609 16.6665 9.99984C16.6665 8.13873 16.0207 6.56234 14.729 5.27067C13.4373 3.979 11.8609 3.33317 9.99984 3.33317C8.13873 3.33317 6.56234 3.979 5.27067 5.27067C3.979 6.56234 3.33317 8.13873 3.33317 9.99984C3.33317 11.8609 3.979 13.4373 5.27067 14.729C6.56234 16.0207 8.13873 16.6665 9.99984 16.6665Z" fill="#2563EB" style="fill:#2563EB;fill:color(display-p3 0.1451 0.3882 0.9216);fill-opacity:1;"/>
</g>
</svg>
