<svg width="24" height="24" viewBox="0 0 24 24" fill="none" xmlns="http://www.w3.org/2000/svg">
<g id="goal 1" clip-path="url(#clip0_4130_1114)">
<g id="Page-1">
<g id="036---Net-and-Sticks">
<path id="Shape" d="M20.0334 11.5865L22.2236 9.39634C22.3851 9.23476 22.3851 8.97282 22.2236 8.81124L20.0334 6.62103L22.1023 4.55207C22.2643 4.39049 22.2645 4.12826 22.103 3.96634C21.9414 3.80443 21.6792 3.80415 21.5172 3.96572L19.4483 6.03469L18.0857 4.67207C17.9233 4.51525 17.6652 4.51749 17.5056 4.67711C17.346 4.83672 17.3437 5.09481 17.5005 5.25717L21.3459 9.10379L19.4483 11.0014L16.2236 7.77675C16.0612 7.61994 15.8031 7.62218 15.6435 7.7818C15.4839 7.94141 15.4817 8.19949 15.6385 8.36186L18.8632 11.5865L16.9655 13.4842L14.5684 11.0871L14.3615 10.8802L12.5851 9.10379L18.0857 3.60324C18.2425 3.44087 18.2402 3.18279 18.0806 3.02317C17.921 2.86356 17.6629 2.86132 17.5005 3.01813L14.4828 6.03593L12.2925 3.84572C12.131 3.68418 11.869 3.68418 11.7074 3.84572L9.51724 6.03593L6.70634 3.22503C6.54398 3.06821 6.28589 3.07046 6.12628 3.23007C5.96666 3.38969 5.96442 3.64777 6.12124 3.81013L11.4149 9.10379L9.63848 10.8802C9.56087 10.9578 9.51726 11.063 9.51724 11.1728C9.4075 11.1728 9.30227 11.2164 9.22469 11.294L7.03448 13.4842L5.13682 11.5865L8.15462 8.56876C8.31143 8.40639 8.30919 8.14831 8.14958 7.98869C7.98996 7.82908 7.73188 7.82683 7.56951 7.98365L4.55172 11.0014L2.65407 9.10379L6.29255 5.46531C6.44936 5.30294 6.44712 5.04486 6.28751 4.88524C6.12789 4.72563 5.86981 4.72339 5.70744 4.8802L4.55172 6.03593L1.94772 3.43193C1.78536 3.27511 1.52727 3.27735 1.36766 3.43697C1.20804 3.59658 1.2058 3.85467 1.36262 4.01703L3.96662 6.62103L1.77641 8.81124C1.61487 8.97282 1.61487 9.23476 1.77641 9.39634L3.96662 11.5865L1.77641 13.7768C1.61487 13.9383 1.61487 14.2003 1.77641 14.3619L4.25917 16.8446C4.42075 17.0062 4.68269 17.0062 4.84427 16.8446L7.03448 14.6544L9.22469 16.8446C9.38705 17.0014 9.64513 16.9992 9.80475 16.8396C9.96436 16.68 9.96661 16.4219 9.80979 16.2595L7.61958 14.0693L9.80979 11.8791C9.8874 11.8015 9.93101 11.6963 9.93103 11.5865C10.0408 11.5865 10.146 11.5429 10.2236 11.4653L12 9.68889L13.7764 11.4653L13.9833 11.6722L16.3804 14.0693L14.1902 16.2595C14.0826 16.3634 14.0395 16.5173 14.0774 16.6619C14.1152 16.8066 14.2282 16.9196 14.3729 16.9575C14.5176 16.9953 14.6714 16.9522 14.7753 16.8446L16.9655 14.6544L19.1557 16.8446C19.3173 17.0062 19.5792 17.0062 19.7408 16.8446L22.2236 14.3619C22.3851 14.2003 22.3851 13.9383 22.2236 13.7768L20.0334 11.5865ZM4.55172 15.967L2.65407 14.0693L4.55172 12.1717L6.44938 14.0693L4.55172 15.967ZM12 4.72338L13.8977 6.62103L12 8.51869L10.1023 6.62103L12 4.72338ZM19.4483 12.1717L21.3459 14.0693L19.4483 15.967L17.5506 14.0693L19.4483 12.1717Z" fill="#BDC3C7" style="fill:#BDC3C7;fill:color(display-p3 0.7412 0.7647 0.7804);fill-opacity:1;"/>
<path id="Path" fill-rule="evenodd" clip-rule="evenodd" d="M21.931 16.9658H2.06894C1.84041 16.9658 1.65515 16.7806 1.65515 16.552C1.65515 16.3235 1.84041 16.1382 2.06894 16.1382H21.931C22.1595 16.1382 22.3448 16.3235 22.3448 16.552C22.3448 16.7806 22.1595 16.9658 21.931 16.9658Z" fill="#802F34" style="fill:#802F34;fill:color(display-p3 0.5020 0.1843 0.2039);fill-opacity:1;"/>
<path id="Path_2" fill-rule="evenodd" clip-rule="evenodd" d="M4.86209 4.13827H2.48278C2.3727 4.13715 2.2668 4.18038 2.18895 4.25823C2.11111 4.33607 2.06787 4.44198 2.06899 4.55206V18.621C2.06899 19.0781 1.69847 19.4486 1.2414 19.4486C0.784341 19.4486 0.413818 19.0781 0.413818 18.621V4.55206C0.413818 3.4094 1.34013 2.48309 2.48278 2.48309H21.5173C22.6599 2.48309 23.5862 3.4094 23.5862 4.55206V18.621C23.5862 19.0781 23.2157 19.4486 22.7586 19.4486C22.3016 19.4486 21.9311 19.0781 21.9311 18.621V4.55206C21.9322 4.44198 21.8889 4.33607 21.8111 4.25823C21.7332 4.18038 21.6273 4.13715 21.5173 4.13827H4.86209Z" fill="#E64C3C" style="fill:#E64C3C;fill:color(display-p3 0.9020 0.2980 0.2353);fill-opacity:1;"/>
<path id="Path_3" fill-rule="evenodd" clip-rule="evenodd" d="M19.8621 21.2983L20.3793 22.7358L19.8621 23.9921L18.36 23.9962H17.5862L16.1379 24.0004C15.6692 24.0005 15.2389 23.7408 15.0207 23.3259L14.4041 22.1673L14.0648 21.5217L12 17.6197L12.2739 16.0096L13.2786 15.2031L13.4772 15.5466L14.0566 16.5521L16.8662 21.4142L19.8621 21.2983Z" fill="#E57E25" style="fill:#E57E25;fill:color(display-p3 0.8980 0.4941 0.1451);fill-opacity:1;"/>
<path id="Path_4" fill-rule="evenodd" clip-rule="evenodd" d="M12 12.9893L11.7484 14.3755L10.7214 15.2031L9.05377 12.05L8.00688 10.0762L7.33239 8.80585L5.61515 5.55758L4.86205 4.13827L3.98894 2.4831L3.30619 1.1962C3.09902 0.803846 3.24445 0.317853 3.63308 0.103787C4.01961 -0.113082 4.50869 0.0216439 4.72963 0.405856L5.92963 2.4831L6.8855 4.13827L6.93929 4.23344L8.75998 7.37827L10.5765 10.5272L12 12.9893Z" fill="#E57E25" style="fill:#E57E25;fill:color(display-p3 0.8980 0.4941 0.1451);fill-opacity:1;"/>
<path id="Path_5" fill-rule="evenodd" clip-rule="evenodd" d="M20.6938 1.1962L13.2786 15.2031L12 17.6196L9.93514 21.5217L9.59583 22.1672L8.97928 23.3259C8.76103 23.7407 8.33082 24.0004 7.86204 24.0003L6.41376 23.9962H5.63997L4.1379 23.9921L3.51721 22.461L4.1379 21.2983L7.13376 21.4141L10.7214 15.2031L12 12.9893L19.2703 0.405856C19.4913 0.0216439 19.9803 -0.113082 20.3669 0.103787C20.7555 0.317853 20.9009 0.803846 20.6938 1.1962Z" fill="#F29C1F" style="fill:#F29C1F;fill:color(display-p3 0.9490 0.6118 0.1216);fill-opacity:1;"/>
<path id="Path_6" fill-rule="evenodd" clip-rule="evenodd" d="M21.931 21.2155L22.1379 22.7283L21.931 23.9879L19.8621 23.9921V21.2983L21.931 21.2155Z" fill="#E64C3C" style="fill:#E64C3C;fill:color(display-p3 0.9020 0.2980 0.2353);fill-opacity:1;"/>
<path id="Path_7" fill-rule="evenodd" clip-rule="evenodd" d="M23.3752 23.7562C23.1324 23.9124 22.8487 23.993 22.56 23.9879H21.931V21.2155L22.5476 21.1907H22.5807C23.1489 21.1712 23.6698 21.5058 23.8883 22.0307C24.1558 22.6543 23.94 23.38 23.3752 23.7562Z" fill="#A56A43" style="fill:#A56A43;fill:color(display-p3 0.6471 0.4157 0.2627);fill-opacity:1;"/>
<path id="Path_8" fill-rule="evenodd" clip-rule="evenodd" d="M4.13792 21.2983V23.9921L2.06896 23.9879L1.86206 22.6365L2.06896 21.2155L4.13792 21.2983Z" fill="#E64C3C" style="fill:#E64C3C;fill:color(display-p3 0.9020 0.2980 0.2353);fill-opacity:1;"/>
<path id="Path_9" fill-rule="evenodd" clip-rule="evenodd" d="M2.06898 21.2155V23.9879H1.44001C1.15135 23.993 0.867654 23.9124 0.624841 23.7562C0.0600538 23.38 -0.155744 22.6543 0.111737 22.0307C0.330215 21.5058 0.851089 21.1712 1.41932 21.1907H1.45243L2.06898 21.2155Z" fill="#A56A43" style="fill:#A56A43;fill:color(display-p3 0.6471 0.4157 0.2627);fill-opacity:1;"/>
</g>
</g>
</g>
<defs>
<clipPath id="clip0_4130_1114">
<rect width="24" height="24" fill="white" style="fill:white;fill-opacity:1;" transform="translate(0 0.000366211)"/>
</clipPath>
</defs>
</svg>
