<svg width="20" height="20" viewBox="0 0 20 20" fill="none" xmlns="http://www.w3.org/2000/svg">
<g clip-path="url(#clip0_4130_657)">
<path d="M10 0.000335693C9.78598 0.000335693 9.57352 0.00705444 9.36281 0.0202966L1.03723 5.56038C0.373281 6.89811 0 8.40565 0 10.0003C0 12.9252 1.25566 15.5567 3.25738 17.3853C3.25738 17.3853 6.51637 19.627 10 19.627C14.6611 19.627 19.5098 15.5232 19.5098 10.0003C19.5098 3.45194 13.2794 0.550453 13.2794 0.550453C12.2521 0.194008 11.1486 0.000335693 10 0.000335693Z" fill="#008CDF" style="fill:#008CDF;fill:color(display-p3 0.0000 0.5490 0.8745);fill-opacity:1;"/>
<path d="M19.902 8.59557L17.4777 8.31885C17.4777 13.8417 13.0006 18.3188 7.47771 18.3188C5.96939 18.3188 4.53979 17.9833 3.25732 17.3853C4.03373 18.0946 4.9224 18.6831 5.89357 19.121L6.4824 19.0882L7.22908 19.6113C8.10896 19.8646 9.03861 20.0003 9.99998 20.0003C15.5228 20.0003 20 15.5232 20 10.0003C20 9.5235 19.9666 9.05451 19.902 8.59557Z" fill="#0069D0" style="fill:#0069D0;fill:color(display-p3 0.0000 0.4118 0.8157);fill-opacity:1;"/>
<path d="M14.231 0.936617C13.9221 0.792242 13.6046 0.66318 13.2794 0.550446L12.395 1.32826C12.1528 1.53537 12.0949 1.89263 12.273 2.16935C12.4443 2.43537 12.7906 2.52818 13.0821 2.40509L13.261 2.32947C13.4808 2.23666 13.7383 2.27025 13.9165 2.42896C14.2315 2.70951 14.1766 3.20533 13.8232 3.41443L11.7463 4.64338C11.3406 4.88341 11.083 5.31978 11.0914 5.79107C11.1002 6.2806 11.3745 6.67931 11.9257 6.73009C13.0664 6.83517 12.9022 5.62658 13.5722 5.62658H15.8701C16.2199 5.62658 16.5232 5.8881 16.5535 6.23658C16.588 6.63361 16.276 6.96654 15.8861 6.96654H13.1306C12.0589 6.96654 11.1243 7.79244 11.0921 8.86373C11.0588 9.97224 11.9475 10.8813 13.0486 10.8813H13.3288C13.8633 10.8813 14.2965 11.3146 14.2965 11.849V15.2881C14.2965 15.3901 14.3145 15.4908 14.3482 15.5847L15.1575 15.5673L17.6773 11.4695L18.0012 9.12095L18.8226 7.93154C18.8227 7.93158 17.2347 2.34064 14.231 0.936617Z" fill="#98DB7C" style="fill:#98DB7C;fill:color(display-p3 0.5961 0.8588 0.4863);fill-opacity:1;"/>
<path d="M19.9021 8.59557C19.4246 5.19576 17.2303 2.34193 14.231 0.936661C16.2242 2.76471 17.4778 5.40111 17.4778 8.31885C17.4778 11.1824 16.2772 13.7617 14.3482 15.5847C14.4664 15.9226 14.8017 16.1572 15.1914 16.1015C15.44 16.066 15.651 15.8988 15.7748 15.6804L18.1615 11.472C18.3728 11.0994 18.4272 10.6581 18.3128 10.2454L18.1278 9.57795C18.0669 9.35861 18.2463 9.14697 18.4726 9.171L18.6043 9.18494C18.9585 9.22252 19.3124 9.11068 19.5808 8.87639L19.9021 8.59557Z" fill="#77CC7D" style="fill:#77CC7D;fill:color(display-p3 0.4667 0.8000 0.4902);fill-opacity:1;"/>
<path d="M9.90665 0.884435L9.36282 0.0202942C5.70516 0.249747 2.58344 2.44322 1.03723 5.56037L1.66739 9.91365C1.73809 10.4023 2.02872 10.8316 2.4561 11.0788C2.70196 11.221 2.80954 11.5197 2.71083 11.786L2.49567 12.3665C2.30208 12.8887 2.46547 13.4762 2.90086 13.8236L3.47543 14.282C3.67196 14.4388 3.82915 14.6394 3.93438 14.8677L5.42739 18.1076L6.30004 18.7234L6.91625 18.3032L6.69278 17.3693C6.56672 16.8425 6.63426 16.2879 6.88305 15.8067L7.85211 13.9326C8.11903 13.4164 7.87403 12.7831 7.32918 12.5809L6.53305 12.2854C6.28016 12.1916 6.11239 11.9503 6.11239 11.6806V11.6185C6.11239 11.2621 5.82352 10.9733 5.46723 10.9733H4.08321C3.74403 10.9733 3.41086 10.8842 3.11696 10.7149L2.77934 10.5204C2.5229 10.3726 2.34844 10.1153 2.3061 9.8224L2.28454 9.67318C2.23024 9.29779 2.40032 8.92529 2.7195 8.72033L2.9179 8.59295C3.15825 8.43865 3.47145 8.46072 3.68778 8.64721L3.86461 8.79967C4.07993 8.98529 4.41543 8.87529 4.47903 8.59818L4.66762 7.77643C4.76813 7.33861 5.08907 6.98455 5.51501 6.8417L6.90688 6.3749C7.30438 6.24158 7.47114 5.77053 7.24606 5.41686L6.61333 4.4226C6.43946 4.1494 6.09 4.0474 5.79645 4.1842L5.27391 4.42775C5.00364 4.55377 4.66688 4.49975 4.48446 4.26385C4.24911 3.95955 4.34368 3.52236 4.67571 3.3401L5.98895 2.61908C6.42458 2.3799 6.97055 2.50955 7.25211 2.91904L7.37415 3.0965C7.55458 3.35912 7.85282 3.51596 8.17145 3.51596H8.76239C9.15415 3.51596 9.50723 3.27979 9.6568 2.91775L10.0085 2.06654C10.1684 1.67932 10.1305 1.23858 9.90665 0.884435Z" fill="#98DB7C" style="fill:#98DB7C;fill:color(display-p3 0.5961 0.8588 0.4863);fill-opacity:1;"/>
<path d="M5.89362 19.1211C6.32362 19.3151 6.76928 19.479 7.22909 19.6114L6.9162 18.3032C6.40791 18.275 5.91249 18.2092 5.42737 18.1076L5.89362 19.1211Z" fill="#77CC7D" style="fill:#77CC7D;fill:color(display-p3 0.4667 0.8000 0.4902);fill-opacity:1;"/>
</g>
<defs>
<clipPath id="clip0_4130_657">
<rect width="20" height="20" fill="white" style="fill:white;fill-opacity:1;" transform="translate(0 0.000335693)"/>
</clipPath>
</defs>
</svg>
