<svg width="16" height="16" viewBox="0 0 16 16" fill="none" xmlns="http://www.w3.org/2000/svg">
<g clip-path="url(#clip0_2028_18768)">
<path d="M3.74647 13.3458L3.74689 13.3461C4.68953 14.1322 5.79958 14.5864 7.03702 14.7718C7.11975 14.7829 7.20289 14.7933 7.28869 14.804L7.28992 14.8041C7.36503 14.8135 7.4422 14.8232 7.51989 14.8335H8.47548C8.57398 14.8186 8.66502 14.806 8.75278 14.7938C8.90613 14.7725 9.04945 14.7526 9.20501 14.7247L9.20732 14.7242C10.5048 14.4976 11.6344 13.9349 12.6052 13.0451L3.74647 13.3458ZM3.74647 13.3458C3.35928 13.0236 3.01585 12.6851 2.71606 12.3301H2.90334H5.04667H5.48397L5.54222 11.8967C5.61344 11.3668 5.68417 10.8377 5.75507 10.3074C5.80562 9.92923 5.85625 9.55046 5.90721 9.17028C6.14208 9.68215 6.37663 10.1942 6.61114 10.7062C6.75147 11.0126 6.89178 11.3189 7.03214 11.6251L7.03302 11.627C7.03867 11.6392 7.0462 11.6583 7.05969 11.6958C7.06144 11.7007 7.06339 11.7061 7.0655 11.712C7.0766 11.7431 7.09222 11.7869 7.10877 11.8277C7.14016 11.9051 7.22399 12.1085 7.425 12.2341L7.42726 12.2355C7.62147 12.3555 7.83384 12.35 7.91566 12.3479L7.91622 12.3479C7.94616 12.3471 7.98923 12.3449 8.01907 12.3434C8.03141 12.3428 8.04149 12.3423 8.04744 12.342C8.0828 12.3406 8.09771 12.3411 8.10336 12.3416L8.10397 12.3416C8.22405 12.3519 8.39043 12.3428 8.55167 12.242C8.70652 12.1453 8.78762 12.0065 8.83287 11.9048C9.24857 10.9894 9.66866 10.074 10.0895 9.15898C10.2147 10.0787 10.3386 10.989 10.4612 11.897L10.5196 12.3301H10.9567H13.09H13.2892M3.74647 13.3458L13.2892 12.3301M13.2892 12.3301C13.0814 12.5792 12.8533 12.8174 12.6055 13.0449L13.2892 12.3301ZM1.24865 6.90843L1.24877 6.90757C1.40918 5.72915 1.88295 4.66627 2.64746 3.74687C4.35655 1.69993 6.51678 0.870674 9.14934 1.26462L9.14941 1.26463C10.679 1.49329 11.9727 2.21333 13.0194 3.3691C14.5293 5.03825 15.092 6.98413 14.7234 9.20149L14.7234 9.20191C14.5565 10.2114 14.1795 11.1154 13.6085 11.9167L13.5845 11.7562C13.2013 9.19398 12.8182 6.6418 12.4351 4.08979L12.4345 4.08589L12.3782 3.71101L12.0117 3.6652C12.0106 3.66497 12.0093 3.6647 12.0078 3.66439L12.0065 3.6641C11.9904 3.66075 11.9397 3.65013 11.8767 3.65013C11.2198 3.65013 10.5677 3.65013 9.91254 3.64679H9.91001C9.75041 3.64679 9.58431 3.70111 9.4557 3.83496C9.36554 3.92881 9.32045 4.04137 9.31069 4.06572C9.31033 4.06662 9.31002 4.06739 9.30976 4.06805C8.96047 4.87307 8.61134 5.67438 8.25898 6.47549L8.25827 6.47712C8.17143 6.67648 8.08414 6.87734 7.99626 7.07969C7.56179 6.07921 7.12795 5.07867 6.69612 4.07622C6.66087 3.99402 6.593 3.86303 6.45331 3.76466C6.30788 3.66224 6.15453 3.64346 6.04667 3.64346V3.64343L6.04121 3.64349C5.6379 3.6479 5.23613 3.64643 4.83065 3.64495C4.62605 3.64421 4.42051 3.64346 4.21334 3.64346C4.15302 3.64346 4.09098 3.64738 4.04448 3.65032C4.04024 3.65059 4.03612 3.65085 4.03215 3.6511L3.62916 3.67629L3.56893 4.07555C3.37565 5.35689 3.18236 6.63575 2.98906 7.91469L2.98895 7.91541L2.98888 7.9159C2.79557 9.19489 2.60225 10.474 2.40893 11.7555L2.3859 11.9082C1.36106 10.4902 0.984196 8.82632 1.24865 6.90843Z" fill="#E8AA3B" stroke="#E8AA3B" style="fill:#E8AA3B;fill:color(display-p3 0.9098 0.6667 0.2314);fill-opacity:1;stroke:#E8AA3B;stroke:color(display-p3 0.9098 0.6667 0.2314);stroke-opacity:1;"/>
</g>
<defs>
<clipPath id="clip0_2028_18768">
<rect width="16" height="16" fill="white" style="fill:white;fill-opacity:1;"/>
</clipPath>
</defs>
</svg>
