<svg width="20" height="20" viewBox="0 0 20 20" fill="none" xmlns="http://www.w3.org/2000/svg">
<path d="M9.18995 14.7364C12.7052 14.7364 15.555 11.8867 15.555 8.37137C15.555 4.85608 12.7052 2.00637 9.18995 2.00637C5.67466 2.00637 2.82495 4.85608 2.82495 8.37137C2.82495 11.8867 5.67466 14.7364 9.18995 14.7364Z" fill="#FF8D5C" style="fill:#FF8D5C;fill:color(display-p3 1.0000 0.5529 0.3608);fill-opacity:1;"/>
<path d="M11.2502 2.34742C11.6345 3.47403 11.6953 4.6858 11.4259 5.84525C11.1564 7.0047 10.5675 8.06544 9.72575 8.90715C8.88404 9.74885 7.8233 10.3378 6.66384 10.6073C5.50439 10.8767 4.29263 10.8159 3.16602 10.4316C3.51596 11.4542 4.1205 12.3708 4.92268 13.0952C5.72485 13.8195 6.69825 14.3277 7.75113 14.5719C8.80402 14.816 9.90173 14.788 10.9408 14.4906C11.9799 14.1932 12.9262 13.6361 13.6904 12.8718C14.4547 12.1076 15.0118 11.1613 15.3092 10.1222C15.6066 9.08314 15.6346 7.98543 15.3905 6.93254C15.1463 5.87965 14.6381 4.90626 13.9138 4.10408C13.1894 3.30191 12.2728 2.69736 11.2502 2.34742Z" fill="#FF774D" style="fill:#FF774D;fill:color(display-p3 1.0000 0.4667 0.3020);fill-opacity:1;"/>
<path d="M14.4615 11.9393C15.3199 8.3386 13.6663 6.46105 12.5988 5.17754C12.1989 4.69678 11.8449 4.27047 11.6382 3.84632C12.8271 3.90635 13.7049 4.34292 14.4644 4.8077C14.2761 4.52975 14.0662 4.26706 13.8366 4.02208C13.115 3.68055 12.3578 3.46505 11.4898 3.44356C11.4126 3.11533 11.4256 2.7723 11.5277 2.45091L11.5282 2.44967C11.4074 2.40195 11.2848 2.35799 11.1605 2.3178C11.0405 2.68202 11.0164 3.07103 11.0906 3.44727C10.4893 3.47819 9.89382 3.58025 9.31655 3.75131C8.62216 2.89495 7.9743 2.38564 7.6929 2.18391C7.52474 2.22445 7.3593 2.27155 7.19655 2.32521L7.33866 2.41459C7.3473 2.42 8.08488 2.89057 8.91254 3.87578C8.50844 4.00898 7.90939 4.20375 7.008 4.79531C6.13622 4.0043 5.11672 3.97188 4.52596 4.04063C4.3842 4.19323 4.25003 4.35259 4.12345 4.51871L4.15289 4.50943C4.16754 4.50489 5.55924 4.08209 6.67655 5.02439C4.43696 6.64905 3.51395 8.96128 3.1925 10.507C3.27462 10.7375 3.37005 10.9632 3.47831 11.1827C3.52024 10.7811 3.95586 7.44595 6.95881 5.30283C7.48545 5.927 7.32272 6.58512 7.06373 7.63241C6.69611 9.11913 6.19454 11.1483 7.34868 14.4655C7.49868 14.5108 7.65093 14.5506 7.80543 14.5849C6.62688 11.2873 7.02224 9.42743 7.44293 7.72617C7.69973 6.68768 7.90588 5.85152 7.28309 5.08301C8.15702 4.52001 8.76328 4.3313 9.17552 4.20315C11.1551 6.78284 11.2698 9.55819 11.2127 11.1481L11.603 11.1621C11.6524 9.78793 11.6347 6.85652 9.57779 4.08756C10.11 3.9426 10.6573 3.85996 11.2086 3.84131C11.4213 4.37208 11.8302 4.86425 12.2985 5.42732C13.5029 6.8755 15.0018 8.67782 13.9609 12.3077L14.4615 11.9393Z" fill="#414344" style="fill:#414344;fill:color(display-p3 0.2549 0.2627 0.2667);fill-opacity:1;"/>
<path d="M17.9471 13.1516C18.0699 12.8001 18.1642 12.4393 18.2291 12.0727C18.2543 11.9274 18.2378 11.7779 18.1813 11.6416C18.1249 11.5053 18.0309 11.3879 17.9103 11.303C17.6051 11.0896 17.2832 10.9011 16.9478 10.7393L17.181 11.9454L17.9471 13.1516Z" fill="#B56959" style="fill:#B56959;fill:color(display-p3 0.7098 0.4118 0.3490);fill-opacity:1;"/>
<path d="M8.57835 17.5345C8.03009 17.3237 7.51086 17.044 7.03316 16.7022C6.91596 16.6176 6.8246 16.5021 6.76928 16.3686C6.71397 16.235 6.69688 16.0887 6.71994 15.9461C6.81578 15.3681 6.98457 14.8046 7.22225 14.2691L8.2328 15.9018L8.57835 17.5345Z" fill="#A85B4A" style="fill:#A85B4A;fill:color(display-p3 0.6588 0.3569 0.2902);fill-opacity:1;"/>
<path d="M9.65947 17.8535C10.8083 18.0918 12.2376 18.0768 13.8572 17.4059C15.7458 16.6236 16.831 15.3896 17.4539 14.2597L16.9477 12.1123L15.8172 10.3051C14.5777 9.94631 12.9371 9.84068 11.0477 10.6233C9.42798 11.2942 8.40663 12.2943 7.76282 13.2752L8.44091 15.6729L9.65947 17.8535Z" fill="#B56959" style="fill:#B56959;fill:color(display-p3 0.7098 0.4118 0.3490);fill-opacity:1;"/>
<path d="M14.0888 16.6389C12.788 16.6389 11.5388 16.1298 10.6084 15.2206C9.67807 14.3114 9.14044 13.0743 9.11052 11.7738C8.58836 12.2036 8.13402 12.7098 7.76282 13.2752L8.44091 15.6729L9.65946 17.8535C10.8083 18.0918 12.2376 18.0767 13.8572 17.4059C14.4842 17.1496 15.0747 16.8116 15.6134 16.4008C15.1207 16.559 14.6063 16.6393 14.0888 16.6389Z" fill="#A85B4A" style="fill:#A85B4A;fill:color(display-p3 0.6588 0.3569 0.2902);fill-opacity:1;"/>
<path d="M15.8154 10.3049L17.4536 14.2597C17.6491 13.9048 17.8142 13.5339 17.9471 13.1512L16.9483 10.7398C16.5836 10.5631 16.2046 10.4176 15.8154 10.3049Z" fill="#F2F2FF" style="fill:#F2F2FF;fill:color(display-p3 0.9490 0.9490 1.0000);fill-opacity:1;"/>
<path d="M15.0393 11.4175C14.613 11.4874 14.1808 11.5814 13.7428 11.6992L13.6148 11.3901C13.5159 11.1515 13.1549 11.3007 13.2539 11.5395L13.3644 11.8063C12.9062 11.9426 12.4446 12.1039 11.9796 12.2901L11.873 12.0328C11.774 11.7937 11.4133 11.9438 11.5121 12.1822L11.6187 12.4395C11.1592 12.636 10.7188 12.8483 10.2973 13.0766L10.1869 12.8099C10.0878 12.5707 9.72734 12.7212 9.82599 12.9594L9.95393 13.2683C9.69302 13.4187 9.44116 13.5749 9.19834 13.7368C8.98072 13.8819 9.20293 14.2034 9.41509 14.0617C9.63684 13.9138 9.86675 13.7708 10.1048 13.6325L10.2516 13.9869C10.3504 14.2254 10.7119 14.0773 10.6125 13.8375L10.4476 13.4394C10.8671 13.2108 11.3072 12.9978 11.7682 12.8004L11.9377 13.2098C12.0365 13.4482 12.398 13.3001 12.2986 13.0603L12.1291 12.651C12.594 12.4648 13.0559 12.3041 13.5146 12.169L13.6795 12.5671C13.7784 12.8057 14.1397 12.6573 14.0404 12.4176L13.8936 12.0632C14.3015 11.9553 14.7044 11.8685 15.1026 11.8029C15.3574 11.7611 15.2947 11.3757 15.0393 11.4175Z" fill="#F2F2FF" style="fill:#F2F2FF;fill:color(display-p3 0.9490 0.9490 1.0000);fill-opacity:1;"/>
<path d="M8.5739 17.5326C8.92634 17.669 9.28939 17.7762 9.65941 17.8531L7.76318 13.2752C7.55592 13.5913 7.37502 13.9238 7.22229 14.2695L8.5739 17.5326Z" fill="#CCCCF0" style="fill:#CCCCF0;fill:color(display-p3 0.8000 0.8000 0.9412);fill-opacity:1;"/>
<path d="M4.85125 17.2579C6.35752 17.2579 7.57859 16.0368 7.57859 14.5305C7.57859 13.0242 6.35752 11.8032 4.85125 11.8032C3.34497 11.8032 2.1239 13.0242 2.1239 14.5305C2.1239 16.0368 3.34497 17.2579 4.85125 17.2579Z" fill="#F2F2FF" style="fill:#F2F2FF;fill:color(display-p3 0.9490 0.9490 1.0000);fill-opacity:1;"/>
<path d="M6.07939 12.0946C5.96217 13.0199 5.51391 13.8715 4.81748 14.4919C4.12105 15.1124 3.22355 15.4597 2.29089 15.4697C2.44412 15.8871 2.69708 16.2608 3.02775 16.5581C3.35842 16.8554 3.75676 17.0673 4.18808 17.1754C4.6194 17.2835 5.07061 17.2846 5.50242 17.1784C5.93422 17.0723 6.33352 16.8621 6.66554 16.5663C6.99756 16.2706 7.25222 15.8981 7.40734 15.4813C7.56247 15.0646 7.61335 14.6163 7.55556 14.1754C7.49777 13.7345 7.33306 13.3144 7.07577 12.9517C6.81848 12.5891 6.47642 12.2948 6.07939 12.0946Z" fill="#E6E6FF" style="fill:#E6E6FF;fill:color(display-p3 0.9020 0.9020 1.0000);fill-opacity:1;"/>
<path d="M6.85886 12.6855C6.7083 12.8679 6.57743 13.0657 6.46842 13.2756L6.24725 13.0559C6.06387 12.8736 5.78872 13.151 5.97194 13.333L6.28765 13.6466C6.17149 13.9122 6.07585 14.1862 6.00155 14.4664L5.66536 14.4277C5.40883 14.3978 5.36374 14.7862 5.62065 14.8157L5.91273 14.8494C5.85352 15.1479 5.81535 15.4501 5.79851 15.754L5.49532 15.8455C5.24701 15.9204 5.3616 16.294 5.60815 16.2195L5.78751 16.1653C5.78958 16.468 5.80818 16.7704 5.84323 17.0711C5.97242 17.0207 6.09758 16.9604 6.21762 16.891C6.18807 16.6106 6.17568 16.3287 6.18051 16.0468L6.59726 15.921C6.8451 15.8462 6.7312 15.4724 6.48442 15.547L6.20083 15.6326C6.2209 15.3847 6.25616 15.1383 6.30643 14.8947L6.63317 14.9323C6.88976 14.962 6.93477 14.5738 6.67788 14.5443L6.39923 14.5122C6.4527 14.3207 6.51662 14.1322 6.5907 13.9476L6.72288 14.0789C6.90388 14.2589 7.18367 13.986 6.99818 13.8018L6.762 13.5672C6.85891 13.3675 6.9747 13.1776 7.10779 12.9999C7.0326 12.8892 6.9494 12.7841 6.85886 12.6855Z" fill="#FF596D" style="fill:#FF596D;fill:color(display-p3 1.0000 0.3490 0.4275);fill-opacity:1;"/>
<path d="M3.21125 13.157L2.92626 13.3328C2.7042 13.4698 2.91372 13.7994 3.13134 13.6653L3.29197 13.5662C3.32228 13.7633 3.34168 13.9618 3.35007 14.161L3.06941 14.1287C2.81289 14.0992 2.76784 14.4872 3.02469 14.5167L3.35326 14.5546C3.34664 14.8033 3.32472 15.0515 3.28764 15.2976L3.02979 15.1492C2.80577 15.02 2.61117 15.3588 2.83489 15.4877L3.213 15.7053C3.15311 15.9808 3.07667 16.2523 2.98409 16.5185C3.08519 16.6135 3.19339 16.7006 3.30774 16.7791C3.41017 16.4942 3.49705 16.204 3.568 15.9097L3.73027 16.0031C3.95212 16.131 4.15127 15.7948 3.92517 15.6646L3.65085 15.5067C3.70366 15.207 3.73539 14.9039 3.7458 14.5998L4.03721 14.6333C4.29379 14.663 4.33881 14.2748 4.08192 14.2453L3.7461 14.2066C3.73742 13.9168 3.70656 13.6281 3.6538 13.343L4.03221 13.1096C4.25202 12.974 4.04731 12.6415 3.82714 12.7771L3.56188 12.9408C3.50331 12.7116 3.42081 12.4893 3.31574 12.2774C3.20526 12.3528 3.10044 12.4361 3.00212 12.5268C3.09193 12.7296 3.16196 12.9407 3.21125 13.157Z" fill="#FF596D" style="fill:#FF596D;fill:color(display-p3 1.0000 0.3490 0.4275);fill-opacity:1;"/>
</svg>
