<svg width="21" height="20" viewBox="0 0 21 20" fill="none" xmlns="http://www.w3.org/2000/svg">
<path d="M9.23533 19.3824C7.11769 19.1765 4.97063 18.1471 3.9118 16.2941C2.88239 14.4412 3.1471 12.0882 3.88239 10.0588L4.50004 11.8235C4.55886 12 4.6471 12.2059 4.79416 12.2941C5.02945 12.4412 5.35298 12.3235 5.52945 12.0882C5.67651 11.8529 5.70592 11.5588 5.67651 11.2941C5.58827 10.1176 4.9118 9.02941 4.88239 7.85294C4.85298 6.5 5.70592 5.2647 6.76474 4.41176C6.79416 4.88235 6.9118 5.38235 7.05886 5.82353C7.11769 6 7.23533 6.17647 7.4118 6.20588C7.52945 6.20588 7.6471 6.14706 7.73533 6.05882C8.61769 5.32353 9.1471 4.2647 9.35298 3.14706C9.44122 2.58823 9.44122 2 9.32357 1.44117C9.29416 1.32353 9.05886 0.735292 9.11769 0.647057C9.20592 0.470586 9.70592 0.852939 9.82357 0.911763C11.7647 2.14706 13.0589 4.35294 13.0883 6.64706C13.0883 7 13.1471 7.47059 13.5 7.52941C13.7059 7.55882 13.9118 7.44118 14.0295 7.2647C14.1471 7.08823 14.1471 6.88235 14.1765 6.67647C15.5589 7.91176 16.5589 9.44118 17.2353 11.1471C17.6177 12.1471 17.8824 13.2353 17.6765 14.2941C17.5 15.2647 17.0295 16.1471 16.353 16.8824C15.2353 18.1471 13.7353 19.1471 12.0589 19.3235C11.1765 19.4118 10.2353 19.4412 9.23533 19.3824Z" fill="#F95353" style="fill:#F95353;fill:color(display-p3 0.9765 0.3255 0.3255);fill-opacity:1;"/>
<path d="M14.4119 18.0294C14.353 18.2353 14.2648 18.4706 14.1766 18.6765C13.5295 19.0294 12.8236 19.2647 12.0883 19.3235C11.5295 19.3824 10.9707 19.4118 10.3825 19.4118C10.0295 19.4118 9.64716 19.4118 9.26481 19.3824C8.58834 19.3235 7.91186 19.1765 7.26481 18.9412C6.91186 18.4412 6.67657 17.8529 6.58834 17.2647C6.38245 15.9706 6.76481 14.6471 7.5001 13.5588C7.61775 13.3824 7.88245 13.4412 7.94128 13.6471C8.14716 14.3235 8.58834 14.9412 9.08834 15.4706C9.23539 15.6176 9.47069 15.5294 9.5001 15.3235C9.55892 14.6176 9.70598 13.2941 9.97069 12.5882C10.2942 11.7059 10.7942 10.8529 11.5295 10.2353C11.6766 10.1176 11.8825 10.1765 11.9119 10.3824C12.0589 11.2647 12.5001 12.0882 12.9413 12.8824C13.4707 13.7647 14.0589 14.6471 14.3236 15.6471C14.5883 16.3824 14.6177 17.2353 14.4119 18.0294Z" fill="white" style="fill:white;fill-opacity:1;"/>
<path d="M14.4119 18.0294C14.353 18.2353 14.2648 18.4706 14.1766 18.6765C13.5295 19.0294 12.8236 19.2647 12.0883 19.3235C11.5295 19.3824 10.9707 19.4118 10.3825 19.4118C10.0295 19.4118 9.64716 19.4118 9.26481 19.3824C8.58834 19.3235 7.91186 19.1765 7.26481 18.9412C6.91186 18.4412 6.67657 17.8529 6.58834 17.2647C6.38245 15.9706 6.76481 14.6471 7.5001 13.5588C7.61775 13.3824 7.88245 13.4412 7.94128 13.6471C8.14716 14.3235 8.58834 14.9412 9.08834 15.4706C9.23539 15.6176 9.47069 15.5294 9.5001 15.3235C9.55892 14.6176 9.70598 13.2941 9.97069 12.5882C10.2942 11.7059 10.7942 10.8529 11.5295 10.2353C11.6766 10.1176 11.8825 10.1765 11.9119 10.3824C12.0589 11.2647 12.5001 12.0882 12.9413 12.8824C13.4707 13.7647 14.0589 14.6471 14.3236 15.6471C14.5883 16.3824 14.6177 17.2353 14.4119 18.0294Z" fill="#FFD550" style="fill:#FFD550;fill:color(display-p3 1.0000 0.8353 0.3137);fill-opacity:1;"/>
<path d="M14.4119 18.0294C14.353 18.2353 14.2648 18.4706 14.1766 18.6765C13.5295 19.0294 12.8236 19.2647 12.0883 19.3235C11.5295 19.3824 10.9707 19.4118 10.3825 19.4118C10.0295 19.4118 9.64716 19.4118 9.26481 19.3824C8.58834 19.3235 7.91186 19.1765 7.26481 18.9412C6.91186 18.4412 6.67657 17.8529 6.58834 17.2647C6.38245 15.9706 6.76481 14.6471 7.5001 13.5588C7.61775 13.3824 7.88245 13.4412 7.94128 13.6471C8.14716 14.3235 8.58834 14.9412 9.08834 15.4706C9.23539 15.6176 9.47069 15.5294 9.5001 15.3235C9.55892 14.6176 9.70598 13.2941 9.97069 12.5882C10.2942 11.7059 10.7942 10.8529 11.5295 10.2353C11.6766 10.1176 11.8825 10.1765 11.9119 10.3824C12.0589 11.2647 12.5001 12.0882 12.9413 12.8824C13.4707 13.7647 14.0589 14.6471 14.3236 15.6471C14.5883 16.3824 14.6177 17.2353 14.4119 18.0294Z" fill="#FFD550" style="fill:#FFD550;fill:color(display-p3 1.0000 0.8353 0.3137);fill-opacity:1;"/>
</svg>
