<svg width="24" height="24" viewBox="0 0 24 24" fill="none" xmlns="http://www.w3.org/2000/svg">
<g clip-path="url(#clip0_4130_912)">
<path d="M13.1695 1.52244C10.2197 -0.302686 6.31605 -0.17828 3.45817 1.77252C2.76348 2.2467 2.12598 2.80836 1.5932 3.46058C-0.824892 6.42069 -0.206376 11.1604 1.5617 14.3129C1.79725 14.7329 2.07058 15.1334 2.3913 15.4933C2.55484 15.6768 2.73067 15.8496 2.91916 16.0075C3.36803 16.3834 3.8905 16.6933 4.4283 16.9271C5.21106 17.2673 6.05115 17.4712 6.89837 17.5638C7.13139 17.5893 7.3653 17.6063 7.59953 17.6152C7.83644 17.6242 8.10855 17.6563 8.34297 17.6171C8.34362 17.617 9.87086 17.3613 9.87086 17.3613L11.3987 17.1055C12.3584 16.8093 13.2805 16.3787 14.1021 15.7988C14.5805 15.4611 15.0315 15.0732 15.4109 14.6258C16.1013 13.8116 16.5437 12.8225 16.734 11.7728C17.3789 8.21619 16.4199 3.53352 13.1695 1.52244Z" fill="#FDD79B" style="fill:#FDD79B;fill:color(display-p3 0.9922 0.8431 0.6078);fill-opacity:1;"/>
<path d="M20.9639 18.7479C22.6407 18.7479 23.9999 17.3886 23.9999 15.7118C23.9999 14.0351 22.6407 12.6758 20.9639 12.6758C19.2871 12.6758 17.9279 14.0351 17.9279 15.7118C17.9279 17.3886 19.2871 18.7479 20.9639 18.7479Z" fill="#E2DEE2" style="fill:#E2DEE2;fill:color(display-p3 0.8863 0.8706 0.8863);fill-opacity:1;"/>
<path d="M23.9998 15.7117C23.9998 17.3884 22.6407 18.748 20.964 18.748C20.1119 18.748 19.3419 18.397 18.7911 17.8318C19.2226 18.0675 19.7172 18.2011 20.2432 18.2011C21.9199 18.2011 23.279 16.8416 23.279 15.1648C23.279 14.3396 22.9499 13.591 22.415 13.0442C23.359 13.5592 23.9998 14.5604 23.9998 15.7117Z" fill="#CBC4CC" style="fill:#CBC4CC;fill:color(display-p3 0.7961 0.7686 0.8000);fill-opacity:1;"/>
<path d="M13.1695 1.52244C10.2197 -0.302686 6.31605 -0.17828 3.45817 1.77252C2.76348 2.2467 2.12598 2.80836 1.5932 3.46058C-0.824892 6.42069 -0.206376 11.1604 1.5617 14.3129C2.02548 15.1398 2.64367 15.9021 3.46314 16.3975L9.53917 15.3803L15.6152 14.363C16.2137 13.6001 16.5648 12.7056 16.734 11.7728C17.3789 8.21619 16.4199 3.53352 13.1695 1.52244Z" fill="#FE646F" style="fill:#FE646F;fill:color(display-p3 0.9961 0.3922 0.4353);fill-opacity:1;"/>
<path d="M10.4918 17.0016C12.5271 16.2956 13.7012 15.2117 14.2419 14.5929L15.6153 14.363C15.6153 14.363 14.4199 16.1728 11.3987 17.1054L10.4918 17.0016Z" fill="#FCCD7F" style="fill:#FCCD7F;fill:color(display-p3 0.9882 0.8039 0.4980);fill-opacity:1;"/>
<path d="M16.734 11.7729C16.5648 12.7054 16.2258 13.5458 15.6153 14.363L14.2419 14.5929C14.496 14.3034 14.611 14.1152 14.611 14.1152C15.1987 13.3592 15.5028 12.4262 15.6395 11.4878C16.1614 7.91131 15.0406 3.26459 11.7226 1.36699C10.5592 0.701603 9.26342 0.332088 7.95068 0.246728C9.75954 0.131791 11.5999 0.551275 13.1697 1.52262C16.4198 3.5337 17.379 8.21632 16.734 11.7729Z" fill="#FD4755" style="fill:#FD4755;fill:color(display-p3 0.9922 0.2784 0.3333);fill-opacity:1;"/>
<path d="M11.7324 17.4666C11.5483 16.7737 10.8672 16.3346 10.1601 16.453L9.73082 16.5249L9.30158 16.5967C8.59447 16.7151 8.09352 17.3521 8.14513 18.0672L8.46393 22.483C8.5229 23.2996 9.27168 23.8885 10.0792 23.7533L10.9175 23.613L11.7558 23.4726C12.5633 23.3374 13.0795 22.5368 12.8692 21.7454L11.7324 17.4666Z" fill="#FBC56D" style="fill:#FBC56D;fill:color(display-p3 0.9843 0.7725 0.4275);fill-opacity:1;"/>
<path d="M11.7555 23.4727L10.9176 23.6129L10.0791 23.7535C9.59948 23.8335 9.14025 23.6584 8.83472 23.3316C8.91862 23.333 9.00347 23.3272 9.08929 23.3127L9.92775 23.1721L10.7662 23.0319C11.5736 22.8966 12.0896 22.096 11.8796 21.3045L10.7424 17.0259C10.6818 16.7974 10.5674 16.5967 10.4156 16.4342C11.0251 16.4449 11.5707 16.8576 11.7322 17.4667L12.8689 21.7453C13.0794 22.5368 12.5634 23.3374 11.7555 23.4727Z" fill="#E9B665" style="fill:#E9B665;fill:color(display-p3 0.9137 0.7137 0.3961);fill-opacity:1;"/>
</g>
<defs>
<clipPath id="clip0_4130_912">
<rect width="24" height="24" fill="white" style="fill:white;fill-opacity:1;" transform="translate(0 0.000366211)"/>
</clipPath>
</defs>
</svg>
