<svg width="16" height="16" viewBox="0 0 16 16" fill="none" xmlns="http://www.w3.org/2000/svg">
<path d="M3.09424 1.42387C3.37206 1.42387 3.62285 1.5358 3.80618 1.71913C3.98947 1.90237 4.10139 2.15325 4.10139 2.43296V13.567C4.10139 13.9452 4.30973 14.2751 4.61846 14.4487C4.76317 14.5298 4.93105 14.5761 5.11047 14.5761H14.3765V2.4388C14.3765 2.35005 14.3649 2.26517 14.3418 2.18405C14.2298 1.74805 13.8324 1.42387 13.3616 1.42387H3.09424Z" fill="#E9E9FF" style="fill:#E9E9FF;fill:color(display-p3 0.9137 0.9137 1.0000);fill-opacity:1;"/>
<path d="M4.10146 3.44181V2.43305C4.10146 2.15335 3.98956 1.90244 3.80629 1.71929C3.62297 1.53591 3.37218 1.424 3.09428 1.424C2.8165 1.424 2.56565 1.53591 2.38238 1.71929C2.19906 1.90244 2.08716 2.15335 2.08716 2.43305V3.44181H4.10146Z" fill="#ED524E" style="fill:#ED524E;fill:color(display-p3 0.9294 0.3216 0.3059);fill-opacity:1;"/>
<path d="M5.1106 14.5761H14.5204C15.0777 14.5761 15.5295 14.1243 15.5295 13.567V12.8069H6.11777V13.567C6.11777 13.8468 6.00587 14.0976 5.82256 14.2809C5.63928 14.4642 5.38844 14.5761 5.1106 14.5761Z" fill="#ED524E" style="fill:#ED524E;fill:color(display-p3 0.9294 0.3216 0.3059);fill-opacity:1;"/>
<path d="M5.23585 2.66905H9.2551C9.28693 2.66905 9.31273 2.69485 9.31273 2.72668V2.97408C9.31273 3.00591 9.28693 3.0317 9.2551 3.0317H5.23585C5.20402 3.0317 5.17822 3.00591 5.17822 2.97408V2.72668C5.17822 2.69485 5.20402 2.66905 5.23585 2.66905Z" fill="#CFCFFF" style="fill:#CFCFFF;fill:color(display-p3 0.8118 0.8118 1.0000);fill-opacity:1;"/>
<path d="M5.23585 3.66846H9.2551C9.28693 3.66846 9.31273 3.69426 9.31273 3.72609V3.97349C9.31273 4.00532 9.28693 4.03112 9.2551 4.03112H5.23585C5.20402 4.03112 5.17822 4.00532 5.17822 3.97349V3.72609C5.17822 3.69426 5.20402 3.66846 5.23585 3.66846Z" fill="#CFCFFF" style="fill:#CFCFFF;fill:color(display-p3 0.8118 0.8118 1.0000);fill-opacity:1;"/>
<path d="M5.23585 4.66788H6.94252C6.97435 4.66788 7.00014 4.69368 7.00014 4.72551V4.97291C7.00014 5.00474 6.97435 5.03054 6.94252 5.03054H5.23585C5.20402 5.03054 5.17822 5.00474 5.17822 4.97291V4.72551C5.17822 4.69368 5.20402 4.66788 5.23585 4.66788Z" fill="#CFCFFF" style="fill:#CFCFFF;fill:color(display-p3 0.8118 0.8118 1.0000);fill-opacity:1;"/>
<path d="M11.8166 5.23619C11.0524 5.23619 10.4307 4.61446 10.4307 3.85028C10.4307 3.0861 11.0524 2.46438 11.8166 2.46438C12.5809 2.46438 13.2026 3.0861 13.2026 3.85028C13.2026 4.61446 12.5809 5.23619 11.8166 5.23619ZM11.8166 2.78037C11.2266 2.78037 10.7468 3.26036 10.7468 3.85028C10.7468 4.44021 11.2266 4.9202 11.8166 4.9202C12.4066 4.9202 12.8865 4.44021 12.8865 3.85028C12.8865 3.26036 12.4066 2.78037 11.8166 2.78037Z" fill="#70C1F9" style="fill:#70C1F9;fill:color(display-p3 0.4392 0.7569 0.9765);fill-opacity:1;"/>
<path d="M11.8563 4.33579C11.8145 4.33579 11.7742 4.31914 11.7446 4.2895L11.2038 3.74861C11.142 3.68695 11.142 3.58687 11.2038 3.52515C11.2655 3.46354 11.3656 3.46348 11.4273 3.5252L11.8563 3.95433L13.0632 2.74752C13.1249 2.6858 13.225 2.6858 13.2867 2.74752C13.3484 2.80919 13.3484 2.90927 13.2867 2.97093L11.9681 4.2895C11.9385 4.31914 11.8982 4.33579 11.8563 4.33579Z" fill="#70C1F9" style="fill:#70C1F9;fill:color(display-p3 0.4392 0.7569 0.9765);fill-opacity:1;"/>
<path d="M9.74168 6.78547V7.06216C9.74168 7.08701 9.72153 7.10715 9.69668 7.10715H5.24079C5.21595 7.10715 5.1958 7.08701 5.1958 7.06216V6.78547C5.1958 6.76062 5.21595 6.74048 5.24079 6.74048H9.69668C9.72153 6.74048 9.74168 6.76062 9.74168 6.78547Z" fill="#CFCFFF" style="fill:#CFCFFF;fill:color(display-p3 0.8118 0.8118 1.0000);fill-opacity:1;"/>
<path d="M11.9983 6.78547V7.06216C11.9983 7.08701 12.0184 7.10715 12.0433 7.10715H13.1802C13.205 7.10715 13.2251 7.08701 13.2251 7.06216V6.78547C13.2251 6.76062 13.205 6.74048 13.1802 6.74048H12.0433C12.0184 6.74048 11.9983 6.76062 11.9983 6.78547Z" fill="#CFCFFF" style="fill:#CFCFFF;fill:color(display-p3 0.8118 0.8118 1.0000);fill-opacity:1;"/>
<path d="M8.61683 7.86165V8.13834C8.61683 8.16319 8.59669 8.18333 8.57184 8.18333H5.24079C5.21595 8.18333 5.1958 8.16319 5.1958 8.13834V7.86165C5.1958 7.8368 5.21595 7.81666 5.24079 7.81666H8.57184C8.59669 7.81666 8.61683 7.8368 8.61683 7.86165Z" fill="#CFCFFF" style="fill:#CFCFFF;fill:color(display-p3 0.8118 0.8118 1.0000);fill-opacity:1;"/>
<path d="M10.8735 7.86165V8.13834C10.8735 8.16319 10.8937 8.18333 10.9185 8.18333H13.1802C13.2051 8.18333 13.2252 8.16319 13.2252 8.13834V7.86165C13.2252 7.8368 13.2051 7.81666 13.1802 7.81666H10.9185C10.8937 7.81666 10.8735 7.8368 10.8735 7.86165Z" fill="#CFCFFF" style="fill:#CFCFFF;fill:color(display-p3 0.8118 0.8118 1.0000);fill-opacity:1;"/>
<path d="M8.95428 8.93784V9.21452C8.95428 9.23937 8.93414 9.25952 8.90929 9.25952H5.24079C5.21595 9.25952 5.1958 9.23937 5.1958 9.21452V8.93784C5.1958 8.91299 5.21595 8.89285 5.24079 8.89285H8.90929C8.93414 8.89285 8.95428 8.91299 8.95428 8.93784Z" fill="#CFCFFF" style="fill:#CFCFFF;fill:color(display-p3 0.8118 0.8118 1.0000);fill-opacity:1;"/>
<path d="M11.2109 8.93784V9.21452C11.2109 9.23937 11.2311 9.25952 11.2559 9.25952H13.1802C13.205 9.25952 13.2252 9.23937 13.2252 9.21452V8.93784C13.2252 8.91299 13.205 8.89285 13.1802 8.89285H11.2559C11.2311 8.89285 11.2109 8.91299 11.2109 8.93784Z" fill="#CFCFFF" style="fill:#CFCFFF;fill:color(display-p3 0.8118 0.8118 1.0000);fill-opacity:1;"/>
<path d="M9.74168 10.1572V10.4339C9.74168 10.4587 9.72153 10.4789 9.69668 10.4789H5.24079C5.21595 10.4789 5.1958 10.4587 5.1958 10.4339V10.1572C5.1958 10.1323 5.21595 10.1122 5.24079 10.1122H9.69668C9.72153 10.1122 9.74168 10.1323 9.74168 10.1572Z" fill="#CFCFFF" style="fill:#CFCFFF;fill:color(display-p3 0.8118 0.8118 1.0000);fill-opacity:1;"/>
<path d="M11.9983 10.1572V10.4339C11.9983 10.4587 12.0184 10.4789 12.0433 10.4789H13.1802C13.205 10.4789 13.2251 10.4587 13.2251 10.4339V10.1572C13.2251 10.1323 13.205 10.1122 13.1802 10.1122H12.0433C12.0184 10.1122 11.9983 10.1323 11.9983 10.1572Z" fill="#CFCFFF" style="fill:#CFCFFF;fill:color(display-p3 0.8118 0.8118 1.0000);fill-opacity:1;"/>
<path d="M8.61683 11.2334V11.5101C8.61683 11.5349 8.59669 11.5551 8.57184 11.5551H5.24079C5.21595 11.5551 5.1958 11.5349 5.1958 11.5101V11.2334C5.1958 11.2085 5.21595 11.1884 5.24079 11.1884H8.57184C8.59669 11.1884 8.61683 11.2085 8.61683 11.2334Z" fill="#CFCFFF" style="fill:#CFCFFF;fill:color(display-p3 0.8118 0.8118 1.0000);fill-opacity:1;"/>
<path d="M10.8735 11.2334V11.5101C10.8735 11.5349 10.8937 11.5551 10.9185 11.5551H13.1802C13.2051 11.5551 13.2252 11.5349 13.2252 11.5101V11.2334C13.2252 11.2085 13.2051 11.1884 13.1802 11.1884H10.9185C10.8937 11.1884 10.8735 11.2085 10.8735 11.2334Z" fill="#CFCFFF" style="fill:#CFCFFF;fill:color(display-p3 0.8118 0.8118 1.0000);fill-opacity:1;"/>
<path d="M9.75053 6.97271L9.75062 11.3591C9.75062 11.6837 9.48945 11.9449 9.16481 11.9449L1.05662 11.945C0.731999 11.945 0.470796 11.6839 0.47079 11.3592L0.470703 6.97284C0.470697 6.64818 0.73189 6.38701 1.05651 6.387L9.1647 6.38689C9.48935 6.38688 9.75052 6.64805 9.75053 6.97271Z" fill="#7BD681" style="fill:#7BD681;fill:color(display-p3 0.4824 0.8392 0.5059);fill-opacity:1;"/>
<path d="M1.88859 11.3442C1.88858 10.9235 1.5475 10.5824 1.12677 10.5824L1.12671 7.74809C1.54744 7.74809 1.88851 7.40702 1.8885 6.9863L8.33241 6.98621C8.33242 7.40693 8.67349 7.74799 9.09423 7.74798L9.09429 10.5823C8.67355 10.5823 8.33249 10.9234 8.33249 11.3441L1.88859 11.3442Z" fill="#74C579" style="fill:#74C579;fill:color(display-p3 0.4549 0.7725 0.4745);fill-opacity:1;"/>
<path d="M8.42298 9.16481C8.42298 9.4552 8.18652 9.69172 7.89832 9.69172C7.60781 9.69173 7.37134 9.45753 7.37134 9.16702C7.37133 8.87652 7.60779 8.64012 7.89599 8.64011C8.1865 8.64011 8.42297 8.87651 8.42298 9.16481Z" fill="#E9E9FF" style="fill:#E9E9FF;fill:color(display-p3 0.9137 0.9137 1.0000);fill-opacity:1;"/>
<path d="M2.84949 9.16489C2.8495 9.45529 2.61304 9.6918 2.32484 9.69181C2.03433 9.69181 1.79786 9.45761 1.79785 9.16711C1.79785 8.87661 2.03431 8.6402 2.32251 8.6402C2.61302 8.64019 2.84949 8.87659 2.84949 9.16489Z" fill="#E9E9FF" style="fill:#E9E9FF;fill:color(display-p3 0.9137 0.9137 1.0000);fill-opacity:1;"/>
<path d="M5.22892 10.4818C5.95619 10.4168 6.49307 9.77458 6.42808 9.04731C6.3631 8.32005 5.72085 7.78317 4.99359 7.84815C4.26632 7.91314 3.72944 8.55539 3.79443 9.28265C3.85941 10.0099 4.50166 10.5468 5.22892 10.4818Z" fill="#E9E9FF" style="fill:#E9E9FF;fill:color(display-p3 0.9137 0.9137 1.0000);fill-opacity:1;"/>
<path d="M5.56419 9.56116C5.53419 9.719 5.42562 9.80373 5.2748 9.84059C5.26256 9.84356 5.25011 9.84611 5.23683 9.84865C5.21699 9.85247 5.20267 9.87 5.20269 9.89004L5.20282 10.0141C5.20285 10.0373 5.18388 10.0563 5.16067 10.0563L5.06404 10.0564C5.04083 10.0565 5.02182 10.0375 5.02179 10.0143L5.02164 9.87652C5.02162 9.85606 5.00704 9.83877 4.98678 9.835C4.96377 9.8308 4.93845 9.82809 4.91755 9.82136C4.75503 9.76858 4.64769 9.62291 4.64454 9.4499C4.64409 9.4267 4.66327 9.40769 4.68669 9.40766L4.90993 9.40742C4.93018 9.4074 4.94792 9.42215 4.95153 9.4422C4.95535 9.46413 4.95917 9.48523 4.96532 9.50547C4.99052 9.58962 5.07307 9.63849 5.15766 9.62004C5.20555 9.60964 5.24202 9.58387 5.25441 9.53385C5.26996 9.47012 5.2663 9.40767 5.21561 9.3611C5.18541 9.3335 5.14636 9.31455 5.1092 9.29581C5.03425 9.25813 4.95488 9.22847 4.88268 9.18614C4.72919 9.09706 4.66658 8.96231 4.69488 8.79456C4.72318 8.62784 4.83323 8.53996 4.98848 8.49887C4.98869 8.49887 4.98869 8.49887 4.9889 8.49865C5.00725 8.49378 5.02011 8.4771 5.02009 8.45789L5.01993 8.31781C5.01991 8.2946 5.03887 8.2756 5.06208 8.27557L5.15872 8.27547C5.18193 8.27544 5.20094 8.29441 5.20096 8.31762L5.20111 8.4537C5.20113 8.47311 5.21424 8.48997 5.23302 8.49438C5.34382 8.52127 5.45254 8.57263 5.51342 8.66793C5.55125 8.72696 5.56967 8.79108 5.57608 8.86217C5.57822 8.88664 5.55862 8.90776 5.53393 8.90778L5.30774 8.90803C5.28664 8.90805 5.26891 8.89246 5.26593 8.87179C5.26444 8.86229 5.26295 8.85281 5.26104 8.84331C5.24577 8.7659 5.20647 8.72417 5.1438 8.71749C5.08408 8.711 5.03474 8.73722 5.01264 8.7864C4.98527 8.84783 4.99824 8.93347 5.04808 8.97308C5.08314 9.0011 5.12493 9.02152 5.16483 9.04321C5.24823 9.08785 5.3371 9.12425 5.41544 9.1767C5.55163 9.26812 5.59398 9.40521 5.56419 9.56116Z" fill="#74C579" style="fill:#74C579;fill:color(display-p3 0.4549 0.7725 0.4745);fill-opacity:1;"/>
<g opacity="0.2">
<path d="M4.40649 1.45969L8.81719 14.5761H12.5178L8.10479 1.45969H4.40649Z" fill="white" style="fill:white;fill-opacity:1;"/>
<path d="M9.74844 1.45969H9.05615L13.4688 14.5761H14.1586L9.74844 1.45969Z" fill="white" style="fill:white;fill-opacity:1;"/>
</g>
</svg>
