<svg width="24" height="24" viewBox="0 0 24 24" fill="none" xmlns="http://www.w3.org/2000/svg">
<g clip-path="url(#clip0_4130_928)">
<path d="M22.8 12.0002C22.8 13.2398 22.6178 14.434 22.2795 15.5568C20.8274 20.3761 16.5045 23.8723 11.3962 23.8723C5.09771 23.8713 -0.00756836 18.5565 -0.00756836 12.0002C-0.00756836 11.3407 0.0437865 10.6932 0.143475 10.0628C1.03161 4.42789 5.7321 0.128174 11.3962 0.128174C17.6948 0.128174 22.8 5.4429 22.8 12.0002Z" fill="#B1CD0A" style="fill:#B1CD0A;fill:color(display-p3 0.6941 0.8039 0.0392);fill-opacity:1;"/>
<path d="M15.2112 0.805737C15.1588 0.956781 15.036 1.07963 14.8698 1.12494C14.8446 1.13199 13.455 1.51564 11.6153 2.39875C10.5339 2.91834 9.51079 3.5064 8.57431 4.14683C7.40926 4.94333 6.37612 5.82442 5.50208 6.76391C4.75693 7.56545 4.27359 8.56033 4.10442 9.64079C3.93526 10.7213 4.09133 11.8168 4.55655 12.8067C4.91503 13.571 5.42555 14.2225 6.07404 14.7431C6.68627 15.2355 7.41631 15.597 8.18563 15.7873C8.95394 15.9786 9.76857 16.0007 10.5399 15.8527C11.3565 15.6956 12.1128 15.3593 12.7874 14.8518L15.7992 12.5872C16.6975 11.9115 17.6722 11.3325 18.6953 10.8653C19.7183 10.399 20.7948 10.0426 21.8934 9.80694L22.558 9.66395C22.565 9.66295 22.5721 9.66093 22.5791 9.65993V9.66093L22.7271 10.6478L22.1028 10.7817C21.0737 11.0022 20.0667 11.3355 19.1091 11.7725C18.1515 12.2095 17.2402 12.7513 16.3984 13.3837L13.3866 15.6483C12.2527 16.5012 10.8964 16.9473 9.5128 16.9473C8.9912 16.9473 8.46456 16.8838 7.94497 16.755C6.04886 16.2837 4.48505 14.9988 3.65431 13.2296C3.10451 12.0585 2.92024 10.7646 3.12063 9.48572C3.32101 8.20789 3.89196 7.03176 4.77304 6.08422C5.69945 5.08733 6.79401 4.15488 8.02552 3.31508C9.0063 2.64545 10.0767 2.03121 11.2065 1.48946C12.3071 0.961816 13.2426 0.60938 13.8528 0.40094L15.2112 0.805737Z" fill="#F9FAFB" style="fill:#F9FAFB;fill:color(display-p3 0.9765 0.9804 0.9843);fill-opacity:1;"/>
<path opacity="0.22" d="M22.8 15.3293C21.3145 20.3547 16.8922 24.0003 11.6663 24.0003C5.22279 23.9993 0 18.4573 0 11.6206C0 10.9328 0.0525369 10.2577 0.15452 9.60034C1.16817 9.8765 6.89985 11.7371 9.47725 19.0547C12.3101 27.0979 18.7959 11.3728 22.8 15.3293Z" fill="#019C4F" style="fill:#019C4F;fill:color(display-p3 0.0039 0.6118 0.3098);fill-opacity:1;"/>
</g>
<defs>
<clipPath id="clip0_4130_928">
<rect width="24" height="24" fill="white" style="fill:white;fill-opacity:1;" transform="translate(0 0.000366211)"/>
</clipPath>
</defs>
</svg>
