<svg width="24" height="24" viewBox="0 0 24 24" fill="none" xmlns="http://www.w3.org/2000/svg">
<g id="target (1) 1">
<g id="_x31_01">
<g id="Group">
<g id="Group_2">
<path id="Vector" d="M16.9059 21.1063C13.8706 24.1416 8.29416 23.4357 4.4118 19.5887C0.564744 15.7063 -0.105845 10.0945 2.92945 7.09454L3.88239 6.1416L17.8942 20.1181L16.9059 21.1063Z" fill="#CC104A" style="fill:#CC104A;fill:color(display-p3 0.8000 0.0627 0.2902);fill-opacity:1;"/>
</g>
<g id="Group_3">
<path id="Vector_2" d="M17.8236 20.1886C14.7883 23.2239 9.21181 22.5181 5.32946 18.671C1.4471 14.7886 0.776516 9.21217 3.81181 6.17687C6.84711 3.14158 12.4236 3.84746 16.2706 7.69452C17.4353 8.85923 18.3177 10.2004 18.8824 11.5416C19.0589 12.0004 19.2353 12.4239 19.3412 12.8828C20.1177 15.6357 19.6236 18.3886 17.8236 20.1886Z" fill="#F34B58" style="fill:#F34B58;fill:color(display-p3 0.9529 0.2941 0.3451);fill-opacity:1;"/>
</g>
<g id="Group_4">
<path id="Vector_3" d="M15.353 8.64748C18.353 11.6475 18.8824 15.9887 16.553 18.3534C14.2236 20.7181 9.8471 20.1534 6.8471 17.1534C3.8471 14.1534 3.31769 9.81219 5.6471 7.44748C7.97652 5.08278 12.353 5.64748 15.353 8.64748Z" fill="#F9F9F9" style="fill:#F9F9F9;fill:color(display-p3 0.9750 0.9750 0.9750);fill-opacity:1;"/>
</g>
<g id="Group_5">
<path id="Vector_4" d="M14.4354 9.5651C16.6236 11.7533 17.0118 14.9298 15.3177 16.6239C13.6236 18.318 10.4471 17.9651 8.25889 15.7416C6.07065 13.5533 5.68242 10.3769 7.37653 8.68275C9.07065 6.98863 12.2471 7.37687 14.4354 9.5651Z" fill="#F34B58" style="fill:#F34B58;fill:color(display-p3 0.9529 0.2941 0.3451);fill-opacity:1;"/>
</g>
<g id="Group_6">
<path id="Vector_5" d="M13.4471 10.5533C14.8589 11.9651 15.1059 13.9769 14.0118 15.071C12.9177 16.1651 10.9059 15.918 9.49418 14.5063C8.08241 13.0945 7.83535 11.0827 8.92947 9.98861C10.0236 8.8945 12.0706 9.14156 13.4471 10.5533Z" fill="#F9F9F9" style="fill:#F9F9F9;fill:color(display-p3 0.9750 0.9750 0.9750);fill-opacity:1;"/>
</g>
<g id="Group_7">
<path id="Vector_6" d="M12.5294 11.471C13.2 12.1416 13.3412 13.1298 12.8118 13.6945C12.2471 14.2239 11.2588 14.118 10.5882 13.4122C9.91766 12.7416 9.77648 11.7533 10.3059 11.2239C10.8353 10.6945 11.8235 10.8004 12.5294 11.471Z" fill="#F34B58" style="fill:#F34B58;fill:color(display-p3 0.9529 0.2941 0.3451);fill-opacity:1;"/>
</g>
<g id="Group_8" opacity="0.2">
<path id="Vector_7" d="M19.3765 12.9181L11.7177 12.9534C10.8353 12.9534 10.8 11.6122 11.7177 11.6122L18.9177 11.5769C19.0941 12.0357 19.2353 12.4593 19.3765 12.9181Z" fill="#1D2943" style="fill:#1D2943;fill:color(display-p3 0.1137 0.1608 0.2627);fill-opacity:1;"/>
</g>
</g>
<g id="Group_9">
<path id="Vector_8" d="M6.14121 17.8592C5.22357 17.1886 4.48239 16.271 3.95298 15.2827C3.42357 14.2592 3.10592 13.1298 3.14121 12.0004C3.45886 13.0945 3.8471 14.118 4.37651 15.071C4.87063 16.0239 5.47063 16.9415 6.14121 17.8592Z" fill="#F9F9F9" style="fill:#F9F9F9;fill:color(display-p3 0.9750 0.9750 0.9750);fill-opacity:1;"/>
</g>
<g id="Group_10">
<path id="Vector_9" d="M21.2119 2.78861C21.4942 3.07096 21.4942 3.49449 21.2119 3.74155L12.1766 12.7416C11.9295 12.9886 11.506 12.9886 11.2236 12.7416C10.9766 12.4945 10.9766 12.071 11.2236 11.7886L20.2589 2.78861C20.5413 2.50626 20.9648 2.50626 21.2119 2.78861Z" fill="#1D2943" style="fill:#1D2943;fill:color(display-p3 0.1137 0.1608 0.2627);fill-opacity:1;"/>
</g>
<g id="Group_11">
<path id="Vector_10" d="M21.0707 3.84747L22.6589 4.3063C22.9412 4.37688 23.0471 4.72983 22.8354 4.94159L22.4118 5.36512C22.2354 5.54159 21.953 5.61218 21.7059 5.54159L21.1765 5.40041L21.2824 5.5063C21.5648 5.78865 21.5648 6.24747 21.2824 6.52983L20.4001 7.41218C20.2236 7.58865 19.9412 7.65924 19.6942 7.58865L17.8589 7.05924L21.0707 3.84747Z" fill="#FFD06C" style="fill:#FFD06C;fill:color(display-p3 1.0000 0.8157 0.4235);fill-opacity:1;"/>
</g>
<g id="Group_12">
<path id="Vector_11" d="M20.153 2.89451L19.6942 1.30627C19.6236 1.02392 19.2706 0.918037 19.0589 1.1298L17.7883 2.40039C17.6118 2.57686 17.5412 2.85921 17.6118 3.10627L17.753 3.63568L17.4001 3.28274C17.2589 3.14157 17.0118 3.14157 16.8706 3.28274L16.5883 3.60039C16.4118 3.77686 16.3412 4.05921 16.4118 4.30627L16.9412 6.10627L20.153 2.89451Z" fill="#FFD06C" style="fill:#FFD06C;fill:color(display-p3 1.0000 0.8157 0.4235);fill-opacity:1;"/>
</g>
<g id="Group_13">
<path id="Vector_12" d="M17.7177 5.92981C18.0353 5.50629 18.4235 5.08276 18.8118 4.69452C19.0235 4.51805 19.6588 3.88276 19.4118 4.12981C19.6235 3.95334 19.8353 3.77687 20.0471 3.6004C19.8706 3.81217 19.6941 4.02393 19.5177 4.2357C19.3412 4.44746 19.1294 4.62393 18.9529 4.8357C18.5647 5.22393 18.1765 5.57687 17.7177 5.92981Z" fill="#F9F9F9" style="fill:#F9F9F9;fill:color(display-p3 0.9750 0.9750 0.9750);fill-opacity:1;"/>
</g>
</g>
</g>
</svg>
