<svg width="16" height="16" viewBox="0 0 16 16" fill="none" xmlns="http://www.w3.org/2000/svg">
<g clip-path="url(#clip0_4028_10039)">
<path d="M7.84005 3.95862H8.63374C8.80965 3.95862 8.92858 4.12546 8.8738 4.29537L8.06069 6.81732C8.00786 6.98114 8.12255 7.14202 8.29215 7.14202H10.1436C10.2603 7.14202 10.3668 7.06362 10.4032 6.95084L11.5177 3.49393C11.5706 3.3301 11.4559 3.16922 11.2863 3.16922H10.6355C10.4878 3.16922 10.3745 3.04944 10.3826 2.90171L10.5265 0.258415C10.5405 0.00137984 10.211 -0.0975065 10.0597 0.118305L7.64516 3.56056C7.52478 3.7322 7.63565 3.95862 7.84005 3.95862Z" fill="url(#paint0_linear_4028_10039)" style=""/>
<path d="M7.64516 3.56056C7.52478 3.7322 7.63565 3.95862 7.84005 3.95862H8.63374C8.80965 3.95862 8.92858 4.12546 8.8738 4.29537L8.06069 6.81732C8.00786 6.98114 8.12255 7.14202 8.29215 7.14202H10.1436C10.2603 7.14202 10.3668 7.06362 10.4032 6.95084L11.5177 3.49393C11.5706 3.3301 11.4559 3.16922 11.2863 3.16922H10.6355C10.5333 3.16922 10.4476 3.11178 10.4072 3.02745H8.01909L7.64516 3.56056Z" fill="url(#paint1_linear_4028_10039)" style=""/>
<path d="M9.57674 3.57106C9.16874 3.57106 8.91098 3.16045 9.08055 2.78056L10.3202 0.00327513C10.2286 -0.0109994 10.1267 0.0227575 10.0597 0.11835L7.64516 3.56061C7.52478 3.73225 7.63565 3.95866 7.84005 3.95866H8.63374C8.80965 3.95866 8.92858 4.1255 8.8738 4.29542L8.06069 6.81736C8.00786 6.98119 8.12255 7.14207 8.29215 7.14207H9.13131L10.0935 4.30903C10.2191 3.93912 9.96139 3.57106 9.57674 3.57106Z" fill="url(#paint2_linear_4028_10039)" style=""/>
<path d="M7.64516 3.56056C7.52478 3.7322 7.63565 3.95862 7.84005 3.95862H8.63374C8.80965 3.95862 8.92858 4.12546 8.8738 4.29537L8.06069 6.81732C8.00786 6.98114 8.12255 7.14202 8.29215 7.14202H10.1436C10.2603 7.14202 10.3668 7.06362 10.4032 6.95084L11.5177 3.49393C11.5706 3.3301 11.4559 3.16922 11.2863 3.16922H10.6355C10.5333 3.16922 10.4476 3.11178 10.4072 3.02745H8.01909L7.64516 3.56056Z" fill="url(#paint3_linear_4028_10039)" style=""/>
<path d="M6.18748 11.2342C5.50644 11.2342 4.98968 10.9359 4.83881 10.4557L3.1056 4.80209L3.10287 4.79108C3.08891 4.73508 3.07178 4.66631 3.07178 4.5866C3.07178 3.93182 3.86986 3.56969 4.42155 3.56969C4.86968 3.56969 5.19874 3.78519 5.30189 4.14619L6.18604 7.38584L7.0639 4.14619C7.16702 3.78519 7.49612 3.56969 7.94425 3.56969C8.4959 3.56969 9.29396 3.93182 9.29396 4.5866C9.29396 4.66688 9.27592 4.73894 9.26274 4.79152L9.26014 4.802L7.53725 10.4523C7.38528 10.9359 6.86852 11.2342 6.18748 11.2342Z" fill="url(#paint4_linear_4028_10039)" style=""/>
<path d="M6.18748 11.2342C5.50644 11.2342 4.98968 10.9359 4.83881 10.4557L3.1056 4.80209L3.10287 4.79108C3.08891 4.73508 3.07178 4.66631 3.07178 4.5866C3.07178 3.93182 3.86986 3.56969 4.42155 3.56969C4.86968 3.56969 5.19874 3.78519 5.30189 4.14619L6.18604 7.38584L7.0639 4.14619C7.16702 3.78519 7.49612 3.56969 7.94425 3.56969C8.4959 3.56969 9.29396 3.93182 9.29396 4.5866C9.29396 4.66688 9.27592 4.73894 9.26274 4.79152L9.26014 4.802L7.53725 10.4523C7.38528 10.9359 6.86852 11.2342 6.18748 11.2342Z" fill="url(#paint5_linear_4028_10039)" style=""/>
<path d="M6.12888 7.17643L5.30189 4.14619C5.19877 3.78519 4.86968 3.56969 4.42155 3.56969C3.8699 3.56969 3.07178 3.93182 3.07178 4.5866C3.07178 4.66631 3.08891 4.73508 3.10287 4.79108L3.1056 4.80209L4.30503 8.71457H6.12888V7.17643Z" fill="url(#paint6_linear_4028_10039)" style=""/>
<path d="M5.50724 10.5539C4.82621 10.5539 4.30944 10.2556 4.15857 9.77546L2.42536 4.12181L2.42263 4.1108C2.40867 4.0548 2.39154 3.98603 2.39154 3.90631C2.39154 3.25154 3.18963 2.8894 3.74131 2.8894C4.18944 2.8894 4.51851 3.1049 4.62166 3.46591L5.5058 6.70556L6.38367 3.46591C6.48679 3.1049 6.81589 2.8894 7.26401 2.8894C7.81567 2.8894 8.61372 3.25154 8.61372 3.90631C8.61372 3.9866 8.59568 4.05866 8.58251 4.11124L8.5799 4.12172L6.85702 9.77201C6.70505 10.2556 6.18828 10.5539 5.50724 10.5539Z" fill="url(#paint7_linear_4028_10039)" style=""/>
<path d="M2.83519 4.00802C2.82597 3.97103 2.81671 3.93404 2.81671 3.90631C2.81671 3.56422 3.34371 3.31456 3.74132 3.31456C3.97248 3.31456 4.15739 3.38854 4.21285 3.5827L5.50725 8.32582L6.79246 3.5827C6.84793 3.38854 7.03281 3.31456 7.26399 3.31456C7.66154 3.31456 8.18854 3.56419 8.18854 3.90631C8.18854 3.93404 8.17932 3.97103 8.17006 4.00802L6.45031 9.64802C6.34863 9.97163 5.93257 10.1288 5.50722 10.1288C5.0819 10.1288 4.66584 9.97163 4.56416 9.64802L2.83519 4.00802Z" fill="url(#paint8_linear_4028_10039)" style=""/>
<path d="M2.83519 4.00802C2.82597 3.97103 2.81671 3.93404 2.81671 3.90631C2.81671 3.56422 3.34371 3.31456 3.74132 3.31456C3.97248 3.31456 4.15739 3.38854 4.21285 3.5827L5.50725 8.32582L6.79246 3.5827C6.84793 3.38854 7.03281 3.31456 7.26399 3.31456C7.66154 3.31456 8.18854 3.56419 8.18854 3.90631C8.18854 3.93404 8.17932 3.97103 8.17006 4.00802L6.45031 9.64802C6.34863 9.97163 5.93257 10.1288 5.50722 10.1288C5.0819 10.1288 4.66584 9.97163 4.56416 9.64802L2.83519 4.00802Z" fill="url(#paint9_linear_4028_10039)" style=""/>
<path d="M3.38153 7.24065L4.1586 9.77545C4.30947 10.2556 4.82624 10.5539 5.50727 10.5539C6.18831 10.5539 6.70508 10.2556 6.85704 9.772L7.6289 7.24065H3.38153Z" fill="url(#paint10_linear_4028_10039)" style=""/>
<path d="M5.50724 10.5539C6.18828 10.5539 6.70505 10.2556 6.85702 9.77201L8.5799 4.12172L8.58251 4.11124C8.59568 4.05863 8.61372 3.98657 8.61372 3.90631C8.61372 3.25154 7.81567 2.8894 7.26401 2.8894C6.81589 2.8894 6.48682 3.1049 6.38367 3.46591L5.5058 6.70556L4.35455 10.1184C4.59778 10.3932 5.00804 10.5539 5.50724 10.5539Z" fill="url(#paint11_linear_4028_10039)" style=""/>
<path d="M9.48948 12.0414H8.69579C8.51988 12.0414 8.39508 11.8745 8.4439 11.7046L9.16838 9.18268C9.21544 9.01885 9.0951 8.85797 8.9255 8.85797H7.07405C6.95731 8.85797 6.85359 8.93637 6.82121 9.04916L5.82815 12.5061C5.78109 12.6699 5.90143 12.8308 6.07103 12.8308H6.72176C6.8695 12.8308 6.98696 12.9506 6.9841 13.0983L6.93303 15.7416C6.92807 15.9986 7.26103 16.0975 7.40484 15.8817L9.69836 12.4394C9.81271 12.2678 9.6939 12.0414 9.48948 12.0414Z" fill="url(#paint12_linear_4028_10039)" style=""/>
<path d="M7.76645 12.429C8.17445 12.429 8.44661 12.8396 8.2904 13.2195L7.14832 15.9968C7.24043 16.011 7.34119 15.9773 7.40485 15.8817L9.69837 12.4394C9.81272 12.2678 9.69392 12.0414 9.48949 12.0414H8.6958C8.51989 12.0414 8.39509 11.8745 8.44391 11.7046L9.16839 9.18268C9.21545 9.01885 9.09511 8.85797 8.92551 8.85797H8.08635L7.22373 11.691C7.11111 12.0609 7.38179 12.429 7.76645 12.429Z" fill="url(#paint13_linear_4028_10039)" style=""/>
<path d="M7.76645 12.429C8.17445 12.429 8.44661 12.8396 8.2904 13.2195L7.14832 15.9968C7.24043 16.011 7.34119 15.9773 7.40485 15.8817L9.69837 12.4394C9.81272 12.2678 9.69392 12.0414 9.48949 12.0414H8.6958C8.51989 12.0414 8.39509 11.8745 8.44391 11.7046L9.16839 9.18268C9.21545 9.01885 9.09511 8.85797 8.92551 8.85797H8.08635L7.22373 11.691C7.11111 12.0609 7.38179 12.429 7.76645 12.429Z" fill="url(#paint14_linear_4028_10039)" style=""/>
<path d="M6.939 12.9456C6.96837 12.9889 6.98515 13.0415 6.98405 13.0983L6.93298 15.7416C6.92802 15.9986 7.26098 16.0975 7.40479 15.8817L9.36106 12.9456H6.939Z" fill="url(#paint15_linear_4028_10039)" style=""/>
<path d="M10.9562 13.691C9.56302 13.691 8.38599 12.9776 8.38599 12.1333C8.38599 11.6693 8.77246 10.9953 9.37802 10.9953C9.68274 10.9953 9.91047 11.1706 10.1114 11.3253C10.3418 11.5027 10.5595 11.6703 10.9288 11.6703C11.0715 11.6703 11.442 11.6289 11.442 11.44C11.442 11.2155 11.0148 11.0171 10.5624 10.807C9.7132 10.4125 8.55016 9.87216 8.55016 8.39326C8.55016 7.6417 8.86216 7.03159 9.45243 6.6289C9.92101 6.30924 10.562 6.13321 11.2572 6.13321C11.4577 6.13321 11.9753 6.1477 12.4477 6.28188C13.3148 6.52819 13.4443 7.03024 13.4443 7.30764C13.4443 7.75925 13.1464 8.42752 12.507 8.42752C12.2855 8.42752 12.1184 8.34093 11.971 8.26453C11.7967 8.17421 11.6165 8.08085 11.2572 8.08085C10.8885 8.08085 10.7168 8.1856 10.7168 8.25641C10.7168 8.36656 11.1982 8.57879 11.4569 8.6928C12.3136 9.0705 13.6085 9.64126 13.6085 11.294C13.6084 12.7501 12.5674 13.691 10.9562 13.691Z" fill="url(#paint16_linear_4028_10039)" style=""/>
<path d="M10.9562 13.691C9.56302 13.691 8.38599 12.9776 8.38599 12.1333C8.38599 11.6693 8.77246 10.9953 9.37802 10.9953C9.68274 10.9953 9.91047 11.1706 10.1114 11.3253C10.3418 11.5027 10.5595 11.6703 10.9288 11.6703C11.0715 11.6703 11.442 11.6289 11.442 11.44C11.442 11.2155 11.0148 11.0171 10.5624 10.807C9.7132 10.4125 8.55016 9.87216 8.55016 8.39326C8.55016 7.6417 8.86216 7.03159 9.45243 6.6289C9.92101 6.30924 10.562 6.13321 11.2572 6.13321C11.4577 6.13321 11.9753 6.1477 12.4477 6.28188C13.3148 6.52819 13.4443 7.03024 13.4443 7.30764C13.4443 7.75925 13.1464 8.42752 12.507 8.42752C12.2855 8.42752 12.1184 8.34093 11.971 8.26453C11.7967 8.17421 11.6165 8.08085 11.2572 8.08085C10.8885 8.08085 10.7168 8.1856 10.7168 8.25641C10.7168 8.36656 11.1982 8.57879 11.4569 8.6928C12.3136 9.0705 13.6085 9.64126 13.6085 11.294C13.6084 12.7501 12.5674 13.691 10.9562 13.691Z" fill="url(#paint17_linear_4028_10039)" style=""/>
<path d="M12.4477 6.28191C11.9753 6.1477 11.4577 6.13324 11.2572 6.13324C10.562 6.13324 9.92106 6.30927 9.45244 6.62893C8.86217 7.03159 8.55017 7.64173 8.55017 8.39329C8.55017 8.47906 8.55447 8.56138 8.56203 8.64101H11.3399C11.0754 8.52264 10.7168 8.35156 10.7168 8.25647C10.7168 8.18566 10.8886 8.08091 11.2572 8.08091C11.6165 8.08091 11.7968 8.17428 11.971 8.2646C12.1185 8.34099 12.2855 8.42758 12.507 8.42758C13.1464 8.42758 13.4443 7.75934 13.4443 7.3077C13.4443 7.03028 13.3148 6.52822 12.4477 6.28191Z" fill="url(#paint18_linear_4028_10039)" style=""/>
<path d="M9.9434 12.9573C8.5502 12.9573 7.37317 12.244 7.37317 11.3996C7.37317 10.9356 7.75965 10.2617 8.3652 10.2617C8.66992 10.2617 8.89765 10.437 9.09853 10.5916C9.329 10.769 9.54669 10.9366 9.91598 10.9366C10.0587 10.9366 10.4291 10.8953 10.4291 10.7064C10.4291 10.4819 10.0019 10.2834 9.54961 10.0733C8.70038 9.67881 7.53734 9.13852 7.53734 7.65961C7.53734 6.90805 7.84934 6.29795 8.43962 5.89525C8.9082 5.5756 9.54914 5.39957 10.2444 5.39957C10.4449 5.39957 10.9624 5.41406 11.4349 5.54824C12.302 5.79455 12.4315 6.2966 12.4315 6.574C12.4315 7.02561 12.1336 7.69387 11.4942 7.69387C11.2727 7.69387 11.1056 7.60728 10.9582 7.53089C10.7839 7.44057 10.6037 7.34721 10.2444 7.34721C9.87569 7.34721 9.70396 7.45196 9.70396 7.52277C9.70396 7.63292 10.1854 7.84515 10.4441 7.95916C11.3008 8.33685 12.5957 8.90761 12.5957 10.5604C12.5956 12.0165 11.5546 12.9573 9.9434 12.9573Z" fill="url(#paint19_linear_4028_10039)" style=""/>
<path d="M9.33214 7.5228C9.33214 7.23997 9.59667 6.97547 10.2443 6.97547C10.9923 6.97547 11.1657 7.32214 11.4941 7.32214C11.8955 7.32214 12.0596 6.82037 12.0596 6.57403C12.0596 5.86259 10.7278 5.77136 10.2443 5.77136C9.10409 5.77136 7.90908 6.29133 7.90908 7.65961C7.90908 9.7942 10.8009 9.60264 10.8009 10.7064C10.8009 11.1442 10.3356 11.3084 9.91595 11.3084C9.0676 11.3084 8.79397 10.6334 8.36517 10.6334C8.0186 10.6334 7.74487 11.0895 7.74487 11.3997C7.74487 12.0018 8.74832 12.5856 9.94334 12.5856C11.2661 12.5856 12.2238 11.874 12.2238 10.5604C12.2238 8.26162 9.33214 8.43499 9.33214 7.5228Z" fill="url(#paint20_linear_4028_10039)" style=""/>
<path d="M9.33214 7.5228C9.33214 7.23997 9.59667 6.97547 10.2443 6.97547C10.9923 6.97547 11.1657 7.32214 11.4941 7.32214C11.8955 7.32214 12.0596 6.82037 12.0596 6.57403C12.0596 5.86259 10.7278 5.77136 10.2443 5.77136C9.10409 5.77136 7.90908 6.29133 7.90908 7.65961C7.90908 9.7942 10.8009 9.60264 10.8009 10.7064C10.8009 11.1442 10.3356 11.3084 9.91595 11.3084C9.0676 11.3084 8.79397 10.6334 8.36517 10.6334C8.0186 10.6334 7.74487 11.0895 7.74487 11.3997C7.74487 12.0018 8.74832 12.5856 9.94334 12.5856C11.2661 12.5856 12.2238 11.874 12.2238 10.5604C12.2238 8.26162 9.33214 8.43499 9.33214 7.5228Z" fill="url(#paint21_linear_4028_10039)" style=""/>
<path d="M9.54961 10.0733C10.0019 10.2834 10.4291 10.4819 10.4291 10.7064C10.4291 10.8953 10.0587 10.9366 9.91598 10.9366C9.54669 10.9366 9.329 10.769 9.09853 10.5916C8.89765 10.437 8.66992 10.2617 8.3652 10.2617C7.75962 10.2617 7.37317 10.9356 7.37317 11.3996C7.37317 12.244 8.55017 12.9573 9.9434 12.9573C11.5546 12.9573 12.5956 12.0165 12.5956 10.5604C12.5956 8.90765 11.3008 8.33686 10.444 7.9592C10.3303 7.90906 10.1736 7.83998 10.0336 7.76889H7.54004C7.5961 9.16516 8.72175 9.68873 9.54961 10.0733Z" fill="url(#paint22_linear_4028_10039)" style=""/>
<path d="M9.54961 10.0733C10.0019 10.2834 10.4291 10.4819 10.4291 10.7064C10.4291 10.8953 10.0587 10.9366 9.91598 10.9366C9.54669 10.9366 9.329 10.769 9.09853 10.5916C8.89765 10.437 8.66992 10.2617 8.3652 10.2617C7.75962 10.2617 7.37317 10.9356 7.37317 11.3996C7.37317 12.244 8.55017 12.9573 9.9434 12.9573C11.5546 12.9573 12.5956 12.0165 12.5956 10.5604C12.5956 8.90765 11.3008 8.33686 10.444 7.9592C10.3303 7.90906 10.1736 7.83998 10.0336 7.76889H7.54004C7.5961 9.16516 8.72175 9.68873 9.54961 10.0733Z" fill="url(#paint23_linear_4028_10039)" style=""/>
<path d="M9.54961 10.0733C10.0019 10.2834 10.4291 10.4819 10.4291 10.7064C10.4291 10.8953 10.0587 10.9366 9.91598 10.9366C9.54669 10.9366 9.329 10.769 9.09853 10.5916C8.89765 10.437 8.66992 10.2617 8.3652 10.2617C7.75962 10.2617 7.37317 10.9356 7.37317 11.3996C7.37317 12.244 8.55017 12.9573 9.9434 12.9573C11.5546 12.9573 12.5956 12.0165 12.5956 10.5604C12.5956 8.90765 11.3008 8.33686 10.444 7.9592C10.3303 7.90906 10.1736 7.83998 10.0336 7.76889H7.54004C7.5961 9.16516 8.72175 9.68873 9.54961 10.0733Z" fill="url(#paint24_linear_4028_10039)" style=""/>
<path d="M9.79355 7.42783C9.87926 7.38357 10.0275 7.34724 10.2444 7.34724C10.6037 7.34724 10.7839 7.4406 10.9582 7.53092C11.1056 7.60732 11.2727 7.6939 11.4942 7.6939C12.1336 7.6939 12.4314 7.02567 12.4314 6.57403C12.4314 6.29666 12.302 5.79458 11.4349 5.54827C10.9624 5.41406 10.4449 5.3996 10.2443 5.3996C10.0909 5.3996 9.94037 5.40866 9.79352 5.42545V7.42783H9.79355Z" fill="url(#paint25_linear_4028_10039)" style=""/>
<path d="M8.00002 0C7.87033 0 7.7652 0.105129 7.7652 0.234824V0.565961C7.7652 0.695655 7.87033 0.800784 8.00002 0.800784C8.12972 0.800784 8.23484 0.695655 8.23484 0.565961V0.234824C8.23484 0.105129 8.12972 0 8.00002 0Z" fill="url(#paint26_linear_4028_10039)" style=""/>
<path d="M8.00002 15.1992C7.87033 15.1992 7.7652 15.3043 7.7652 15.434V15.7651C7.7652 15.8948 7.87033 16 8.00002 16C8.12972 16 8.23484 15.8948 8.23484 15.7651V15.434C8.23484 15.3043 8.12972 15.1992 8.00002 15.1992Z" fill="url(#paint27_linear_4028_10039)" style=""/>
<path d="M15.7652 7.76518H15.434C15.3043 7.76518 15.1992 7.87031 15.1992 8.00001C15.1992 8.1297 15.3043 8.23483 15.434 8.23483H15.7652C15.8949 8.23483 16 8.1297 16 8.00001C16 7.87031 15.8949 7.76518 15.7652 7.76518Z" fill="url(#paint28_linear_4028_10039)" style=""/>
<path d="M0.800816 8.00001C0.800816 7.87031 0.695686 7.76518 0.565992 7.76518H0.234824C0.105129 7.76518 0 7.87031 0 8.00001C0 8.1297 0.105129 8.23483 0.234824 8.23483H0.565961C0.695686 8.23483 0.800816 8.1297 0.800816 8.00001Z" fill="url(#paint29_linear_4028_10039)" style=""/>
<path d="M13.3248 2.34315L13.0906 2.57732C12.9989 2.66905 12.9989 2.81769 13.0906 2.90943C13.1823 3.00116 13.331 3.00116 13.4227 2.90943L13.6569 2.67526C13.7486 2.58353 13.7486 2.43489 13.6569 2.34315C13.5652 2.25142 13.4165 2.25142 13.3248 2.34315Z" fill="url(#paint30_linear_4028_10039)" style=""/>
<path d="M2.57729 13.0906L2.34313 13.3248C2.25143 13.4165 2.25143 13.5651 2.34313 13.6569C2.43483 13.7486 2.58351 13.7486 2.67524 13.6569L2.9094 13.4227C3.00114 13.331 3.00114 13.1823 2.9094 13.0906C2.81767 12.9989 2.669 12.9989 2.57729 13.0906Z" fill="url(#paint31_linear_4028_10039)" style=""/>
<path d="M13.4227 13.0906C13.331 12.9989 13.1823 12.9989 13.0906 13.0906C12.9989 13.1823 12.9989 13.331 13.0906 13.4227L13.3248 13.6569C13.4165 13.7486 13.5651 13.7486 13.6569 13.6569C13.7486 13.5652 13.7486 13.4165 13.6569 13.3248L13.4227 13.0906Z" fill="url(#paint32_linear_4028_10039)" style=""/>
<path d="M2.67525 2.34316C2.58355 2.25146 2.43487 2.25146 2.34314 2.34316C2.25141 2.43486 2.25144 2.58354 2.34314 2.67527L2.57731 2.90943C2.66901 3.00117 2.81768 3.00117 2.90942 2.90943C3.00115 2.81773 3.00115 2.66906 2.90942 2.57732L2.67525 2.34316Z" fill="url(#paint33_linear_4028_10039)" style=""/>
<path d="M11.0214 1.20364L11.1463 0.896947C11.1952 0.776821 11.1375 0.639817 11.0174 0.590876C10.8973 0.541966 10.7603 0.599661 10.7113 0.719786L10.5864 1.02648C10.5375 1.14661 10.5952 1.28361 10.7153 1.33255C10.8355 1.38146 10.9725 1.32377 11.0214 1.20364Z" fill="url(#paint34_linear_4028_10039)" style=""/>
<path d="M5.28461 14.6674C5.16449 14.6185 5.02748 14.6762 4.97854 14.7964L4.85365 15.1031C4.80474 15.2232 4.86243 15.3602 4.98256 15.4091C5.10268 15.458 5.23969 15.4003 5.28863 15.2802L5.41352 14.9735C5.46243 14.8534 5.40474 14.7164 5.28461 14.6674Z" fill="url(#paint35_linear_4028_10039)" style=""/>
<path d="M15.2802 10.7114L14.9735 10.5865C14.8534 10.5376 14.7164 10.5953 14.6674 10.7154C14.6185 10.8355 14.6762 10.9725 14.7963 11.0215L15.103 11.1464C15.2232 11.1953 15.3602 11.1376 15.4091 11.0174C15.458 10.8973 15.4003 10.7603 15.2802 10.7114Z" fill="url(#paint36_linear_4028_10039)" style=""/>
<path d="M0.719801 5.28863L1.0265 5.41352C1.14662 5.46243 1.28363 5.40474 1.33257 5.28461C1.38148 5.16449 1.32379 5.02748 1.20366 4.97854L0.896962 4.85365C0.776837 4.80474 0.639833 4.86243 0.590891 4.98256C0.541982 5.10271 0.599676 5.23972 0.719801 5.28863Z" fill="url(#paint37_linear_4028_10039)" style=""/>
<path d="M14.9423 5.3307L15.2475 5.20216C15.367 5.15181 15.4231 5.01412 15.3727 4.89459C15.3224 4.77506 15.1847 4.71896 15.0652 4.76932L14.76 4.89785C14.6404 4.9482 14.5843 5.0859 14.6347 5.20543C14.685 5.32499 14.8227 5.38105 14.9423 5.3307Z" fill="url(#paint38_linear_4028_10039)" style=""/>
<path d="M1.05777 10.6693L0.752574 10.7978C0.633045 10.8482 0.576951 10.9858 0.627304 11.1054C0.677657 11.2249 0.815351 11.281 0.93488 11.2306L1.24007 11.1021C1.3596 11.0518 1.4157 10.9141 1.36534 10.7945C1.31499 10.675 1.17733 10.6189 1.05777 10.6693Z" fill="url(#paint39_linear_4028_10039)" style=""/>
<path d="M11.1021 14.7599C11.0518 14.6404 10.9141 14.5843 10.7946 14.6347C10.675 14.685 10.6189 14.8227 10.6693 14.9423L10.7978 15.2474C10.8482 15.367 10.9859 15.4231 11.1054 15.3727C11.2249 15.3224 11.281 15.1847 11.2307 15.0651L11.1021 14.7599Z" fill="url(#paint40_linear_4028_10039)" style=""/>
<path d="M5.20544 1.36533C5.32497 1.31497 5.38107 1.17728 5.33071 1.05775L5.20218 0.752559C5.15183 0.63303 5.01413 0.576936 4.8946 0.627289C4.77507 0.677642 4.71898 0.815336 4.76933 0.934865L4.89787 1.24006C4.94822 1.35962 5.08591 1.41568 5.20544 1.36533Z" fill="url(#paint41_linear_4028_10039)" style=""/>
</g>
<defs>
<linearGradient id="paint0_linear_4028_10039" x1="7.80892" y1="2.30883" x2="10.9148" y2="4.95981" gradientUnits="userSpaceOnUse">
<stop stop-color="#FEF0AE" style="stop-color:#FEF0AE;stop-color:color(display-p3 0.9961 0.9412 0.6824);stop-opacity:1;"/>
<stop offset="1" stop-color="#FAC600" style="stop-color:#FAC600;stop-color:color(display-p3 0.9804 0.7765 0.0000);stop-opacity:1;"/>
</linearGradient>
<linearGradient id="paint1_linear_4028_10039" x1="9.72343" y1="5.14049" x2="11.2711" y2="5.49606" gradientUnits="userSpaceOnUse">
<stop stop-color="#FEA613" stop-opacity="0" style="stop-color:none;stop-opacity:0;"/>
<stop offset="0.2032" stop-color="#FDA215" stop-opacity="0.203" style="stop-color:#FDA215;stop-color:color(display-p3 0.9922 0.6353 0.0824);stop-opacity:0.203;"/>
<stop offset="0.4052" stop-color="#FB961B" stop-opacity="0.405" style="stop-color:#FB961B;stop-color:color(display-p3 0.9843 0.5882 0.1059);stop-opacity:0.405;"/>
<stop offset="0.6066" stop-color="#F68225" stop-opacity="0.607" style="stop-color:#F68225;stop-color:color(display-p3 0.9647 0.5098 0.1451);stop-opacity:0.607;"/>
<stop offset="0.8066" stop-color="#F06633" stop-opacity="0.807" style="stop-color:#F06633;stop-color:color(display-p3 0.9412 0.4000 0.2000);stop-opacity:0.807;"/>
<stop offset="1" stop-color="#E94444" style="stop-color:#E94444;stop-color:color(display-p3 0.9137 0.2667 0.2667);stop-opacity:1;"/>
</linearGradient>
<linearGradient id="paint2_linear_4028_10039" x1="6.76715" y1="3.59455" x2="11.613" y2="3.82241" gradientUnits="userSpaceOnUse">
<stop stop-color="#FEA613" stop-opacity="0" style="stop-color:none;stop-opacity:0;"/>
<stop offset="0.2032" stop-color="#FDA215" stop-opacity="0.203" style="stop-color:#FDA215;stop-color:color(display-p3 0.9922 0.6353 0.0824);stop-opacity:0.203;"/>
<stop offset="0.4052" stop-color="#FB961B" stop-opacity="0.405" style="stop-color:#FB961B;stop-color:color(display-p3 0.9843 0.5882 0.1059);stop-opacity:0.405;"/>
<stop offset="0.6066" stop-color="#F68225" stop-opacity="0.607" style="stop-color:#F68225;stop-color:color(display-p3 0.9647 0.5098 0.1451);stop-opacity:0.607;"/>
<stop offset="0.8066" stop-color="#F06633" stop-opacity="0.807" style="stop-color:#F06633;stop-color:color(display-p3 0.9412 0.4000 0.2000);stop-opacity:0.807;"/>
<stop offset="1" stop-color="#E94444" style="stop-color:#E94444;stop-color:color(display-p3 0.9137 0.2667 0.2667);stop-opacity:1;"/>
</linearGradient>
<linearGradient id="paint3_linear_4028_10039" x1="9.56306" y1="3.93725" x2="9.56306" y2="5.5483" gradientUnits="userSpaceOnUse">
<stop stop-color="#FEA613" stop-opacity="0" style="stop-color:none;stop-opacity:0;"/>
<stop offset="0.2032" stop-color="#FDA215" stop-opacity="0.203" style="stop-color:#FDA215;stop-color:color(display-p3 0.9922 0.6353 0.0824);stop-opacity:0.203;"/>
<stop offset="0.4052" stop-color="#FB961B" stop-opacity="0.405" style="stop-color:#FB961B;stop-color:color(display-p3 0.9843 0.5882 0.1059);stop-opacity:0.405;"/>
<stop offset="0.6066" stop-color="#F68225" stop-opacity="0.607" style="stop-color:#F68225;stop-color:color(display-p3 0.9647 0.5098 0.1451);stop-opacity:0.607;"/>
<stop offset="0.8066" stop-color="#F06633" stop-opacity="0.807" style="stop-color:#F06633;stop-color:color(display-p3 0.9412 0.4000 0.2000);stop-opacity:0.807;"/>
<stop offset="1" stop-color="#E94444" style="stop-color:#E94444;stop-color:color(display-p3 0.9137 0.2667 0.2667);stop-opacity:1;"/>
</linearGradient>
<linearGradient id="paint4_linear_4028_10039" x1="3.67407" y1="4.87372" x2="7.92568" y2="8.0766" gradientUnits="userSpaceOnUse">
<stop stop-color="#FE646F" style="stop-color:#FE646F;stop-color:color(display-p3 0.9961 0.3922 0.4353);stop-opacity:1;"/>
<stop offset="1" stop-color="#C41926" style="stop-color:#C41926;stop-color:color(display-p3 0.7686 0.0980 0.1490);stop-opacity:1;"/>
</linearGradient>
<linearGradient id="paint5_linear_4028_10039" x1="-3.65782" y1="-4.84333" x2="10.4362" y2="11.2915" gradientUnits="userSpaceOnUse">
<stop stop-color="#A72B2B" stop-opacity="0" style="stop-color:none;stop-opacity:0;"/>
<stop offset="0.1996" stop-color="#A32B2A" stop-opacity="0.2" style="stop-color:#A32B2A;stop-color:color(display-p3 0.6392 0.1686 0.1647);stop-opacity:0.2;"/>
<stop offset="0.3982" stop-color="#972926" stop-opacity="0.398" style="stop-color:#972926;stop-color:color(display-p3 0.5922 0.1608 0.1490);stop-opacity:0.398;"/>
<stop offset="0.5966" stop-color="#832820" stop-opacity="0.597" style="stop-color:#832820;stop-color:color(display-p3 0.5137 0.1569 0.1255);stop-opacity:0.597;"/>
<stop offset="0.7949" stop-color="#672517" stop-opacity="0.795" style="stop-color:#672517;stop-color:color(display-p3 0.4039 0.1451 0.0902);stop-opacity:0.795;"/>
<stop offset="0.9914" stop-color="#44210C" stop-opacity="0.991" style="stop-color:#44210C;stop-color:color(display-p3 0.2667 0.1294 0.0471);stop-opacity:0.991;"/>
<stop offset="1" stop-color="#42210B" style="stop-color:#42210B;stop-color:color(display-p3 0.2588 0.1294 0.0431);stop-opacity:1;"/>
</linearGradient>
<linearGradient id="paint6_linear_4028_10039" x1="6.41838" y1="5.54333" x2="5.1429" y2="6.12439" gradientUnits="userSpaceOnUse">
<stop stop-color="#A72B2B" stop-opacity="0" style="stop-color:none;stop-opacity:0;"/>
<stop offset="0.1996" stop-color="#A32B2A" stop-opacity="0.2" style="stop-color:#A32B2A;stop-color:color(display-p3 0.6392 0.1686 0.1647);stop-opacity:0.2;"/>
<stop offset="0.3982" stop-color="#972926" stop-opacity="0.398" style="stop-color:#972926;stop-color:color(display-p3 0.5922 0.1608 0.1490);stop-opacity:0.398;"/>
<stop offset="0.5966" stop-color="#832820" stop-opacity="0.597" style="stop-color:#832820;stop-color:color(display-p3 0.5137 0.1569 0.1255);stop-opacity:0.597;"/>
<stop offset="0.7949" stop-color="#672517" stop-opacity="0.795" style="stop-color:#672517;stop-color:color(display-p3 0.4039 0.1451 0.0902);stop-opacity:0.795;"/>
<stop offset="0.9914" stop-color="#44210C" stop-opacity="0.991" style="stop-color:#44210C;stop-color:color(display-p3 0.2667 0.1294 0.0471);stop-opacity:0.991;"/>
<stop offset="1" stop-color="#42210B" style="stop-color:#42210B;stop-color:color(display-p3 0.2588 0.1294 0.0431);stop-opacity:1;"/>
</linearGradient>
<linearGradient id="paint7_linear_4028_10039" x1="2.99383" y1="4.19347" x2="7.24541" y2="7.39632" gradientUnits="userSpaceOnUse">
<stop stop-color="#FE646F" style="stop-color:#FE646F;stop-color:color(display-p3 0.9961 0.3922 0.4353);stop-opacity:1;"/>
<stop offset="1" stop-color="#C41926" style="stop-color:#C41926;stop-color:color(display-p3 0.7686 0.0980 0.1490);stop-opacity:1;"/>
</linearGradient>
<linearGradient id="paint8_linear_4028_10039" x1="9.41681" y1="6.72168" x2="0.426342" y2="6.72168" gradientUnits="userSpaceOnUse">
<stop stop-color="#FE646F" style="stop-color:#FE646F;stop-color:color(display-p3 0.9961 0.3922 0.4353);stop-opacity:1;"/>
<stop offset="1" stop-color="#C41926" style="stop-color:#C41926;stop-color:color(display-p3 0.7686 0.0980 0.1490);stop-opacity:1;"/>
</linearGradient>
<linearGradient id="paint9_linear_4028_10039" x1="5.50264" y1="5.06141" x2="5.50264" y2="2.76068" gradientUnits="userSpaceOnUse">
<stop stop-color="#A72B2B" stop-opacity="0" style="stop-color:none;stop-opacity:0;"/>
<stop offset="0.1996" stop-color="#A32B2A" stop-opacity="0.2" style="stop-color:#A32B2A;stop-color:color(display-p3 0.6392 0.1686 0.1647);stop-opacity:0.2;"/>
<stop offset="0.3982" stop-color="#972926" stop-opacity="0.398" style="stop-color:#972926;stop-color:color(display-p3 0.5922 0.1608 0.1490);stop-opacity:0.398;"/>
<stop offset="0.5966" stop-color="#832820" stop-opacity="0.597" style="stop-color:#832820;stop-color:color(display-p3 0.5137 0.1569 0.1255);stop-opacity:0.597;"/>
<stop offset="0.7949" stop-color="#672517" stop-opacity="0.795" style="stop-color:#672517;stop-color:color(display-p3 0.4039 0.1451 0.0902);stop-opacity:0.795;"/>
<stop offset="0.9914" stop-color="#44210C" stop-opacity="0.991" style="stop-color:#44210C;stop-color:color(display-p3 0.2667 0.1294 0.0471);stop-opacity:0.991;"/>
<stop offset="1" stop-color="#42210B" style="stop-color:#42210B;stop-color:color(display-p3 0.2588 0.1294 0.0431);stop-opacity:1;"/>
</linearGradient>
<linearGradient id="paint10_linear_4028_10039" x1="5.5052" y1="8.72871" x2="5.5052" y2="10.7019" gradientUnits="userSpaceOnUse">
<stop stop-color="#A72B2B" stop-opacity="0" style="stop-color:none;stop-opacity:0;"/>
<stop offset="0.1996" stop-color="#A32B2A" stop-opacity="0.2" style="stop-color:#A32B2A;stop-color:color(display-p3 0.6392 0.1686 0.1647);stop-opacity:0.2;"/>
<stop offset="0.3982" stop-color="#972926" stop-opacity="0.398" style="stop-color:#972926;stop-color:color(display-p3 0.5922 0.1608 0.1490);stop-opacity:0.398;"/>
<stop offset="0.5966" stop-color="#832820" stop-opacity="0.597" style="stop-color:#832820;stop-color:color(display-p3 0.5137 0.1569 0.1255);stop-opacity:0.597;"/>
<stop offset="0.7949" stop-color="#672517" stop-opacity="0.795" style="stop-color:#672517;stop-color:color(display-p3 0.4039 0.1451 0.0902);stop-opacity:0.795;"/>
<stop offset="0.9914" stop-color="#44210C" stop-opacity="0.991" style="stop-color:#44210C;stop-color:color(display-p3 0.2667 0.1294 0.0471);stop-opacity:0.991;"/>
<stop offset="1" stop-color="#42210B" style="stop-color:#42210B;stop-color:color(display-p3 0.2588 0.1294 0.0431);stop-opacity:1;"/>
</linearGradient>
<linearGradient id="paint11_linear_4028_10039" x1="6.53106" y1="6.77966" x2="7.72152" y2="7.14813" gradientUnits="userSpaceOnUse">
<stop stop-color="#A72B2B" stop-opacity="0" style="stop-color:none;stop-opacity:0;"/>
<stop offset="0.1996" stop-color="#A32B2A" stop-opacity="0.2" style="stop-color:#A32B2A;stop-color:color(display-p3 0.6392 0.1686 0.1647);stop-opacity:0.2;"/>
<stop offset="0.3982" stop-color="#972926" stop-opacity="0.398" style="stop-color:#972926;stop-color:color(display-p3 0.5922 0.1608 0.1490);stop-opacity:0.398;"/>
<stop offset="0.5966" stop-color="#832820" stop-opacity="0.597" style="stop-color:#832820;stop-color:color(display-p3 0.5137 0.1569 0.1255);stop-opacity:0.597;"/>
<stop offset="0.7949" stop-color="#672517" stop-opacity="0.795" style="stop-color:#672517;stop-color:color(display-p3 0.4039 0.1451 0.0902);stop-opacity:0.795;"/>
<stop offset="0.9914" stop-color="#44210C" stop-opacity="0.991" style="stop-color:#44210C;stop-color:color(display-p3 0.2667 0.1294 0.0471);stop-opacity:0.991;"/>
<stop offset="1" stop-color="#42210B" style="stop-color:#42210B;stop-color:color(display-p3 0.2588 0.1294 0.0431);stop-opacity:1;"/>
</linearGradient>
<linearGradient id="paint12_linear_4028_10039" x1="6.53723" y1="11.6887" x2="8.9673" y2="12.9053" gradientUnits="userSpaceOnUse">
<stop stop-color="#FEF0AE" style="stop-color:#FEF0AE;stop-color:color(display-p3 0.9961 0.9412 0.6824);stop-opacity:1;"/>
<stop offset="1" stop-color="#FAC600" style="stop-color:#FAC600;stop-color:color(display-p3 0.9804 0.7765 0.0000);stop-opacity:1;"/>
</linearGradient>
<linearGradient id="paint13_linear_4028_10039" x1="10.5826" y1="12.4055" x2="5.7266" y2="12.352" gradientUnits="userSpaceOnUse">
<stop stop-color="#FEA613" stop-opacity="0" style="stop-color:none;stop-opacity:0;"/>
<stop offset="0.2032" stop-color="#FDA215" stop-opacity="0.203" style="stop-color:#FDA215;stop-color:color(display-p3 0.9922 0.6353 0.0824);stop-opacity:0.203;"/>
<stop offset="0.4052" stop-color="#FB961B" stop-opacity="0.405" style="stop-color:#FB961B;stop-color:color(display-p3 0.9843 0.5882 0.1059);stop-opacity:0.405;"/>
<stop offset="0.6066" stop-color="#F68225" stop-opacity="0.607" style="stop-color:#F68225;stop-color:color(display-p3 0.9647 0.5098 0.1451);stop-opacity:0.607;"/>
<stop offset="0.8066" stop-color="#F06633" stop-opacity="0.807" style="stop-color:#F06633;stop-color:color(display-p3 0.9412 0.4000 0.2000);stop-opacity:0.807;"/>
<stop offset="1" stop-color="#E94444" style="stop-color:#E94444;stop-color:color(display-p3 0.9137 0.2667 0.2667);stop-opacity:1;"/>
</linearGradient>
<linearGradient id="paint14_linear_4028_10039" x1="8.54522" y1="12.7167" x2="9.23089" y2="13.1487" gradientUnits="userSpaceOnUse">
<stop stop-color="#FEA613" stop-opacity="0" style="stop-color:none;stop-opacity:0;"/>
<stop offset="0.2032" stop-color="#FDA215" stop-opacity="0.203" style="stop-color:#FDA215;stop-color:color(display-p3 0.9922 0.6353 0.0824);stop-opacity:0.203;"/>
<stop offset="0.4052" stop-color="#FB961B" stop-opacity="0.405" style="stop-color:#FB961B;stop-color:color(display-p3 0.9843 0.5882 0.1059);stop-opacity:0.405;"/>
<stop offset="0.6066" stop-color="#F68225" stop-opacity="0.607" style="stop-color:#F68225;stop-color:color(display-p3 0.9647 0.5098 0.1451);stop-opacity:0.607;"/>
<stop offset="0.8066" stop-color="#F06633" stop-opacity="0.807" style="stop-color:#F06633;stop-color:color(display-p3 0.9412 0.4000 0.2000);stop-opacity:0.807;"/>
<stop offset="1" stop-color="#E94444" style="stop-color:#E94444;stop-color:color(display-p3 0.9137 0.2667 0.2667);stop-opacity:1;"/>
</linearGradient>
<linearGradient id="paint15_linear_4028_10039" x1="8.1397" y1="13.7076" x2="8.1397" y2="15.9308" gradientUnits="userSpaceOnUse">
<stop stop-color="#FEA613" stop-opacity="0" style="stop-color:none;stop-opacity:0;"/>
<stop offset="0.2032" stop-color="#FDA215" stop-opacity="0.203" style="stop-color:#FDA215;stop-color:color(display-p3 0.9922 0.6353 0.0824);stop-opacity:0.203;"/>
<stop offset="0.4052" stop-color="#FB961B" stop-opacity="0.405" style="stop-color:#FB961B;stop-color:color(display-p3 0.9843 0.5882 0.1059);stop-opacity:0.405;"/>
<stop offset="0.6066" stop-color="#F68225" stop-opacity="0.607" style="stop-color:#F68225;stop-color:color(display-p3 0.9647 0.5098 0.1451);stop-opacity:0.607;"/>
<stop offset="0.8066" stop-color="#F06633" stop-opacity="0.807" style="stop-color:#F06633;stop-color:color(display-p3 0.9412 0.4000 0.2000);stop-opacity:0.807;"/>
<stop offset="1" stop-color="#E94444" style="stop-color:#E94444;stop-color:color(display-p3 0.9137 0.2667 0.2667);stop-opacity:1;"/>
</linearGradient>
<linearGradient id="paint16_linear_4028_10039" x1="5.44788" y1="4.61264" x2="14.11" y2="12.7543" gradientUnits="userSpaceOnUse">
<stop stop-color="#C8EFFE" style="stop-color:#C8EFFE;stop-color:color(display-p3 0.7843 0.9373 0.9961);stop-opacity:1;"/>
<stop offset="1" stop-color="#62DBFB" style="stop-color:#62DBFB;stop-color:color(display-p3 0.3843 0.8588 0.9843);stop-opacity:1;"/>
</linearGradient>
<linearGradient id="paint17_linear_4028_10039" x1="4.78724" y1="3.26337" x2="13.4679" y2="12.4459" gradientUnits="userSpaceOnUse">
<stop stop-color="#07B2CD" stop-opacity="0" style="stop-color:none;stop-opacity:0;"/>
<stop offset="0.4553" stop-color="#05A5CE" stop-opacity="0.455" style="stop-color:#05A5CE;stop-color:color(display-p3 0.0196 0.6471 0.8078);stop-opacity:0.455;"/>
<stop offset="1" stop-color="#0290CF" style="stop-color:#0290CF;stop-color:color(display-p3 0.0078 0.5647 0.8118);stop-opacity:1;"/>
</linearGradient>
<linearGradient id="paint18_linear_4028_10039" x1="11.7005" y1="9.24257" x2="10.455" y2="6.78893" gradientUnits="userSpaceOnUse">
<stop stop-color="#07B2CD" stop-opacity="0" style="stop-color:none;stop-opacity:0;"/>
<stop offset="0.4553" stop-color="#05A5CE" stop-opacity="0.455" style="stop-color:#05A5CE;stop-color:color(display-p3 0.0196 0.6471 0.8078);stop-opacity:0.455;"/>
<stop offset="1" stop-color="#0290CF" style="stop-color:#0290CF;stop-color:color(display-p3 0.0078 0.5647 0.8118);stop-opacity:1;"/>
</linearGradient>
<linearGradient id="paint19_linear_4028_10039" x1="7.07814" y1="6.19041" x2="12.3729" y2="11.4852" gradientUnits="userSpaceOnUse">
<stop stop-color="#C8EFFE" style="stop-color:#C8EFFE;stop-color:color(display-p3 0.7843 0.9373 0.9961);stop-opacity:1;"/>
<stop offset="1" stop-color="#62DBFB" style="stop-color:#62DBFB;stop-color:color(display-p3 0.3843 0.8588 0.9843);stop-opacity:1;"/>
</linearGradient>
<linearGradient id="paint20_linear_4028_10039" x1="12.7562" y1="11.8697" x2="7.92643" y2="7.03982" gradientUnits="userSpaceOnUse">
<stop stop-color="#C8EFFE" style="stop-color:#C8EFFE;stop-color:color(display-p3 0.7843 0.9373 0.9961);stop-opacity:1;"/>
<stop offset="1" stop-color="#62DBFB" style="stop-color:#62DBFB;stop-color:color(display-p3 0.3843 0.8588 0.9843);stop-opacity:1;"/>
</linearGradient>
<linearGradient id="paint21_linear_4028_10039" x1="9.98437" y1="6.90197" x2="9.98437" y2="5.47975" gradientUnits="userSpaceOnUse">
<stop stop-color="#07B2CD" stop-opacity="0" style="stop-color:none;stop-opacity:0;"/>
<stop offset="0.4553" stop-color="#05A5CE" stop-opacity="0.455" style="stop-color:#05A5CE;stop-color:color(display-p3 0.0196 0.6471 0.8078);stop-opacity:0.455;"/>
<stop offset="1" stop-color="#0290CF" style="stop-color:#0290CF;stop-color:color(display-p3 0.0078 0.5647 0.8118);stop-opacity:1;"/>
</linearGradient>
<linearGradient id="paint22_linear_4028_10039" x1="9.9844" y1="10.9661" x2="9.9844" y2="13.05" gradientUnits="userSpaceOnUse">
<stop stop-color="#07B2CD" stop-opacity="0" style="stop-color:none;stop-opacity:0;"/>
<stop offset="0.4553" stop-color="#05A5CE" stop-opacity="0.455" style="stop-color:#05A5CE;stop-color:color(display-p3 0.0196 0.6471 0.8078);stop-opacity:0.455;"/>
<stop offset="1" stop-color="#0290CF" style="stop-color:#0290CF;stop-color:color(display-p3 0.0078 0.5647 0.8118);stop-opacity:1;"/>
</linearGradient>
<linearGradient id="paint23_linear_4028_10039" x1="10.0166" y1="10.3631" x2="12.638" y2="10.3631" gradientUnits="userSpaceOnUse">
<stop stop-color="#07B2CD" stop-opacity="0" style="stop-color:none;stop-opacity:0;"/>
<stop offset="0.4553" stop-color="#05A5CE" stop-opacity="0.455" style="stop-color:#05A5CE;stop-color:color(display-p3 0.0196 0.6471 0.8078);stop-opacity:0.455;"/>
<stop offset="1" stop-color="#0290CF" style="stop-color:#0290CF;stop-color:color(display-p3 0.0078 0.5647 0.8118);stop-opacity:1;"/>
</linearGradient>
<linearGradient id="paint24_linear_4028_10039" x1="10.2191" y1="10.9122" x2="11.7017" y2="12.3949" gradientUnits="userSpaceOnUse">
<stop stop-color="#07B2CD" stop-opacity="0" style="stop-color:none;stop-opacity:0;"/>
<stop offset="0.4553" stop-color="#05A5CE" stop-opacity="0.455" style="stop-color:#05A5CE;stop-color:color(display-p3 0.0196 0.6471 0.8078);stop-opacity:0.455;"/>
<stop offset="1" stop-color="#0290CF" style="stop-color:#0290CF;stop-color:color(display-p3 0.0078 0.5647 0.8118);stop-opacity:1;"/>
</linearGradient>
<linearGradient id="paint25_linear_4028_10039" x1="10.888" y1="6.60233" x2="12.3007" y2="7.30868" gradientUnits="userSpaceOnUse">
<stop stop-color="#07B2CD" stop-opacity="0" style="stop-color:none;stop-opacity:0;"/>
<stop offset="0.4553" stop-color="#05A5CE" stop-opacity="0.455" style="stop-color:#05A5CE;stop-color:color(display-p3 0.0196 0.6471 0.8078);stop-opacity:0.455;"/>
<stop offset="1" stop-color="#0290CF" style="stop-color:#0290CF;stop-color:color(display-p3 0.0078 0.5647 0.8118);stop-opacity:1;"/>
</linearGradient>
<linearGradient id="paint26_linear_4028_10039" x1="7.33508" y1="0.274604" x2="8.87977" y2="0.566839" gradientUnits="userSpaceOnUse">
<stop stop-color="#EAF9FA" style="stop-color:#EAF9FA;stop-color:color(display-p3 0.9176 0.9765 0.9804);stop-opacity:1;"/>
<stop offset="1" stop-color="#B3DAFE" style="stop-color:#B3DAFE;stop-color:color(display-p3 0.7020 0.8549 0.9961);stop-opacity:1;"/>
</linearGradient>
<linearGradient id="paint27_linear_4028_10039" x1="7.33508" y1="15.4738" x2="8.87977" y2="15.766" gradientUnits="userSpaceOnUse">
<stop stop-color="#EAF9FA" style="stop-color:#EAF9FA;stop-color:color(display-p3 0.9176 0.9765 0.9804);stop-opacity:1;"/>
<stop offset="1" stop-color="#B3DAFE" style="stop-color:#B3DAFE;stop-color:color(display-p3 0.7020 0.8549 0.9961);stop-opacity:1;"/>
</linearGradient>
<linearGradient id="paint28_linear_4028_10039" x1="14.6045" y1="7.81174" x2="16.9162" y2="8.2491" gradientUnits="userSpaceOnUse">
<stop stop-color="#EAF9FA" style="stop-color:#EAF9FA;stop-color:color(display-p3 0.9176 0.9765 0.9804);stop-opacity:1;"/>
<stop offset="1" stop-color="#B3DAFE" style="stop-color:#B3DAFE;stop-color:color(display-p3 0.7020 0.8549 0.9961);stop-opacity:1;"/>
</linearGradient>
<linearGradient id="paint29_linear_4028_10039" x1="-0.594729" y1="7.81174" x2="1.71699" y2="8.2491" gradientUnits="userSpaceOnUse">
<stop stop-color="#EAF9FA" style="stop-color:#EAF9FA;stop-color:color(display-p3 0.9176 0.9765 0.9804);stop-opacity:1;"/>
<stop offset="1" stop-color="#B3DAFE" style="stop-color:#B3DAFE;stop-color:color(display-p3 0.7020 0.8549 0.9961);stop-opacity:1;"/>
</linearGradient>
<linearGradient id="paint30_linear_4028_10039" x1="12.5524" y1="2.4709" x2="14.4604" y2="2.83188" gradientUnits="userSpaceOnUse">
<stop stop-color="#EAF9FA" style="stop-color:#EAF9FA;stop-color:color(display-p3 0.9176 0.9765 0.9804);stop-opacity:1;"/>
<stop offset="1" stop-color="#B3DAFE" style="stop-color:#B3DAFE;stop-color:color(display-p3 0.7020 0.8549 0.9961);stop-opacity:1;"/>
</linearGradient>
<linearGradient id="paint31_linear_4028_10039" x1="1.80493" y1="13.2183" x2="3.71289" y2="13.5793" gradientUnits="userSpaceOnUse">
<stop stop-color="#EAF9FA" style="stop-color:#EAF9FA;stop-color:color(display-p3 0.9176 0.9765 0.9804);stop-opacity:1;"/>
<stop offset="1" stop-color="#B3DAFE" style="stop-color:#B3DAFE;stop-color:color(display-p3 0.7020 0.8549 0.9961);stop-opacity:1;"/>
</linearGradient>
<linearGradient id="paint32_linear_4028_10039" x1="12.4435" y1="13.1977" x2="14.6045" y2="13.6066" gradientUnits="userSpaceOnUse">
<stop stop-color="#EAF9FA" style="stop-color:#EAF9FA;stop-color:color(display-p3 0.9176 0.9765 0.9804);stop-opacity:1;"/>
<stop offset="1" stop-color="#B3DAFE" style="stop-color:#B3DAFE;stop-color:color(display-p3 0.7020 0.8549 0.9961);stop-opacity:1;"/>
</linearGradient>
<linearGradient id="paint33_linear_4028_10039" x1="1.69599" y1="2.4503" x2="3.85705" y2="2.85914" gradientUnits="userSpaceOnUse">
<stop stop-color="#EAF9FA" style="stop-color:#EAF9FA;stop-color:color(display-p3 0.9176 0.9765 0.9804);stop-opacity:1;"/>
<stop offset="1" stop-color="#B3DAFE" style="stop-color:#B3DAFE;stop-color:color(display-p3 0.7020 0.8549 0.9961);stop-opacity:1;"/>
</linearGradient>
<linearGradient id="paint34_linear_4028_10039" x1="10.1962" y1="0.834923" x2="11.753" y2="1.12945" gradientUnits="userSpaceOnUse">
<stop stop-color="#EAF9FA" style="stop-color:#EAF9FA;stop-color:color(display-p3 0.9176 0.9765 0.9804);stop-opacity:1;"/>
<stop offset="1" stop-color="#B3DAFE" style="stop-color:#B3DAFE;stop-color:color(display-p3 0.7020 0.8549 0.9961);stop-opacity:1;"/>
</linearGradient>
<linearGradient id="paint35_linear_4028_10039" x1="4.46344" y1="14.9115" x2="6.02021" y2="15.206" gradientUnits="userSpaceOnUse">
<stop stop-color="#EAF9FA" style="stop-color:#EAF9FA;stop-color:color(display-p3 0.9176 0.9765 0.9804);stop-opacity:1;"/>
<stop offset="1" stop-color="#B3DAFE" style="stop-color:#B3DAFE;stop-color:color(display-p3 0.7020 0.8549 0.9961);stop-opacity:1;"/>
</linearGradient>
<linearGradient id="paint36_linear_4028_10039" x1="14.0442" y1="10.6783" x2="16.3535" y2="11.1152" gradientUnits="userSpaceOnUse">
<stop stop-color="#EAF9FA" style="stop-color:#EAF9FA;stop-color:color(display-p3 0.9176 0.9765 0.9804);stop-opacity:1;"/>
<stop offset="1" stop-color="#B3DAFE" style="stop-color:#B3DAFE;stop-color:color(display-p3 0.7020 0.8549 0.9961);stop-opacity:1;"/>
</linearGradient>
<linearGradient id="paint37_linear_4028_10039" x1="-0.032387" y1="4.94554" x2="2.27698" y2="5.38243" gradientUnits="userSpaceOnUse">
<stop stop-color="#EAF9FA" style="stop-color:#EAF9FA;stop-color:color(display-p3 0.9176 0.9765 0.9804);stop-opacity:1;"/>
<stop offset="1" stop-color="#B3DAFE" style="stop-color:#B3DAFE;stop-color:color(display-p3 0.7020 0.8549 0.9961);stop-opacity:1;"/>
</linearGradient>
<linearGradient id="paint38_linear_4028_10039" x1="14.0705" y1="4.87347" x2="16.2384" y2="5.28361" gradientUnits="userSpaceOnUse">
<stop stop-color="#EAF9FA" style="stop-color:#EAF9FA;stop-color:color(display-p3 0.9176 0.9765 0.9804);stop-opacity:1;"/>
<stop offset="1" stop-color="#B3DAFE" style="stop-color:#B3DAFE;stop-color:color(display-p3 0.7020 0.8549 0.9961);stop-opacity:1;"/>
</linearGradient>
<linearGradient id="paint39_linear_4028_10039" x1="0.0630999" y1="10.7734" x2="2.23107" y2="11.1836" gradientUnits="userSpaceOnUse">
<stop stop-color="#EAF9FA" style="stop-color:#EAF9FA;stop-color:color(display-p3 0.9176 0.9765 0.9804);stop-opacity:1;"/>
<stop offset="1" stop-color="#B3DAFE" style="stop-color:#B3DAFE;stop-color:color(display-p3 0.7020 0.8549 0.9961);stop-opacity:1;"/>
</linearGradient>
<linearGradient id="paint40_linear_4028_10039" x1="10.133" y1="14.8491" x2="12.0308" y2="15.2082" gradientUnits="userSpaceOnUse">
<stop stop-color="#EAF9FA" style="stop-color:#EAF9FA;stop-color:color(display-p3 0.9176 0.9765 0.9804);stop-opacity:1;"/>
<stop offset="1" stop-color="#B3DAFE" style="stop-color:#B3DAFE;stop-color:color(display-p3 0.7020 0.8549 0.9961);stop-opacity:1;"/>
</linearGradient>
<linearGradient id="paint41_linear_4028_10039" x1="4.23305" y1="0.841751" x2="6.13084" y2="1.20081" gradientUnits="userSpaceOnUse">
<stop stop-color="#EAF9FA" style="stop-color:#EAF9FA;stop-color:color(display-p3 0.9176 0.9765 0.9804);stop-opacity:1;"/>
<stop offset="1" stop-color="#B3DAFE" style="stop-color:#B3DAFE;stop-color:color(display-p3 0.7020 0.8549 0.9961);stop-opacity:1;"/>
</linearGradient>
<clipPath id="clip0_4028_10039">
<rect width="16" height="16" fill="white" style="fill:white;fill-opacity:1;"/>
</clipPath>
</defs>
</svg>
