<svg width="24" height="24" viewBox="0 0 24 24" fill="none" xmlns="http://www.w3.org/2000/svg">
<g clip-path="url(#clip0_4130_767)">
<path d="M12.0005 23.9991C18.6275 23.9991 23.9998 18.6268 23.9998 11.9998C23.9998 5.37275 18.6275 0.000488281 12.0005 0.000488281C5.37348 0.000488281 0.0012207 5.37275 0.0012207 11.9998C0.0012207 18.6268 5.37348 23.9991 12.0005 23.9991Z" fill="#0071CE" style="fill:#0071CE;fill:color(display-p3 0.0000 0.4431 0.8078);fill-opacity:1;"/>
<path d="M12.0005 23.9991C18.6275 23.9991 23.9998 18.6268 23.9998 11.9998C23.9998 5.37275 18.6275 0.000488281 12.0005 0.000488281C5.37348 0.000488281 0.0012207 5.37275 0.0012207 11.9998C0.0012207 18.6268 5.37348 23.9991 12.0005 23.9991Z" fill="#F9FAFB" style="fill:#F9FAFB;fill:color(display-p3 0.9765 0.9804 0.9843);fill-opacity:1;"/>
<path d="M12.0007 0.000488281C10.1721 0.000488281 8.43938 0.410265 6.88831 1.1419C12.2964 0.748313 16.941 2.91194 19.3626 6.19324L19.3627 6.19358C19.7528 5.30876 20.0515 4.33248 20.2353 3.27281C18.0864 1.24435 15.189 0.000488281 12.0007 0.000488281Z" fill="#00B3E3" style="fill:#00B3E3;fill:color(display-p3 0.0000 0.7020 0.8902);fill-opacity:1;"/>
<path d="M16.8408 9.76761C14.112 6.06561 8.55431 3.78444 2.26198 4.98952C1.35737 6.24402 0.689223 7.68006 0.322632 9.23286C5.34943 7.386 10.0086 9.06372 12.0007 11.9998C13.6684 11.8786 15.3905 11.1047 16.841 9.76784L16.8408 9.76761Z" fill="#00B3E3" style="fill:#00B3E3;fill:color(display-p3 0.0000 0.7020 0.8902);fill-opacity:1;"/>
<path d="M22.3924 17.9994C23.3067 16.4156 23.8182 14.7102 23.9601 13.0011C21.5969 17.8815 17.4009 20.8219 13.3484 21.2785L13.348 21.2785C13.9193 22.0586 14.6154 22.8055 15.4413 23.4945C18.2723 22.6477 20.7983 20.7604 22.3924 17.9994Z" fill="#0071CE" style="fill:#0071CE;fill:color(display-p3 0.0000 0.4431 0.8078);fill-opacity:1;"/>
<path d="M11.5137 17.3075C16.0842 16.7951 20.8385 13.1226 22.9411 7.07084C22.307 5.66019 21.3974 4.36348 20.236 3.26965C19.322 8.54647 15.5395 11.7426 12.0007 11.9997C11.2718 13.5047 11.0809 15.3829 11.5134 17.3075H11.5137Z" fill="#0071CE" style="fill:#0071CE;fill:color(display-p3 0.0000 0.4431 0.8078);fill-opacity:1;"/>
<path d="M1.60913 17.9994C2.5234 19.5831 3.74472 20.8787 5.15389 21.8562C2.10893 17.3694 1.66038 12.2653 3.29125 8.52744L3.29147 8.5271C2.33024 8.63177 1.33531 8.86126 0.325687 9.23191C-0.356416 12.1071 0.015037 15.2383 1.60913 17.9994Z" fill="#0071CE" style="fill:#0071CE;fill:color(display-p3 0.0000 0.4431 0.8078);fill-opacity:1;"/>
<path d="M3.29128 8.52762C1.66041 12.2654 2.10903 17.3694 5.15386 21.8562C6.83461 23.0221 8.78293 23.7342 10.7991 23.9388C6.60924 19.0921 5.80611 13.1385 7.64753 8.92412L7.64764 8.92395C6.33863 8.51538 4.85952 8.35654 3.29145 8.5271L3.29128 8.52762Z" fill="#FFC843" style="fill:#FFC843;fill:color(display-p3 1.0000 0.7843 0.2627);fill-opacity:1;"/>
<path d="M7.6476 8.92413C5.80618 13.1385 6.60943 19.0921 10.7992 23.9389C12.3378 24.0949 13.9156 23.9557 15.4436 23.4968C11.3308 20.0668 10.454 15.193 12.0008 11.9998C11.0619 10.6161 9.53066 9.51162 7.64766 8.92401L7.6476 8.92413Z" fill="#0071CE" style="fill:#0071CE;fill:color(display-p3 0.0000 0.4431 0.8078);fill-opacity:1;"/>
</g>
<defs>
<clipPath id="clip0_4130_767">
<rect width="24" height="24" fill="white" style="fill:white;fill-opacity:1;" transform="translate(0 0.000366211)"/>
</clipPath>
</defs>
</svg>
