<svg width="16" height="20" viewBox="0 0 16 20" fill="none" xmlns="http://www.w3.org/2000/svg">
<g clip-path="url(#clip0_4028_10210)">
<path d="M10.6846 6.01001L4.77178 12.6013H2.14108L0 6.01001H2.73444L4.08299 10.2941L7.93776 6.01001H10.6846Z" fill="white" style="fill:white;fill-opacity:1;"/>
<path d="M8.56422 16.1983C7.86297 16.0678 7.29451 15.8968 6.85468 15.691L7.90447 14.2968C8.38165 14.5113 8.88787 14.6707 9.42729 14.7809C9.96671 14.891 10.5061 14.9461 11.0455 14.9461C11.5559 14.9461 11.9543 14.8939 12.2364 14.7896C12.5186 14.6852 12.6597 14.5432 12.6597 14.3606C12.6597 14.2041 12.531 14.0823 12.2738 13.9925C12.0165 13.9055 11.6182 13.8098 11.0829 13.7113C10.4729 13.5983 9.96256 13.4852 9.56007 13.3664C9.15758 13.2504 8.80903 13.0736 8.51443 12.8359C8.22397 12.5983 8.07459 12.2823 8.07459 11.8939C8.07459 11.4243 8.25717 11.0098 8.62646 10.6562C8.99575 10.3026 9.51858 10.0272 10.2032 9.83304C10.8879 9.63883 11.6846 9.54028 12.6016 9.54028C13.2738 9.54028 13.9045 9.58956 14.4895 9.68521C15.0746 9.78376 15.5767 9.92289 15.9999 10.1055L15.0289 11.4881C14.6597 11.3258 14.253 11.2012 13.809 11.1171C13.365 11.033 12.9086 10.9896 12.4397 10.9896C11.9086 10.9896 11.4937 11.0504 11.1949 11.1693C10.892 11.2881 10.7426 11.4417 10.7426 11.6301C10.7426 11.7925 10.8713 11.92 11.1327 12.0069C11.3941 12.0939 11.7966 12.1896 12.3443 12.2881C12.9543 12.3954 13.4605 12.5055 13.8588 12.6185C14.2572 12.7316 14.6016 12.9055 14.8879 13.1374C15.1742 13.3693 15.3194 13.6736 15.3194 14.0504C15.3194 14.5142 15.1327 14.9258 14.7592 15.2794C14.3858 15.633 13.8547 15.9084 13.17 16.1026C12.4812 16.2968 11.6846 16.3954 10.7758 16.3954C10.0082 16.3954 9.26546 16.3287 8.56422 16.1983Z" fill="white" style="fill:white;fill-opacity:1;"/>
<path d="M3.05896 20.0005C3.75776 18.3112 4.55389 16.6324 5.38246 14.9582C5.78676 14.1199 6.2285 13.2863 6.65277 12.4492L7.9755 9.94715L9.35063 7.45092C9.82731 6.62078 10.284 5.78831 10.7782 4.96049C11.2573 4.1315 11.7565 3.30368 12.2581 2.47701L13.7955 0.000488281C13.6657 0.427155 13.476 0.848024 13.3013 1.27005C13.1241 1.69208 12.932 2.11295 12.7473 2.53382L12.1633 3.79411C11.9686 4.21382 11.759 4.63237 11.5568 5.05208C11.3547 5.47179 11.1475 5.89034 10.9329 6.30773L10.2965 7.56223L8.97378 10.0643L7.59615 12.5605C7.11947 13.3906 6.65776 14.2219 6.16112 15.0498C5.18031 16.7066 4.16955 18.3599 3.05896 20.0005Z" fill="white" style="fill:white;fill-opacity:1;"/>
</g>
<defs>
<clipPath id="clip0_4028_10210">
<rect width="16" height="20" fill="white" style="fill:white;fill-opacity:1;" transform="translate(0 0.000732422)"/>
</clipPath>
</defs>
</svg>
