<svg width="16" height="20" viewBox="0 0 16 20" fill="none" xmlns="http://www.w3.org/2000/svg">
<path d="M10.6846 6.0096L4.77178 12.6009H2.14108L0 6.0096H2.73444L4.08299 10.2937L7.93776 6.0096H10.6846Z" fill="white" style="fill:white;fill-opacity:1;"/>
<path d="M8.56428 16.1979C7.86304 16.0674 7.29457 15.8964 6.85474 15.6906L7.90453 14.2964C8.38171 14.5109 8.88793 14.6703 9.42735 14.7805C9.96677 14.8906 10.5062 14.9457 11.0456 14.9457C11.556 14.9457 11.9543 14.8935 12.2365 14.7892C12.5186 14.6848 12.6597 14.5428 12.6597 14.3602C12.6597 14.2037 12.5311 14.0819 12.2738 13.9921C12.0166 13.9051 11.6182 13.8095 11.083 13.7109C10.473 13.5979 9.96262 13.4848 9.56013 13.366C9.15764 13.25 8.80909 13.0732 8.51449 12.8355C8.22403 12.5979 8.07465 12.2819 8.07465 11.8935C8.07465 11.4239 8.25723 11.0095 8.62652 10.6558C8.99582 10.3022 9.51864 10.0268 10.2033 9.83264C10.8879 9.63844 11.6846 9.53989 12.6016 9.53989C13.2738 9.53989 13.9045 9.58916 14.4896 9.68481C15.0747 9.78336 15.5767 9.92249 16 10.1051L15.029 11.4877C14.6597 11.3254 14.2531 11.2008 13.8091 11.1167C13.3651 11.0326 12.9087 10.9892 12.4398 10.9892C11.9087 10.9892 11.4937 11.05 11.195 11.1689C10.8921 11.2877 10.7427 11.4413 10.7427 11.6297C10.7427 11.7921 10.8713 11.9196 11.1327 12.0066C11.3942 12.0935 11.7966 12.1892 12.3444 12.2877C12.9543 12.395 13.4605 12.5051 13.8589 12.6181C14.2572 12.7312 14.6016 12.9051 14.8879 13.137C15.1742 13.3689 15.3195 13.6732 15.3195 14.05C15.3195 14.5138 15.1327 14.9254 14.7593 15.279C14.3859 15.6326 13.8547 15.908 13.1701 16.1022C12.4813 16.2964 11.6846 16.395 10.7759 16.395C10.0083 16.395 9.26553 16.3283 8.56428 16.1979Z" fill="white" style="fill:white;fill-opacity:1;"/>
<path d="M3.05908 20.0001C3.75788 18.3108 4.55401 16.632 5.38258 14.9578C5.78689 14.1195 6.22863 13.2859 6.65289 12.4488L7.97562 9.94676L9.35075 7.45053C9.82743 6.62038 10.2841 5.78792 10.7783 4.96009C11.2575 4.13111 11.7566 3.30328 12.2582 2.47661L13.7956 9.15527e-05C13.6658 0.426758 13.4761 0.847628 13.3014 1.26966C13.1243 1.69169 12.9321 2.11256 12.7474 2.53343L12.1634 3.79372C11.9687 4.21343 11.7591 4.63198 11.557 5.05169C11.3548 5.4714 11.1477 5.88995 10.933 6.30734L10.2966 7.56183L8.9739 10.0639L7.59627 12.5601C7.11959 13.3902 6.65789 14.2215 6.16124 15.0494C5.18043 16.7062 4.16967 18.3595 3.05908 20.0001Z" fill="white" style="fill:white;fill-opacity:1;"/>
</svg>
