<svg width="18" height="18" viewBox="0 0 18 18" fill="none" xmlns="http://www.w3.org/2000/svg">
<path d="M9 1.40625C7.4981 1.40625 6.02993 1.85162 4.78114 2.68603C3.53236 3.52044 2.55905 4.70642 1.98429 6.094C1.40954 7.48157 1.25916 9.00842 1.55217 10.4815C1.84517 11.9545 2.56841 13.3076 3.63041 14.3696C4.69242 15.4316 6.04549 16.1548 7.51854 16.4478C8.99158 16.7408 10.5184 16.5905 11.906 16.0157C13.2936 15.441 14.4796 14.4676 15.314 13.2189C16.1484 11.9701 16.5938 10.5019 16.5938 9C16.5915 6.9867 15.7907 5.0565 14.3671 3.63287C12.9435 2.20925 11.0133 1.40848 9 1.40625ZM9 14.9062C7.83186 14.9062 6.68994 14.5599 5.71867 13.9109C4.74739 13.2619 3.99037 12.3394 3.54334 11.2602C3.09631 10.181 2.97935 8.99345 3.20724 7.84775C3.43513 6.70205 3.99765 5.64965 4.82365 4.82365C5.64966 3.99765 6.70205 3.43513 7.84775 3.20724C8.99345 2.97934 10.181 3.09631 11.2602 3.54334C12.3395 3.99037 13.2619 4.74739 13.9109 5.71866C14.5599 6.68994 14.9063 7.83185 14.9063 9C14.9046 10.5659 14.2818 12.0672 13.1745 13.1745C12.0672 14.2818 10.5659 14.9046 9 14.9062ZM8.15625 9.28125V5.625C8.15625 5.40122 8.24515 5.18661 8.40338 5.02838C8.56162 4.87014 8.77623 4.78125 9 4.78125C9.22378 4.78125 9.43839 4.87014 9.59662 5.02838C9.75486 5.18661 9.84375 5.40122 9.84375 5.625V9.28125C9.84375 9.50503 9.75486 9.71964 9.59662 9.87787C9.43839 10.0361 9.22378 10.125 9 10.125C8.77623 10.125 8.56162 10.0361 8.40338 9.87787C8.24515 9.71964 8.15625 9.50503 8.15625 9.28125ZM10.125 12.0938C10.125 12.3163 10.059 12.5338 9.93541 12.7188C9.81179 12.9038 9.63609 13.048 9.43052 13.1331C9.22496 13.2183 8.99876 13.2405 8.78053 13.1971C8.5623 13.1537 8.36184 13.0466 8.20451 12.8892C8.04717 12.7319 7.94003 12.5315 7.89662 12.3132C7.85321 12.095 7.87549 11.8688 7.96064 11.6632C8.04579 11.4577 8.18998 11.282 8.37499 11.1583C8.55999 11.0347 8.7775 10.9688 9 10.9688C9.29837 10.9688 9.58452 11.0873 9.7955 11.2983C10.0065 11.5092 10.125 11.7954 10.125 12.0938Z" fill="#E8AA3B" style="fill:#E8AA3B;fill:color(display-p3 0.9098 0.6667 0.2314);fill-opacity:1;"/>
</svg>
