 <svg width="24" height="24" viewBox="0 0 24 24" fill="none" xmlns="http://www.w3.org/2000/svg">
        <path
          d="M23.5861 19.8618H0.413812C0.185297 19.8618 0 19.6765 0 19.448V4.55151C0 4.32299 0.185297 4.1377 0.413812 4.1377H23.5862C23.8147 4.1377 24 4.32299 24 4.55151V19.448C24 19.6766 23.8147 19.8618 23.5861 19.8618Z"
          fill="#F5F5F5"
        />
        <path
          d="M14.2972 8.55643C12.3959 7.28889 9.82772 7.80709 8.56098 9.70515C7.92559 10.6525 8.18387 11.9399 9.13449 12.5737C10.0844 13.2075 11.3676 12.9501 12.0014 11.9993C12.6352 11.0487 13.9192 10.7945 14.8691 11.4249C15.8206 12.0587 16.0765 13.3461 15.4418 14.2935C16.7094 12.3922 16.197 9.82403 14.2972 8.55643Z"
          fill="#FF4B55"
        />
        <path
          d="M8.56091 9.70508C7.92553 10.6525 8.18381 11.9398 9.13443 12.5736C10.0843 13.2074 11.3675 12.95 12.0013 11.9993C12.6351 11.0486 13.9192 10.7944 14.8691 11.4249C15.8205 12.0587 16.0764 13.346 15.4417 14.2934C14.1758 16.198 11.6085 16.7097 9.70715 15.4421C7.80749 14.1746 7.29337 11.6065 8.56091 9.70508Z"
          fill="#41479B"
        />
        <path
          d="M16.4025 6.99319L17.1541 8.12297C17.2173 8.2179 17.1917 8.34605 17.097 8.40947L16.9064 8.53711C16.8113 8.60077 16.6826 8.57518 16.6191 8.47993L15.8665 7.35043C15.8032 7.25541 15.8289 7.12702 15.9239 7.0636L16.1154 6.93573C16.2105 6.87221 16.3391 6.89794 16.4025 6.99319Z"
          fill="#464655"
        />
        <path
          d="M17.5622 8.73508L18.3162 9.86415C18.3799 9.95949 18.3539 10.0885 18.2583 10.1517L18.0668 10.2782C17.9718 10.341 17.844 10.3152 17.7807 10.2205L17.0271 9.09264C16.9636 8.99767 16.9891 8.86918 17.0841 8.80567L17.2751 8.67798C17.3701 8.61447 17.4986 8.64001 17.5622 8.73508Z"
          fill="#464655"
        />
        <path
          d="M17.2073 6.45643L19.1212 9.3286C19.1845 9.42366 19.1588 9.5521 19.0637 9.61547L18.8715 9.74363C18.7764 9.80705 18.6479 9.78132 18.5845 9.68626L16.67 6.81428C16.6066 6.71917 16.6324 6.59064 16.7275 6.52731L16.9204 6.39892C17.0155 6.33568 17.1439 6.36137 17.2073 6.45643Z"
          fill="#464655"
        />
        <path
          d="M18.0098 5.91998L18.7631 7.05196C18.8266 7.1473 18.8005 7.27602 18.7049 7.33916L18.5134 7.46572C18.4183 7.52854 18.2904 7.50271 18.2272 7.40788L17.4734 6.2774C17.41 6.18233 17.4357 6.05385 17.5308 5.99048L17.7229 5.86241C17.8179 5.79899 17.9464 5.82473 18.0098 5.91998Z"
          fill="#464655"
        />
        <path
          d="M19.1703 7.66551L19.9224 8.79515C19.9857 8.89012 19.9601 9.01837 19.8652 9.08179L19.6742 9.20948C19.5791 9.27309 19.4504 9.2474 19.387 9.15215L18.6349 8.02251C18.5717 7.92754 18.5973 7.7993 18.6921 7.73587L18.8831 7.60819C18.9782 7.54458 19.1069 7.57022 19.1703 7.66551Z"
          fill="#464655"
        />
        <path
          d="M6.22123 13.7806L8.13485 16.6497C8.19822 16.7447 8.17263 16.8731 8.07757 16.9365L7.88594 17.0645C7.79088 17.128 7.6624 17.1023 7.59893 17.0072L5.68531 14.1382C5.62193 14.0431 5.64753 13.9147 5.74259 13.8513L5.93421 13.7233C6.02928 13.6598 6.15781 13.6855 6.22123 13.7806Z"
          fill="#464655"
        />
        <path
          d="M5.41784 14.3172L6.16915 15.4442C6.23248 15.5391 6.20693 15.6673 6.11211 15.7308L5.92151 15.8584C5.8265 15.922 5.69787 15.8965 5.63436 15.8014L4.88216 14.6748C4.81869 14.5797 4.84428 14.4513 4.93934 14.3878L5.13087 14.2599C5.22589 14.1965 5.35442 14.2221 5.41784 14.3172Z"
          fill="#464655"
        />
        <path
          d="M6.57898 16.0595L7.33113 17.1893C7.39441 17.2843 7.36877 17.4126 7.27385 17.476L7.0827 17.6037C6.98759 17.6673 6.85901 17.6417 6.79554 17.5465L6.04292 16.417C5.97959 16.322 6.00528 16.1936 6.1002 16.1301L6.29182 16.0022C6.38698 15.9386 6.51556 15.9643 6.57898 16.0595Z"
          fill="#464655"
        />
        <path
          d="M4.61448 14.8534L6.52689 17.7226C6.59021 17.8176 6.56457 17.9459 6.46974 18.0094L6.27864 18.1371C6.18357 18.2007 6.055 18.1751 5.99153 18.08L4.078 15.2111C4.01458 15.1161 4.04031 14.9876 4.13537 14.9242L4.32765 14.796C4.42262 14.7326 4.55111 14.7583 4.61448 14.8534Z"
          fill="#464655"
        />
        <path
          d="M5.6856 9.8645L7.59894 6.99309C7.66237 6.89793 7.7909 6.87224 7.88601 6.93571L8.07758 7.06363C8.1726 7.12705 8.19819 7.25549 8.13486 7.35051L6.22077 10.2203C6.15749 10.3152 6.02948 10.3409 5.93446 10.278L5.74364 10.1517C5.6481 10.0885 5.62214 9.95975 5.6856 9.8645Z"
          fill="#464655"
        />
        <path
          d="M4.88192 9.32842L6.79559 6.45644C6.85901 6.36128 6.98763 6.3356 7.08274 6.39916L7.27385 6.52694C7.36873 6.59036 7.39432 6.71861 7.33104 6.81363L5.41789 9.68575C5.35446 9.7809 5.22593 9.80664 5.13082 9.74312L4.9392 9.6152C4.84423 9.55183 4.81859 9.42343 4.88192 9.32842Z"
          fill="#464655"
        />
        <path
          d="M4.07763 8.79473L5.99149 5.9199C6.05491 5.82469 6.18358 5.79896 6.27869 5.86252L6.4698 5.9903C6.56467 6.05372 6.59027 6.18188 6.52708 6.2769L4.6144 9.15216C4.55107 9.24736 4.42249 9.27314 4.32738 9.20972L4.1351 9.08156C4.04008 9.01819 4.0144 8.8898 4.07763 8.79473Z"
          fill="#464655"
        />
        <path
          d="M15.8668 16.6493L16.619 15.5227C16.6825 15.4276 16.8111 15.402 16.9061 15.4656L17.0967 15.5933C17.1916 15.6568 17.2171 15.785 17.1538 15.88L16.4025 17.0068C16.339 17.102 16.2105 17.1276 16.1154 17.0642L15.9239 16.9363C15.8289 16.8728 15.8033 16.7444 15.8668 16.6493Z"
          fill="#464655"
        />
        <path
          d="M17.027 14.913L17.7804 13.7808C17.8438 13.6856 17.9723 13.6598 18.0674 13.7232L18.2594 13.8512C18.3545 13.9146 18.3802 14.0432 18.3167 14.1383L17.5617 15.2687C17.4984 15.3635 17.3704 15.3892 17.2754 15.3262L17.085 15.2C16.9896 15.1368 16.9636 15.0082 17.027 14.913Z"
          fill="#464655"
        />
        <path
          d="M16.6699 17.1891L17.4225 16.0595C17.4859 15.9644 17.6144 15.9386 17.7095 16.0021L17.9019 16.1304C17.9969 16.1937 18.0226 16.3221 17.9593 16.4172L17.2071 17.5469C17.1438 17.642 17.0154 17.6678 16.9202 17.6044L16.7273 17.4761C16.6323 17.4127 16.6065 17.2842 16.6699 17.1891Z"
          fill="#464655"
        />
        <path
          d="M17.8313 15.4435L18.5844 14.3166C18.6479 14.2216 18.7762 14.196 18.8712 14.2594L19.0635 14.3875C19.1586 14.451 19.1843 14.5795 19.1207 14.6746L18.3677 15.8016C18.3043 15.8965 18.1759 15.9221 18.0809 15.8587L17.8886 15.7306C17.7934 15.6673 17.7677 15.5386 17.8313 15.4435Z"
          fill="#464655"
        />
        <path
          d="M17.4736 17.7225L18.2272 16.5949C18.2904 16.5002 18.4183 16.4745 18.5132 16.5372L18.7048 16.6638C18.8003 16.727 18.8264 16.8558 18.7628 16.9512L18.0099 18.0803C17.9465 18.1754 17.818 18.201 17.723 18.1377L17.5308 18.0096C17.4357 17.9462 17.4101 17.8176 17.4736 17.7225Z"
          fill="#464655"
        />
        <path
          d="M18.6353 15.9829L19.3869 14.854C19.4504 14.7588 19.579 14.733 19.6741 14.7966L19.865 14.9242C19.9599 14.9877 19.9855 15.1161 19.9221 15.2111L19.1698 16.3385C19.1066 16.4334 18.9784 16.4592 18.8834 16.3962L18.6931 16.2701C18.5978 16.2069 18.5719 16.0782 18.6353 15.9829Z"
          fill="#464655"
        />
      </svg>