 <svg width="24" height="24" viewBox="0 0 24 24" fill="none" xmlns="http://www.w3.org/2000/svg">
        <path
          d="M22.2047 4.13916H1.79531C0.801562 4.13916 0 4.94541 0 5.93447V18.0657C0 19.0595 0.80625 19.861 1.79531 19.861H22.2C23.1938 19.861 23.9953 19.0548 23.9953 18.0657V5.93447C24 4.94072 23.1938 4.13916 22.2047 4.13916Z"
          fill="#F5F5F5"
        />
        <path
          d="M0 18.0657C0 19.0595 0.80625 19.861 1.79531 19.861H22.2C23.1938 19.861 23.9953 19.0548 23.9953 18.0657V17.3813H0V18.0657Z"
          fill="#FF4B55"
        />
        <path
          d="M22.2047 4.13916H1.79531C0.801562 4.13916 0 4.94541 0 5.93447V6.61885H24V5.93447C24 4.94072 23.1938 4.13916 22.2047 4.13916Z"
          fill="#FF4B55"
        />
        <path d="M24 9.10303H0V14.8968H24V9.10303Z" fill="#41479B" />
      </svg>